<?xml version="1.0" encoding="utf-8"?>
<!-- Generator: Adobe Illustrator 21.1.0, SVG Export Plug-In . SVG Version: 6.00 Build 0)  -->
<svg version="1.1" id="Objects" xmlns="http://www.w3.org/2000/svg" xmlns:xlink="http://www.w3.org/1999/xlink" x="0px" y="0px"
	 viewBox="0 0 694 800" style="enable-background:new 0 0 694 800;" xml:space="preserve">
<style type="text/css">
	.st0{fill:none;stroke:#34508B;stroke-width:3;stroke-linecap:round;stroke-linejoin:round;stroke-miterlimit:10;}
	.st1{fill:#C8EBFF;stroke:#34508B;stroke-width:3;stroke-linecap:round;stroke-linejoin:round;stroke-miterlimit:10;}
	.st2{fill:#3BDDBA;stroke:#34508B;stroke-width:3;stroke-linecap:round;stroke-linejoin:round;stroke-miterlimit:10;}
	.st3{fill:#ED1C24;stroke:#34508B;stroke-width:3;stroke-linecap:round;stroke-linejoin:round;stroke-miterlimit:10;}
	.st4{fill:#FFFFFF;stroke:#34508B;stroke-width:3;stroke-linecap:round;stroke-linejoin:round;stroke-miterlimit:10;}
	.st5{fill:#A7A8A8;stroke:#34508B;stroke-width:3;stroke-linecap:round;stroke-linejoin:round;stroke-miterlimit:10;}
	.st6{fill:#FFFAAD;stroke:#34508B;stroke-width:3;stroke-linecap:round;stroke-linejoin:round;stroke-miterlimit:10;}
	.st7{fill:#A5D996;stroke:#34508B;stroke-width:3;stroke-linecap:round;stroke-linejoin:round;stroke-miterlimit:10;}
	.st8{fill:#FFD3A2;stroke:#34508B;stroke-width:3;stroke-linecap:round;stroke-linejoin:round;stroke-miterlimit:10;}
	.st9{fill:#62C3EF;stroke:#34508B;stroke-width:3;stroke-linecap:round;stroke-linejoin:round;stroke-miterlimit:10;}
	.st10{fill:#FF6AA9;stroke:#34508B;stroke-width:3;stroke-linecap:round;stroke-linejoin:round;stroke-miterlimit:10;}
	.st11{fill:#34508B;stroke:#34508B;stroke-width:3;stroke-linecap:round;stroke-linejoin:round;stroke-miterlimit:10;}
	.st12{fill:#FF9F9E;stroke:#34508B;stroke-width:3;stroke-linecap:round;stroke-linejoin:round;stroke-miterlimit:10;}
	
		.st13{fill:none;stroke:#FFFFFF;stroke-width:3;stroke-linecap:round;stroke-linejoin:round;stroke-miterlimit:10;stroke-dasharray:3,7;}
	.st14{fill:#F7AB6F;stroke:#34508B;stroke-width:3;stroke-linecap:round;stroke-linejoin:round;stroke-miterlimit:10;}
	.st15{fill:none;stroke:#FFFFFF;stroke-width:3;stroke-linecap:round;stroke-linejoin:round;}
	.st16{fill:none;stroke:#FFFFFF;stroke-width:3;stroke-linecap:round;stroke-linejoin:round;stroke-dasharray:2.9104,6.7909;}
	.st17{fill:none;stroke:#FFFFFF;stroke-width:3;stroke-linecap:round;stroke-linejoin:round;stroke-dasharray:2.5056,5.8463;}
	.st18{fill:#34508B;}
	.st19{fill:none;stroke:#FFFFFF;stroke-width:3;stroke-linecap:round;stroke-linejoin:round;stroke-dasharray:2.9363,6.8514;}
	.st20{fill:#E7E3E4;}
	.st21{fill:#C8EBFF;}
	.st22{fill:none;}
	.st23{fill:#F4E3AB;stroke:#122D59;stroke-width:2;stroke-miterlimit:10;}
	.st24{fill:#F5F5F5;stroke:#302D2D;stroke-width:2;stroke-linecap:round;stroke-linejoin:round;stroke-miterlimit:10;}
	.st25{fill:#F5F5F5;}
	.st26{fill:none;stroke:#302D2D;stroke-width:2;stroke-linecap:round;stroke-linejoin:round;stroke-miterlimit:10;}
	.st27{fill:#04C4D5;stroke:#302D2D;stroke-width:2;stroke-linecap:round;stroke-linejoin:round;stroke-miterlimit:10;}
</style>
<line id="XMLID_139_" class="st0" x1="304.7" y1="460.6" x2="-123.2" y2="460.6"/>
<line id="XMLID_136_" class="st0" x1="279.7" y1="598.6" x2="63.8" y2="598.6"/>
<line id="XMLID_137_" class="st0" x1="632.7" y1="598.6" x2="414.7" y2="598.6"/>
<line id="XMLID_138_" class="st0" x1="814" y1="460.6" x2="609.7" y2="460.6"/>
<g id="XMLID_105_">
	<rect id="XMLID_114_" x="564.2" y="244.3" class="st1" width="106.2" height="205.8"/>
	<rect id="XMLID_113_" x="571.9" y="259.2" class="st2" width="28.5" height="29.5"/>
	<rect id="XMLID_112_" x="571.9" y="296.4" class="st3" width="28.5" height="29.5"/>
	<rect id="XMLID_110_" x="637" y="340.9" class="st4" width="20.9" height="65.8"/>
	<rect id="XMLID_111_" x="606.9" y="340.9" class="st4" width="20.9" height="65.8"/>
	<rect id="XMLID_142_" x="576.7" y="340.9" class="st4" width="20.9" height="65.8"/>
	<rect id="XMLID_109_" x="608.9" y="259.2" class="st3" width="49" height="29.5"/>
	<line id="XMLID_108_" class="st0" x1="571.9" y1="420.2" x2="659" y2="420.2"/>
	<line id="XMLID_107_" class="st0" x1="571.9" y1="426.5" x2="659" y2="426.5"/>
	<rect id="XMLID_106_" x="556.3" y="450.2" class="st5" width="122" height="8.6"/>
	<line id="XMLID_96_" class="st6" x1="608.9" y1="299.1" x2="657.9" y2="299.1"/>
	<line id="XMLID_125_" class="st6" x1="608.9" y1="308" x2="657.9" y2="308"/>
	<line id="XMLID_140_" class="st6" x1="608.9" y1="316.9" x2="657.9" y2="316.9"/>
	<line id="XMLID_141_" class="st6" x1="608.9" y1="325.8" x2="657.9" y2="325.8"/>
</g>
<g id="XMLID_79_">
	<rect id="XMLID_78_" x="20.4" y="244.3" class="st1" width="106.2" height="205.8"/>
	<rect id="XMLID_76_" x="28.1" y="259.2" class="st2" width="28.5" height="29.5"/>
	<rect id="XMLID_92_" x="28.1" y="296.4" class="st3" width="86" height="29.5"/>
	<rect id="XMLID_93_" x="28.1" y="336.8" class="st3" width="20.9" height="29.5"/>
	<rect id="XMLID_143_" x="58.7" y="336.8" class="st3" width="20.9" height="29.5"/>
	<rect id="XMLID_146_" x="89.4" y="336.8" class="st3" width="20.9" height="29.5"/>
	<rect id="XMLID_95_" x="28.1" y="377.2" class="st4" width="86" height="29.5"/>
	<rect id="XMLID_91_" x="65.1" y="259.2" class="st6" width="49" height="29.5"/>
	<line id="XMLID_102_" class="st0" x1="28.1" y1="420.2" x2="115.1" y2="420.2"/>
	<line id="XMLID_103_" class="st0" x1="28.1" y1="426.5" x2="115.1" y2="426.5"/>
	<rect id="XMLID_77_" x="12.5" y="450.2" class="st5" width="122" height="8.6"/>
</g>
<g id="XMLID_84_">
	<g id="XMLID_151_">
		<rect id="XMLID_65_" x="437.6" y="287.5" class="st4" width="154" height="298.6"/>
		<rect id="XMLID_64_" x="426.1" y="586.1" class="st5" width="177" height="12.5"/>
		<g id="XMLID_40_">
			<line id="XMLID_44_" class="st0" x1="471.9" y1="331.2" x2="510.9" y2="331.2"/>
			<line id="XMLID_43_" class="st0" x1="471.9" y1="324.2" x2="510.9" y2="324.2"/>
			<line id="XMLID_42_" class="st0" x1="471.9" y1="317.1" x2="485.2" y2="317.1"/>
			<line id="XMLID_41_" class="st0" x1="544" y1="317.1" x2="557.3" y2="317.1"/>
		</g>
		<g id="XMLID_131_">
			<line id="XMLID_135_" class="st0" x1="471.9" y1="556.5" x2="510.9" y2="556.5"/>
			<line id="XMLID_134_" class="st0" x1="471.9" y1="549.5" x2="510.9" y2="549.5"/>
			<line id="XMLID_133_" class="st0" x1="471.9" y1="542.4" x2="485.2" y2="542.4"/>
			<line id="XMLID_132_" class="st0" x1="544" y1="542.4" x2="557.3" y2="542.4"/>
		</g>
		<circle id="XMLID_130_" class="st7" cx="529.1" cy="341.1" r="5.4"/>
		<circle id="XMLID_129_" class="st3" cx="529.1" cy="370.3" r="5.4"/>
		<polyline id="XMLID_128_" class="st0" points="534.5,342.3 558.2,356.1 534.5,369.7 		"/>
		<circle id="XMLID_127_" class="st8" cx="562.4" cy="355.4" r="5.4"/>
		<g id="XMLID_124_">
			<rect id="XMLID_117_" x="466.5" y="476.4" class="st0" width="96.3" height="43.6"/>
			<line id="XMLID_120_" class="st0" x1="466.5" y1="491.3" x2="562.7" y2="491.3"/>
			<g id="XMLID_119_">
				<line id="XMLID_121_" class="st0" x1="490.4" y1="491.3" x2="490.4" y2="520"/>
				<line id="XMLID_122_" class="st0" x1="514.6" y1="491.3" x2="514.6" y2="520"/>
				<line id="XMLID_123_" class="st0" x1="538.8" y1="491.3" x2="538.8" y2="520"/>
			</g>
		</g>
		<line id="XMLID_126_" class="st0" x1="466.5" y1="504.2" x2="562.7" y2="504.2"/>
		<g id="XMLID_94_">
			<path id="XMLID_149_" class="st9" d="M548.4,427.5c0-8.2-6.6-14.8-14.8-14.8c-0.4,0-0.8,0-1.2,0.1c-3-8.7-11.3-15-21-15
				c-10.2,0-18.8,6.9-21.4,16.2c-1.9-0.8-3.9-1.3-6.1-1.3c-8.2,0-14.8,6.6-14.8,14.8c0,8.2,6.6,14.8,14.8,14.8h50.8v-0.1
				C542.4,441.7,548.4,435.3,548.4,427.5z"/>
			<polygon id="XMLID_144_" class="st3" points="509,421.2 494.1,436 499.9,436 499.9,450 518.1,450 518.1,436 524,436 			"/>
		</g>
	</g>
	<g id="XMLID_150_">
		<rect id="XMLID_3_" x="99.2" y="287.5" class="st4" width="154" height="298.6"/>
		<rect id="XMLID_5_" x="87.7" y="586.1" class="st5" width="177" height="12.5"/>
		<g id="XMLID_25_">
			<line id="XMLID_12_" class="st10" x1="128.5" y1="395" x2="223.8" y2="395"/>
			<g id="XMLID_17_">
				<rect id="XMLID_9_" x="139.4" y="373" class="st3" width="11.7" height="22"/>
				<rect id="XMLID_15_" x="139.4" y="386.6" class="st11" width="11.7" height="8.5"/>
				<rect id="XMLID_20_" x="160" y="364.5" class="st3" width="11.7" height="30.5"/>
				<rect id="XMLID_19_" x="160" y="386.6" class="st11" width="11.7" height="8.5"/>
				<rect id="XMLID_22_" x="180.6" y="354" class="st3" width="11.7" height="41"/>
				<rect id="XMLID_21_" x="180.6" y="386.6" class="st11" width="11.7" height="8.5"/>
				<rect id="XMLID_24_" x="201.2" y="343.1" class="st3" width="11.7" height="52"/>
				<rect id="XMLID_23_" x="201.2" y="386.6" class="st11" width="11.7" height="8.5"/>
			</g>
		</g>
		<rect id="XMLID_26_" x="128.5" y="305.8" class="st11" width="10.8" height="10.8"/>
		<rect id="XMLID_28_" x="149.2" y="305.8" class="st10" width="10.8" height="10.8"/>
		<g id="XMLID_30_">
			<line id="XMLID_29_" class="st10" x1="128.5" y1="548.9" x2="223.8" y2="548.9"/>
			<rect id="XMLID_27_" x="134" y="472.3" class="st10" width="11.3" height="76.5"/>
			<rect id="XMLID_31_" x="158.4" y="503.1" class="st2" width="11.3" height="45.8"/>
			<rect id="XMLID_32_" x="182.9" y="491.9" class="st12" width="11.3" height="57"/>
			<rect id="XMLID_33_" x="207.3" y="510.6" class="st9" width="11.3" height="38.3"/>
			<polyline id="XMLID_34_" class="st0" points="128.5,472.3 151.1,472.3 158.4,503.1 169.7,503.1 182.9,491.9 194.1,491.9 
				207.3,510.6 223.8,510.6 			"/>
			<line id="XMLID_35_" class="st0" x1="128.5" y1="458.5" x2="167.6" y2="458.5"/>
			<line id="XMLID_36_" class="st0" x1="128.5" y1="451.5" x2="167.6" y2="451.5"/>
			<line id="XMLID_37_" class="st0" x1="128.5" y1="444.4" x2="141.9" y2="444.4"/>
			<line id="XMLID_38_" class="st0" x1="200.7" y1="444.4" x2="214" y2="444.4"/>
		</g>
	</g>
</g>
<g id="XMLID_90_">
	<rect id="XMLID_2_" x="204.7" y="495.5" class="st1" width="279.2" height="191.2"/>
	<rect id="XMLID_4_" x="194.5" y="686.7" class="st9" width="299.6" height="12.3"/>
	<rect id="XMLID_6_" x="328.9" y="699" class="st4" width="30.7" height="58.3"/>
	<line id="XMLID_7_" class="st0" x1="279.2" y1="757.3" x2="409.4" y2="757.3"/>
	<circle id="XMLID_8_" class="st13" cx="344.3" cy="591.1" r="47.8"/>
	<g id="XMLID_10_">
		<path id="XMLID_18_" class="st3" d="M344.3,591.1v-30.5c-16.8,0-30.5,13.7-30.5,30.5s13.7,30.5,30.5,30.5
			c16.8,0,30.5-13.7,30.5-30.5H344.3z"/>
	</g>
	<path id="XMLID_16_" class="st9" d="M351.5,557.9V584h26.1C377.5,569.6,365.8,557.9,351.5,557.9z"/>
	<g id="XMLID_55_">
		
			<rect id="XMLID_53_" x="455.6" y="668.2" transform="matrix(0.7071 -0.7071 0.7071 0.7071 -340.0796 523.6035)" class="st14" width="12.8" height="8.2"/>
		<path id="XMLID_56_" class="st5" d="M495,704.5l-0.8,0.8c-1.6,1.6-4.1,1.6-5.7,0l-26.9-26.9l6.5-6.5l26.9,26.9
			C496.6,700.4,496.6,703,495,704.5z"/>
		<path id="XMLID_60_" class="st14" d="M414.9,625.2c-12.7,12.7-12.7,33.3,0,46c12.7,12.7,33.3,12.7,46,0c12.7-12.7,12.7-33.3,0-46
			S427.6,612.5,414.9,625.2z M456.4,666.7c-10.2,10.2-26.9,10.2-37.1,0c-10.2-10.2-10.2-26.9,0-37.1c10.2-10.2,26.9-10.2,37.1,0
			C466.7,639.9,466.7,656.5,456.4,666.7z"/>
		<path id="XMLID_62_" class="st0" d="M419.3,655.4c-1.3-3.4-1.7-7.1-1.1-10.6"/>
		<path id="XMLID_61_" class="st0" d="M423.8,634.1c1.6-1.6,3.4-2.9,5.3-3.8"/>
	</g>
	<g id="XMLID_63_">
		<g>
			<line class="st15" x1="300.6" y1="634.1" x2="299.5" y2="635.1"/>
			<line class="st16" x1="294.7" y1="639.9" x2="283.4" y2="651.3"/>
			<polyline class="st15" points="281,653.7 279.9,654.7 278.4,654.7 			"/>
			<line class="st17" x1="272.6" y1="654.7" x2="258.8" y2="654.7"/>
			<line class="st15" x1="255.9" y1="654.7" x2="254.4" y2="654.7"/>
		</g>
	</g>
	<g id="XMLID_70_">
		<path id="XMLID_66_" class="st2" d="M444,580.6h-13.8c-3.6,0-6.5-2.9-6.5-6.5v-29.6c0-3.6,2.9-6.5,6.5-6.5H444
			c3.6,0,6.5,2.9,6.5,6.5v29.6C450.5,577.7,447.6,580.6,444,580.6z"/>
		<rect id="XMLID_68_" x="423.8" y="550.5" class="st2" width="26.8" height="17.7"/>
		<circle id="XMLID_69_" class="st18" cx="437.2" cy="544.4" r="2.1"/>
		<line id="XMLID_71_" class="st2" x1="432.2" y1="573.9" x2="442.1" y2="573.9"/>
	</g>
	<g id="XMLID_73_">
		<path id="XMLID_82_" class="st2" d="M276.2,632.6h-50.7v-30.8c0-3.6,2.9-6.5,6.5-6.5h37.7c3.6,0,6.5,2.9,6.5,6.5V632.6z"/>
		<rect id="XMLID_81_" x="230.3" y="601.4" class="st2" width="41.2" height="26.1"/>
		<path id="XMLID_72_" class="st2" d="M273.5,639.8h-45.2c-3.5,0-6.3-2.8-6.3-6.3v-0.9h57.8v0.9C279.8,637,277,639.8,273.5,639.8z"
			/>
	</g>
</g>
<g id="XMLID_1_">
	<rect id="XMLID_45_" x="257.6" y="480.1" class="st14" width="27.2" height="39.6"/>
	<path id="XMLID_46_" class="st14" d="M271.2,457.6L271.2,457.6c-3.8,0-7.3,2.1-9.1,5.5l-0.6,1.1c-2.6,4.9-4,10.4-4,15.9v0h27.2v0
		c0-5.6-1.4-11-4-15.9l-0.6-1.1C278.5,459.7,275,457.6,271.2,457.6z"/>
	<rect id="XMLID_47_" x="257.6" y="519.7" class="st1" width="27.2" height="9"/>
	<g id="XMLID_48_">
		<polygon id="XMLID_49_" class="st9" points="262.6,528.9 250.9,534.5 250.9,520.2 262.6,504.9 		"/>
		<polygon id="XMLID_50_" class="st9" points="279.7,528.9 291.5,534.5 291.5,520.2 279.7,504.9 		"/>
	</g>
	<line id="XMLID_51_" class="st14" x1="261" y1="534.5" x2="261" y2="551.4"/>
	<line id="XMLID_52_" class="st14" x1="271.2" y1="540.6" x2="271.2" y2="557.5"/>
	<line id="XMLID_54_" class="st14" x1="281.4" y1="534.5" x2="281.4" y2="551.4"/>
	<path id="XMLID_57_" class="st14" d="M271.2,457.6c-3.8,0-7.3,2.1-9.1,5.5l-0.6,1.1c0,0,0,0.1-0.1,0.1h19.4c0,0,0-0.1-0.1-0.1
		l-0.6-1.1C278.5,459.7,275,457.6,271.2,457.6z"/>
</g>
<g id="XMLID_67_">
	<g>
		<line class="st15" x1="361.5" y1="372.9" x2="362.6" y2="371.8"/>
		<polyline class="st19" points="367.4,366.9 380,354.4 397.9,354.4 		"/>
		<line class="st15" x1="401.4" y1="354.4" x2="402.9" y2="354.4"/>
	</g>
</g>
<g id="XMLID_104_">
	<rect id="XMLID_116_" x="353.5" y="462.5" class="st4" width="61.3" height="47.9"/>
	<path id="XMLID_118_" class="st8" d="M379.8,468.8l-2.2-7.4c-0.7-2.3-2.8-3.9-5.2-3.9H364c-2.4,0-4.5,1.6-5.2,3.9l-2.2,7.4h-7v45.4
		H410v-45.4H379.8z"/>
</g>
<rect id="XMLID_155_" x="-20" y="63" class="st22" width="730.7" height="730.7"/>
<g>
	<path class="st23" d="M424.8,172.6l-56.7-15.2L311.3,142l26.8-12.9c0.3,0.1,0.6,0.2,0.9,0.3l14.7,3.9c3.7,1,7.6-1.2,8.6-5l1.5-5.6
		c1-3.7-1.2-7.6-5-8.6l-20.4-5.6c-0.1,0-0.1,0-0.2,0c-0.2,0-0.5-0.1-0.7-0.1c-0.1,0-0.2,0-0.3,0c-1.1-0.1-2.3,0.1-3.4,0.6
		l-78.6,27.9l-18.8,66.9l62.2,17l48.8,13.1l7.9,2.1c3.7,1,7.6-1.2,8.6-5l1.5-5.5c1-3.7-1.2-7.6-5-8.6l12.5,3.3c3.7,1,7.6-1.2,8.6-5
		l1.5-5.6c1-3.7-1.2-7.6-5-8.6l15.3,4.1c3.7,1,7.6-1.2,8.6-5l1.5-5.5c1-3.7-1.2-7.6-5-8.6l21,5.6c3.7,1,7.6-1.2,8.6-5l1.5-5.6
		C430.8,177.5,428.5,173.6,424.8,172.6z"/>
	<path class="st24" d="M463.3,145.9l-35.5-43.4l-47.6,31.6l-25.4-7l-8.1-2.7l-5.5,2.7l-28.7,13.1c-2.6,1.2-3.6,1.8-4.8,3.3
		c-1.2,1.5-2,3.5-2,5.6v21.5c0,3.9,3.2,7,7,7h5.7c3.9,0,7-3.2,7-7V158l18.6-4l7.5-1.3l6.2,1.7l65.2,17c1.5,0.4,3,0.3,4.3-0.3
		L463.3,145.9z"/>
	<g>
		<path class="st25" d="M328.4,208.5c3.7,1,6,4.9,5,8.6l-6.6,24.5c-1,3.7-4.9,6-8.6,5l-5.5-1.5c-3.7-1-6-4.9-5-8.6l6.6-24.5
			c1-3.7,4.9-6,8.6-5L328.4,208.5z"/>
		<path class="st26" d="M328.4,208.5c3.7,1,6,4.9,5,8.6l-6.6,24.5c-1,3.7-4.9,6-8.6,5l-5.5-1.5c-3.7-1-6-4.9-5-8.6l6.6-24.5
			c1-3.7,4.9-6,8.6-5L328.4,208.5z"/>
	</g>
	<g>
		<path class="st25" d="M345.4,222c3.7,1,6,4.9,5,8.6l-3.6,13.4c-1,3.7-4.9,6-8.6,5l-5.5-1.5c-3.7-1-6-4.9-5-8.6l3.6-13.4
			c1-3.7,4.9-6,8.6-5L345.4,222z"/>
		<path class="st26" d="M345.4,222c3.7,1,6,4.9,5,8.6l-3.6,13.4c-1,3.7-4.9,6-8.6,5l-5.5-1.5c-3.7-1-6-4.9-5-8.6l3.6-13.4
			c1-3.7,4.9-6,8.6-5L345.4,222z"/>
	</g>
	<g>
		<path class="st25" d="M307.6,207.8c3.7,1,6,4.9,5,8.6l-4.9,18.4c-1,3.7-4.9,6-8.6,5l-5.6-1.5c-3.7-1-6-4.9-5-8.6l4.9-18.4
			c1-3.7,4.9-6,8.6-5L307.6,207.8z"/>
		<path class="st26" d="M307.6,207.8c3.7,1,6,4.9,5,8.6l-4.9,18.4c-1,3.7-4.9,6-8.6,5l-5.6-1.5c-3.7-1-6-4.9-5-8.6l4.9-18.4
			c1-3.7,4.9-6,8.6-5L307.6,207.8z"/>
	</g>
	<g>
		<path class="st25" d="M287.4,206.4c3.7,1,6,4.9,5,8.6l-3,11.2c-1,3.7-4.9,6-8.6,5l-5.6-1.5c-3.7-1-6-4.9-5-8.6l3-11.2
			c1-3.7,4.9-6,8.6-5L287.4,206.4z"/>
		<path class="st26" d="M287.4,206.4c3.7,1,6,4.9,5,8.6l-3,11.2c-1,3.7-4.9,6-8.6,5l-5.6-1.5c-3.7-1-6-4.9-5-8.6l3-11.2
			c1-3.7,4.9-6,8.6-5L287.4,206.4z"/>
	</g>
	
		<rect x="152.9" y="105.2" transform="matrix(0.2588 -0.9659 0.9659 0.2588 -4.5924 306.3961)" class="st27" width="88.9" height="102"/>
	
		<rect x="416.6" y="68.3" transform="matrix(0.8342 -0.5514 0.5514 0.8342 17.1141 282.3951)" class="st3" width="123.3" height="88.9"/>
</g>
</svg>
