<?xml version="1.0" encoding="utf-8"?>
<!-- Generator: Adobe Illustrator 21.1.0, SVG Export Plug-In . SVG Version: 6.00 Build 0)  -->
<svg version="1.1" id="Layer_1" xmlns="http://www.w3.org/2000/svg" xmlns:xlink="http://www.w3.org/1999/xlink" x="0px" y="0px"
	 viewBox="0 0 616 374.2" style="enable-background:new 0 0 616 374.2;" xml:space="preserve">
<style type="text/css">
	.st0{fill:#19B2B8;}
	.st1{fill:#F2F2F2;}
	.st2{fill:#FFFFFF;}
	.st3{fill:#58595B;}
	.st4{fill:#F15D62;}
	.st5{fill:#474F59;}
	.st6{fill:#FF876C;}
	.st7{fill:#403F44;}
	.st8{fill:#323640;}
	.st9{fill:#393E49;}
	.st10{fill:#282C35;}
	.st11{fill:#3E434F;}
	.st12{fill:#C4C6C8;}
	.st13{fill:#2A2E37;}
	.st14{fill:#2B2F38;}
	.st15{fill:#00B5AC;}
	.st16{fill:#2D313B;}
	.st17{fill:#30343E;}
	.st18{fill:#F1F2F2;}
	.st19{fill:#2E323C;}
	.st20{opacity:0.1;fill:#FFFFFF;}
	.st21{fill:#2C303A;}
	.st22{fill:#F37167;}
	.st23{fill:#F26865;}
	.st24{fill:#5A626E;}
	.st25{fill:#1D82FA;}
	.st26{fill:#469CFA;}
	.st27{opacity:0.7;fill:#59A1FB;}
	.st28{opacity:0.8;fill:#F1F2F2;}
	.st29{fill:none;}
	.st30{opacity:0.8;fill:#FFFFFF;}
	.st31{fill:#1D80FA;}
	.st32{fill:#F37769;}
	.st33{fill:#E9E8E9;}
	.st34{fill:#F26F67;}
	.st35{fill:#E6E7E8;}
	.st36{opacity:0.2;fill:#589DBC;}
	.st37{fill:#FBFBFB;}
	.st38{fill:#F6F6F6;}
	.st39{fill:#EBEBEC;}
	.st40{fill:#1D79FA;}
	.st41{fill:#BCBEC0;}
	.st42{fill:#D3D4D5;}
	.st43{fill:#D1D3D4;}
	.st44{fill:#EAEBEC;}
	.st45{fill:#E3E4E4;}
	.st46{fill:#0C8B90;}
	.st47{fill:#27576D;}
	.st48{fill:#2B5D74;}
	.st49{fill:#2F647D;}
	.st50{fill:#353439;}
	.st51{fill:#3E3D42;}
	.st52{fill:#F3796A;}
	.st53{fill:#F37368;}
	.st54{fill:#D9DADB;}
	.st55{fill:#C2C4C5;}
	.st56{fill:#C3EBF3;}
	.st57{opacity:0.3;fill:#A7A9AC;}
	.st58{opacity:0.3;fill:#FF876C;}
	.st59{opacity:0.2;fill:#FF876C;}
	.st60{opacity:0.2;fill:#C85B55;}
	.st61{fill:#343943;}
	.st62{fill:#262A33;}
	.st63{fill:#1F232C;}
</style>
<g>
	<g>
		<path class="st8" d="M70.9,79.6c0,7.3,5.9,13.3,13.3,13.3H129c7.3,0,13.3-5.9,13.3-13.3v-8.1c0-7.3-5.9-13.3-13.3-13.3H84.2
			c-7.3,0-13.3,5.9-13.3,13.3V79.6z"/>
		<g>
			<path class="st2" d="M91.6,81v-4.4h-5.4V81h-2.1V70h2.1v4.6h5.4V70h2.1v11H91.6z"/>
			<path class="st2" d="M99.6,71.9h-3.5V70c3.2,0,5.8,0,9,0v1.9h-3.5V81h-2.1V71.9z"/>
			<path class="st2" d="M117.1,73l-3.6,4.8h-0.4l-3.5-4.8v8h-2.1V70h2.4l3.4,4.7l3.4-4.7h2.4v11h-2.1V73z"/>
			<path class="st2" d="M124.4,70v9.1h5.6V81h-7.7V70H124.4z"/>
		</g>
	</g>
	<g>
		<path class="st9" d="M95.7,218.3c0,7.3,5.9,13.3,13.3,13.3h44.9c7.3,0,13.3-5.9,13.3-13.3v-8.1c0-7.3-5.9-13.3-13.3-13.3h-44.9
			c-7.3,0-13.3,5.9-13.3,13.3V218.3z"/>
		<g>
			<path class="st6" d="M122.1,218.9c-1.3,1.3-3,1.9-4.9,1.9c-4.8,0-6.8-3.3-6.8-6.6c0-3.4,2.2-6.8,6.8-6.8c1.7,0,3.4,0.7,4.7,2
				l-1.6,1.6c-0.8-0.8-2-1.2-3.1-1.2c-3.1,0-4.4,2.3-4.4,4.5c0,2.1,1.2,4.4,4.4,4.4c1.1,0,2.4-0.5,3.2-1.3L122.1,218.9z"/>
			<path class="st6" d="M132.9,210.7c-0.4-0.7-1.7-1.4-3-1.4c-1.8,0-2.7,0.8-2.7,1.7c0,1.1,1.3,1.4,2.9,1.6c2.7,0.3,5.2,1,5.2,4.1
				c0,2.9-2.5,4.1-5.4,4.1c-2.6,0-4.6-0.8-5.6-3.2l2-1c0.6,1.4,2.1,2,3.6,2c1.5,0,3-0.5,3-1.9c0-1.2-1.3-1.7-3-1.9
				c-2.6-0.3-5-1-5-3.9c0-2.6,2.6-3.7,5-3.7c2,0,4.1,0.6,5,2.6L132.9,210.7z"/>
			<path class="st6" d="M146.5,210.7c-0.4-0.7-1.6-1.4-3-1.4c-1.8,0-2.7,0.8-2.7,1.7c0,1.1,1.3,1.4,2.9,1.6c2.7,0.3,5.2,1,5.2,4.1
				c0,2.9-2.5,4.1-5.4,4.1c-2.6,0-4.6-0.8-5.6-3.2l2-1c0.6,1.4,2.1,2,3.6,2c1.5,0,3-0.5,3-1.9c0-1.2-1.3-1.7-3-1.9
				c-2.6-0.3-5-1-5-3.9c0-2.6,2.6-3.7,5-3.7c2,0,4.1,0.6,5,2.6L146.5,210.7z"/>
		</g>
	</g>
	<g>
		<path class="st9" d="M189.7,79.6c0,7.3,5.9,13.3,13.3,13.3h44.9c7.3,0,13.3-5.9,13.3-13.3v-8.1c0-7.3-5.9-13.3-13.3-13.3H203
			c-7.3,0-13.3,5.9-13.3,13.3V79.6z"/>
		<g>
			<path class="st6" d="M220.3,81.5c-1.4,1.4-3.3,2.1-5.3,2.1c-5.2,0-7.4-3.6-7.4-7.2c0-3.6,2.4-7.4,7.4-7.4c1.9,0,3.7,0.7,5.1,2.1
				l-1.8,1.7c-0.9-0.9-2.2-1.3-3.4-1.3c-3.4,0-4.8,2.5-4.8,4.8c0,2.3,1.4,4.7,4.8,4.7c1.2,0,2.6-0.5,3.5-1.4L220.3,81.5z"/>
			<path class="st6" d="M224.9,75.2v-3h2.4v3h3v2.2h-3v3h-2.4v-3H222v-2.2H224.9z"/>
			<path class="st6" d="M235.8,75.2v-3h2.4v3h3v2.2h-3v3h-2.4v-3h-2.9v-2.2H235.8z"/>
		</g>
	</g>
	<g>
		<g>
			<g>
				<g>
					<g>
						<path class="st10" d="M423.4,276.4V139.8c0-9.2-7.4-16.6-16.6-16.6h-235c-9.2,0-16.6,7.4-16.6,16.6v136.6c0,0.2,0,29.1,0,29.3
							h268.1C423.4,305.5,423.4,276.6,423.4,276.4z"/>
					</g>
					<rect x="174.3" y="141.7" class="st11" width="228.8" height="147.6"/>
					<g>
						<path class="st2" d="M132.5,309.3c0,10.7,8.7,19.4,19.4,19.4h274.9c10.7,0,19.4-8.7,19.4-19.4v-3.6H132.5V309.3z"/>
					</g>
					<path class="st12" d="M309.1,317.9c0,1.2-1.1,2.1-2.5,2.1h-35.7c-1.4,0-2.5-0.9-2.5-2.1l0,0c0-1.1,1.1-2.1,2.5-2.1h35.7
						C308,315.8,309.1,316.8,309.1,317.9L309.1,317.9z"/>
				</g>
			</g>
		</g>
		<g>
			<path class="st9" d="M403.1,142.1v-0.4H174.3V270C206.7,206.2,294,157,403.1,142.1z"/>
		</g>
	</g>
	<g>
		<g>
			<g>
				<path class="st13" d="M535,58.6c0,0-15.1,1.3-15.1,10.6h29.2C549.1,69.1,549.8,58.6,535,58.6z"/>
				<path class="st8" d="M535,58.6c0,0-146.7,0-163.8,0c-17,0-16.3,10.6-16.3,10.6h164.9C519.9,59.8,535,58.6,535,58.6z"/>
			</g>
			<rect x="354.6" y="69.1" class="st8" width="164.9" height="236.1"/>
			<g>
				<path class="st13" d="M339.5,315.8c0,0,15.1-1.3,15.1-10.6h-29.2C325.4,305.2,324.7,315.8,339.5,315.8z"/>
				<path class="st8" d="M339.5,315.8c0,0,146.7,0,163.8,0c17,0,16.3-10.6,16.3-10.6H354.6C354.6,314.5,339.5,315.8,339.5,315.8z"/>
			</g>
		</g>
		<g>
			<g>
				<path class="st6" d="M465.1,272.5h-15.3c-0.8,0-1.5-0.6-1.5-1.2c0-0.7,0.7-1.2,1.5-1.2h15.3c0.8,0,1.5,0.6,1.5,1.2
					C466.6,272,465.9,272.5,465.1,272.5z"/>
			</g>
			<g>
				<path class="st14" d="M490.8,272.5h-17.2c-0.8,0-1.5-0.6-1.5-1.2c0-0.7,0.7-1.2,1.5-1.2h17.2c0.8,0,1.5,0.6,1.5,1.2
					C492.2,272,491.6,272.5,490.8,272.5z"/>
			</g>
			<g>
				<path class="st14" d="M508.4,282.7h-58.6c-0.8,0-1.5-0.6-1.5-1.2c0-0.7,0.7-1.2,1.5-1.2h58.6c0.8,0,1.5,0.6,1.5,1.2
					C509.9,282.2,509.2,282.7,508.4,282.7z"/>
			</g>
			<g>
				<path class="st15" d="M479.1,293.6h-29.3c-0.8,0-1.5-0.6-1.5-1.2c0-0.7,0.7-1.2,1.5-1.2h29.3c0.8,0,1.5,0.6,1.5,1.2
					C480.6,293,479.9,293.6,479.1,293.6z"/>
			</g>
			<g>
				<path class="st6" d="M496.8,293.6H488c-0.8,0-1.5-0.6-1.5-1.2c0-0.7,0.7-1.2,1.5-1.2h8.8c0.8,0,1.5,0.6,1.5,1.2
					C498.3,293,497.6,293.6,496.8,293.6z"/>
			</g>
			<g>
				<path class="st14" d="M415.7,292h15.3c0.8,0,1.5,0.6,1.5,1.2c0,0.7-0.7,1.2-1.5,1.2h-15.3c-0.8,0-1.5-0.6-1.5-1.2
					C414.2,292.6,414.9,292,415.7,292z"/>
			</g>
			<g>
				<path class="st6" d="M390,292h17.2c0.8,0,1.5,0.6,1.5,1.2c0,0.7-0.7,1.2-1.5,1.2H390c-0.8,0-1.5-0.6-1.5-1.2
					C388.6,292.6,389.2,292,390,292z"/>
			</g>
			<g>
				<path class="st15" d="M372.4,281.8h58.6c0.8,0,1.5,0.6,1.5,1.2c0,0.7-0.7,1.2-1.5,1.2h-58.6c-0.8,0-1.5-0.6-1.5-1.2
					C370.9,282.4,371.6,281.8,372.4,281.8z"/>
			</g>
			<g>
				<path class="st14" d="M401.7,271h29.3c0.8,0,1.5,0.6,1.5,1.2c0,0.7-0.7,1.2-1.5,1.2h-29.3c-0.8,0-1.5-0.6-1.5-1.2
					C400.2,271.5,400.9,271,401.7,271z"/>
			</g>
			<g>
				<path class="st14" d="M384,271h8.8c0.8,0,1.5,0.6,1.5,1.2c0,0.7-0.7,1.2-1.5,1.2H384c-0.8,0-1.5-0.6-1.5-1.2
					C382.5,271.5,383.2,271,384,271z"/>
			</g>
			<g>
				<path class="st6" d="M426.3,206.4h-48.3c-0.8,0-1.5-0.6-1.5-1.2c0-0.7,0.7-1.2,1.5-1.2h48.3c0.8,0,1.5,0.6,1.5,1.2
					C427.7,205.8,427.1,206.4,426.3,206.4z"/>
			</g>
			<g>
				<path class="st14" d="M497.6,206.4h-63.5c-0.8,0-1.5-0.6-1.5-1.2c0-0.7,0.7-1.2,1.5-1.2h63.5c0.8,0,1.5,0.6,1.5,1.2
					C499.1,205.8,498.4,206.4,497.6,206.4z"/>
			</g>
			<g>
				<path class="st14" d="M457.5,221h-91.8c-0.8,0-1.5-0.6-1.5-1.2c0-0.7,0.7-1.2,1.5-1.2h91.8c0.8,0,1.5,0.6,1.5,1.2
					C459,220.4,458.3,221,457.5,221z"/>
			</g>
			<g>
				<path class="st15" d="M508.4,221h-42.6c-0.8,0-1.5-0.6-1.5-1.2c0-0.7,0.7-1.2,1.5-1.2h42.6c0.8,0,1.5,0.6,1.5,1.2
					C509.9,220.4,509.2,221,508.4,221z"/>
			</g>
			<g>
				<path class="st14" d="M400.2,237.3h-34.5c-0.8,0-1.5-0.6-1.5-1.2c0-0.7,0.7-1.2,1.5-1.2h34.5c0.8,0,1.5,0.6,1.5,1.2
					C401.7,236.7,401,237.3,400.2,237.3z"/>
			</g>
			<g>
				<path class="st6" d="M474.8,237.3h-64.9c-0.8,0-1.5-0.6-1.5-1.2c0-0.7,0.7-1.2,1.5-1.2h64.9c0.8,0,1.5,0.6,1.5,1.2
					C476.2,236.7,475.6,237.3,474.8,237.3z"/>
			</g>
			<g>
				<path class="st14" d="M495.2,237.3h-12.4c-0.8,0-1.5-0.6-1.5-1.2c0-0.7,0.7-1.2,1.5-1.2h12.4c0.8,0,1.5,0.6,1.5,1.2
					C496.7,236.7,496,237.3,495.2,237.3z"/>
			</g>
			<g>
				<path class="st6" d="M426.3,86h-48.3c-0.8,0-1.5-0.6-1.5-1.2c0-0.7,0.7-1.2,1.5-1.2h48.3c0.8,0,1.5,0.6,1.5,1.2
					C427.7,85.4,427.1,86,426.3,86z"/>
			</g>
			<g>
				<path class="st14" d="M497.6,86h-63.5c-0.8,0-1.5-0.6-1.5-1.2c0-0.7,0.7-1.2,1.5-1.2h63.5c0.8,0,1.5,0.6,1.5,1.2
					C499.1,85.4,498.4,86,497.6,86z"/>
			</g>
			<g>
				<path class="st14" d="M457.5,100.5h-91.8c-0.8,0-1.5-0.6-1.5-1.2c0-0.7,0.7-1.2,1.5-1.2h91.8c0.8,0,1.5,0.6,1.5,1.2
					C459,100,458.3,100.5,457.5,100.5z"/>
			</g>
			<g>
				<path class="st15" d="M508.4,100.5h-42.6c-0.8,0-1.5-0.6-1.5-1.2c0-0.7,0.7-1.2,1.5-1.2h42.6c0.8,0,1.5,0.6,1.5,1.2
					C509.9,100,509.2,100.5,508.4,100.5z"/>
			</g>
			<g>
				<path class="st14" d="M400.2,116.8h-34.5c-0.8,0-1.5-0.6-1.5-1.2c0-0.7,0.7-1.2,1.5-1.2h34.5c0.8,0,1.5,0.6,1.5,1.2
					C401.7,116.3,401,116.8,400.2,116.8z"/>
			</g>
			<g>
				<path class="st6" d="M474.7,116.8h-64.9c-0.8,0-1.5-0.6-1.5-1.2c0-0.7,0.7-1.2,1.5-1.2h64.9c0.8,0,1.5,0.6,1.5,1.2
					C476.2,116.3,475.6,116.8,474.7,116.8z"/>
			</g>
			<g>
				<path class="st14" d="M495.2,116.8h-12.4c-0.8,0-1.5-0.6-1.5-1.2c0-0.7,0.7-1.2,1.5-1.2h12.4c0.8,0,1.5,0.6,1.5,1.2
					C496.7,116.3,496,116.8,495.2,116.8z"/>
			</g>
			<g>
				<path class="st15" d="M373.3,253.5h-7.6c-0.8,0-1.5-0.6-1.5-1.2s0.7-1.2,1.5-1.2h7.6c0.8,0,1.5,0.6,1.5,1.2
					S374.1,253.5,373.3,253.5z"/>
			</g>
			<g>
				<path class="st14" d="M459.1,253.5h-76.2c-0.8,0-1.5-0.6-1.5-1.2s0.7-1.2,1.5-1.2h76.2c0.8,0,1.5,0.6,1.5,1.2
					S459.9,253.5,459.1,253.5z"/>
			</g>
			<g>
				<path class="st6" d="M508.4,253.5h-40.1c-0.8,0-1.5-0.6-1.5-1.2s0.7-1.2,1.5-1.2h40.1c0.8,0,1.5,0.6,1.5,1.2
					S509.2,253.5,508.4,253.5z"/>
			</g>
			<g>
				<path class="st14" d="M476.1,185.2h20.1c0.8,0,1.5,0.6,1.5,1.2c0,0.7-0.7,1.2-1.5,1.2h-20.1c-0.8,0-1.5-0.6-1.5-1.2
					C474.6,185.8,475.3,185.2,476.1,185.2z"/>
			</g>
			<g>
				<path class="st15" d="M376.5,185.2h91c0.8,0,1.5,0.6,1.5,1.2c0,0.7-0.7,1.2-1.5,1.2h-91c-0.8,0-1.5-0.6-1.5-1.2
					C375,185.8,375.7,185.2,376.5,185.2z"/>
			</g>
			<g>
				<path class="st6" d="M381.9,155.2h-14.6c-0.8,0-1.5-0.6-1.5-1.2c0-0.7,0.7-1.2,1.5-1.2h14.6c0.8,0,1.5,0.6,1.5,1.2
					C383.4,154.6,382.7,155.2,381.9,155.2z"/>
			</g>
			<g>
				<path class="st14" d="M448.3,155.2h-58.7c-0.8,0-1.5-0.6-1.5-1.2c0-0.7,0.7-1.2,1.5-1.2h58.7c0.8,0,1.5,0.6,1.5,1.2
					C449.8,154.6,449.1,155.2,448.3,155.2z"/>
			</g>
			<g>
				<path class="st15" d="M508.4,155.2h-49.3c-0.8,0-1.5-0.6-1.5-1.2c0-0.7,0.7-1.2,1.5-1.2h49.3c0.8,0,1.5,0.6,1.5,1.2
					C509.9,154.6,509.2,155.2,508.4,155.2z"/>
			</g>
			<g>
				<path class="st14" d="M481.2,172.5H367.3c-0.8,0-1.5-0.6-1.5-1.2c0-0.7,0.7-1.2,1.5-1.2h113.9c0.8,0,1.5,0.6,1.5,1.2
					C482.6,171.9,482,172.5,481.2,172.5z"/>
			</g>
			<g>
				<path class="st6" d="M508.4,172.5H490c-0.8,0-1.5-0.6-1.5-1.2c0-0.7,0.7-1.2,1.5-1.2h18.4c0.8,0,1.5,0.6,1.5,1.2
					C509.9,171.9,509.2,172.5,508.4,172.5z"/>
			</g>
			<g>
				<path class="st6" d="M482.7,134.7h25.7c0.8,0,1.5,0.6,1.5,1.2c0,0.7-0.7,1.2-1.5,1.2h-25.7c-0.8,0-1.5-0.6-1.5-1.2
					C481.3,135.2,481.9,134.7,482.7,134.7z"/>
			</g>
			<g>
				<path class="st15" d="M367.3,134.7h106.6c0.8,0,1.5,0.6,1.5,1.2c0,0.7-0.7,1.2-1.5,1.2H367.3c-0.8,0-1.5-0.6-1.5-1.2
					C365.8,135.2,366.5,134.7,367.3,134.7z"/>
			</g>
		</g>
	</g>
	<g>
		<path class="st8" d="M30.4,157.2c0,7.3,5.9,13.3,13.3,13.3h44.9c7.3,0,13.3-5.9,13.3-13.3v-8.1c0-7.3-5.9-13.3-13.3-13.3H43.7
			c-7.3,0-13.3,5.9-13.3,13.3V157.2z"/>
		<g>
			<path class="st15" d="M52.3,154.7h-3.6v3.8h-2.4v-12.8c2,0,4,0,6,0C58.5,145.7,58.6,154.7,52.3,154.7z M48.7,152.5h3.6
				c3.1,0,3.1-4.5,0-4.5h-3.6V152.5z"/>
			<path class="st15" d="M68.7,158.5v-5.2h-6.3v5.2H60v-12.8h2.4v5.4h6.3v-5.4h2.4v12.8H68.7z"/>
			<path class="st15" d="M80.7,154.7h-3.6v3.8h-2.4v-12.8c2,0,4,0,6,0C87,145.7,87,154.7,80.7,154.7z M77.1,152.5h3.6
				c3.1,0,3.1-4.5,0-4.5h-3.6V152.5z"/>
		</g>
	</g>
	<g>
		<path class="st8" d="M125.5,138.7c0,7.3,5.9,13.3,13.3,13.3h44.9c7.3,0,13.3-5.9,13.3-13.3v-8.1c0-7.3-5.9-13.3-13.3-13.3h-44.9
			c-7.3,0-13.3,5.9-13.3,13.3V138.7z"/>
		<g>
			<path class="st2" d="M146.9,135.2c0,2.8-1.8,4.9-4.8,4.9c-2.8,0-4.8-1.7-4.8-4.8h2c0,1.9,0.9,2.8,2.8,2.8c1.9,0,2.8-1.3,2.8-3
				v-4.4h-3.3v-1.9c1.8,0,3.6,0,5.4,0V135.2z"/>
			<path class="st2" d="M157.8,137.8h-5.7l-0.9,2.1h-2.2l4.9-11h2.3l4.9,11h-2.3L157.8,137.8z M154.9,131.2l-2,4.7h4.1L154.9,131.2z
				"/>
			<path class="st2" d="M167.3,139.9h-2.1l-4.6-11h2.3l3.3,8.5l3.3-8.5h2.3L167.3,139.9z"/>
			<path class="st2" d="M182.1,137.8h-5.7l-0.9,2.1h-2.2l4.9-11h2.3l4.9,11H183L182.1,137.8z M179.2,131.2l-2,4.7h4.1L179.2,131.2z"
				/>
		</g>
	</g>
	<g>
		<rect x="538.6" y="99.5" class="st2" width="30.1" height="194.9"/>
		<g>
			<g>
				<rect x="538.6" y="284.3" class="st12" width="15.7" height="2.9"/>
			</g>
			<g>
				<rect x="538.6" y="249.9" class="st12" width="15.7" height="2.9"/>
			</g>
			<g>
				<rect x="538.6" y="232.2" class="st12" width="15.7" height="2.9"/>
			</g>
			<g>
				<rect x="538.6" y="214.3" class="st12" width="15.7" height="2.9"/>
			</g>
			<g>
				<rect x="538.6" y="196.9" class="st12" width="16.6" height="2.9"/>
			</g>
			<g>
				<rect x="538.6" y="180.4" class="st12" width="16.6" height="2.9"/>
			</g>
			<g>
				<rect x="538.6" y="162.2" class="st12" width="16.6" height="2.9"/>
			</g>
			<g>
				<rect x="538.6" y="267.1" class="st12" width="15.7" height="2.9"/>
			</g>
			<g>
				<rect x="538.6" y="275.6" class="st12" width="7.8" height="2.9"/>
			</g>
			<g>
				<rect x="538.6" y="258.3" class="st12" width="7.8" height="2.9"/>
			</g>
			<g>
				<rect x="538.6" y="241.4" class="st12" width="7.8" height="2.9"/>
			</g>
			<g>
				<rect x="538.6" y="223.5" class="st12" width="7.8" height="2.9"/>
			</g>
			<g>
				<rect x="538.6" y="206.3" class="st12" width="7.8" height="2.9"/>
			</g>
			<g>
				<rect x="538.6" y="188.9" class="st12" width="7.8" height="2.9"/>
			</g>
			<g>
				<rect x="538.6" y="170.9" class="st12" width="7.8" height="2.9"/>
			</g>
		</g>
		<g>
			<g>
				<rect x="538.6" y="149.8" class="st12" width="15.7" height="2.9"/>
			</g>
			<g>
				<rect x="538.6" y="115.3" class="st12" width="15.7" height="2.9"/>
			</g>
			<g>
				<rect x="538.6" y="132.6" class="st12" width="15.7" height="2.9"/>
			</g>
			<g>
				<rect x="538.6" y="141" class="st12" width="7.8" height="2.9"/>
			</g>
			<g>
				<rect x="538.6" y="123.8" class="st12" width="7.8" height="2.9"/>
			</g>
			<g>
				<rect x="538.6" y="106.9" class="st12" width="7.8" height="2.9"/>
			</g>
		</g>
		<rect x="565.8" y="99.5" class="st12" width="2.8" height="194.9"/>
	</g>
	<g>
		<g>
			<g>
				<rect x="577.7" y="142.5" class="st16" width="3.4" height="135.1"/>
				<rect x="581.1" y="142.5" class="st17" width="3.5" height="135.1"/>
				<rect x="584.7" y="142.5" class="st8" width="3.4" height="135.1"/>
			</g>
			<g>
				<path class="st16" d="M584.9,127.4l-2-9.7l-2,9.7C582.2,128.1,583.6,128.1,584.9,127.4z"/>
				<path class="st2" d="M580.9,127.4l-3.1,15.1h10.3l-3.1-15.1C583.6,128.1,582.2,128.1,580.9,127.4z"/>
			</g>
			<rect x="577.7" y="277.6" class="st2" width="10.3" height="3.7"/>
			<rect x="577.7" y="281.3" class="st8" width="10.3" height="13.7"/>
		</g>
		<rect x="577.7" y="281.3" class="st16" width="3.2" height="13.7"/>
		<rect x="577.7" y="277.6" class="st18" width="3.1" height="3.7"/>
	</g>
	<g>
		<g>
			<g>
				<path class="st14" d="M548.8,329.5l-3.2-6.8c4.8-2.2,17.1-10,17.1-18.9c0-3-1-3.8-1.4-4.1c-2.4-2-8.2-0.8-10.4-0.3
					c-1,0.2-1.6,0.3-2.2,0.3v-7.5c-0.1,0-0.1,0-0.2,0c0.2,0,0.6-0.1,1-0.2c3.7-0.8,11.5-2.3,16.7,1.9c2.7,2.2,4.1,5.6,4.1,9.9
					C570.2,319.3,549.6,329.1,548.8,329.5z"/>
			</g>
			<g>
				<g>
					<g>
						<path class="st8" d="M494.2,285c-0.1,0.6-0.2,1.1-0.2,1.7v48.7c0,4.3,3.5,7.8,7.8,7.8h41.6c4.3,0,7.8-3.5,7.8-7.8v-48.7
							c0-0.6-0.1-1.2-0.2-1.7H494.2z"/>
					</g>
					<g>
						<path class="st19" d="M494.2,285c-0.1,0.6-0.2,1.1-0.2,1.7v48.7c0,4.3,3.5,7.8,7.8,7.8h1.9V285H494.2z"/>
					</g>
				</g>
				<path class="st10" d="M555.1,284.1c0,2.2-1.7,3.9-3.9,3.9H494c-2.2,0-3.9-1.7-3.9-3.9l0,0c0-2.2,1.7-3.9,3.9-3.9h57.2
					C553.3,280.2,555.1,282,555.1,284.1L555.1,284.1z"/>
				<rect x="494" y="288" class="st10" width="57.2" height="3"/>
			</g>
		</g>
		<path class="st20" d="M576.7,203.6h-73.1c-3.4,0-6.2,3.6-6.2,8.1c0,1.2,0.2,2.4,0.6,3.4h-11.3c-3.7,0-6.7,4-6.7,8.9
			c0,4.9,3,8.9,6.7,8.9h33.8c0,0.1,0,0.2,0,0.3c0,1.7,0.5,3.2,1.2,4.4h-12.7c-3,0-5.4,3.2-5.4,7c0,3.9,2.4,7,5.4,7h6.9
			c-0.3,0.7-0.5,1.5-0.5,2.4c0,1.2,0.4,2.3,0.9,3.2h-6.1c-2.2,0-4.1,2.4-4.1,5.3c0,2.2,1,4,2.4,4.9c-0.6,0.8-1,2.2-1,3.8
			c0,2.6,1.1,4.7,2.4,4.7h8.1c1.3,0,2.4-2.1,2.4-4.7c0-1.3-0.3-2.5-0.7-3.3h11c2.2,0,4.1-2.4,4.1-5.3c0-1.4-0.4-2.7-1.1-3.6
			c2-0.1,3.6-2.2,3.6-4.9c0-0.9-0.2-1.7-0.5-2.4h6.9c3,0,5.4-3.1,5.4-7c0-1.8-0.5-3.4-1.3-4.6h7.9c2.9,0,5.2-3.1,5.2-6.9
			c0-3.8-2.3-6.8-5.2-6.8h-9.6c0.2-0.7,0.2-1.5,0.2-2.3c0-1.5-0.3-2.9-0.8-4.1h31.1c3.4,0,6.2-3.6,6.2-8.1
			C582.9,207.3,580.1,203.6,576.7,203.6z"/>
	</g>
	<g>
		<g>
			<rect x="25.8" y="283" class="st8" width="203.2" height="66.4"/>
			<g>
				<path class="st21" d="M228.9,279.7c0-1.9-1.6-3.5-3.5-3.5H29.3c-1.9,0-3.5,1.6-3.5,3.5v3.3h203.2V279.7z"/>
			</g>
			<rect x="25.8" y="349.4" class="st10" width="203.2" height="3.1"/>
			<g>
				<path class="st21" d="M52.2,311.3C52.2,311.3,52.2,311.3,52.2,311.3l-2.2,0v8.8h2.2h10.6h2.2v-8.8h-2.2c0,0,0,0,0,0H52.2z"/>
				<polygon class="st21" points="47.7,296.6 49.9,296.6 49.9,294.4 49.9,292.3 49.9,290.1 47.7,290.1 35.3,290.1 33.1,290.1 
					33.1,292.3 33.1,294.4 33.1,296.6 35.3,296.6 				"/>
				<polygon class="st21" points="68,296.6 70.2,296.6 70.2,294.4 70.2,292.3 70.2,290.1 68,290.1 55.6,290.1 53.4,290.1 
					53.4,292.3 53.4,294.4 53.4,296.6 55.6,296.6 				"/>
				<polygon class="st21" points="88.9,296.6 91.1,296.6 91.1,294.4 91.1,292.3 91.1,289.2 74.3,289.2 74.3,292.3 74.3,294.4 
					74.3,296.6 76.5,296.6 				"/>
				<polygon class="st21" points="109.2,296.6 111.4,296.6 111.4,294.4 111.4,292.3 111.4,289.2 94.6,289.2 94.6,292.3 94.6,294.4 
					94.6,296.6 96.8,296.6 				"/>
				<polygon class="st21" points="130.1,296.6 132.3,296.6 132.3,294.4 132.3,292.3 132.3,289.2 115.5,289.2 115.5,292.3 
					115.5,294.4 115.5,296.6 117.7,296.6 				"/>
				<polygon class="st21" points="150.4,296.6 152.6,296.6 152.6,294.4 152.6,292.3 152.6,289.2 135.7,289.2 135.7,292.3 
					135.7,294.4 135.7,296.6 138,296.6 				"/>
				<polygon class="st21" points="171.3,296.6 173.5,296.6 173.5,294.4 173.5,292.3 173.5,289.2 156.7,289.2 156.7,292.3 
					156.7,294.4 156.7,296.6 158.9,296.6 				"/>
				<polygon class="st21" points="191.6,296.6 193.8,296.6 193.8,289.2 176.9,289.2 176.9,296.6 179.2,296.6 				"/>
				<polygon class="st21" points="205.9,296.6 208.1,296.6 208.1,294.4 208.1,292.3 208.1,289.2 197.7,289.2 197.7,292.3 
					197.7,294.4 197.7,296.6 200,296.6 				"/>
				<polygon class="st21" points="211.2,289.2 211.2,292.3 211.2,294.4 211.2,296.6 213.5,296.6 219.4,296.6 221.6,296.6 
					221.6,294.4 221.6,292.3 221.6,289.2 				"/>
				<polygon class="st21" points="201.3,308.7 201.3,306.5 201.3,302.1 201.3,299.9 199.1,299.9 188.5,299.9 186.2,299.9 
					186.2,302.1 186.2,306.5 186.2,308.7 188.5,308.7 199.1,308.7 				"/>
				<polygon class="st21" points="181.8,308.7 181.8,299.9 179.5,299.9 168.9,299.9 166.6,299.9 166.6,302.1 166.6,306.5 
					166.6,308.7 168.9,308.7 179.5,308.7 				"/>
				<polygon class="st21" points="159.6,308.7 161.8,308.7 161.8,306.5 161.8,302.1 161.8,299.9 159.6,299.9 149,299.9 146.7,299.9 
					146.7,302.1 146.7,306.5 146.7,308.7 149,308.7 				"/>
				<path class="st21" d="M138.9,308.7h2.2v-2.2c0,0,0,0,0,0v-4.3c0,0,0,0,0,0v-2.2h-2.2h-10.6H126v2.2v4.3v2.2h2.2H138.9z"/>
				<polygon class="st21" points="119,308.7 121.2,308.7 121.2,299.9 119,299.9 108.3,299.9 106.1,299.9 106.1,302.1 106.1,306.5 
					106.1,308.7 108.3,308.7 				"/>
				<polygon class="st21" points="98.6,308.7 100.8,308.7 100.8,306.5 100.8,302.1 100.8,299.9 98.6,299.9 87.9,299.9 85.7,299.9 
					85.7,308.7 87.9,308.7 				"/>
				<path class="st21" d="M68,308.7h10.6h2.2v-2.2v-4.3v-2.2h-2.2H68h-2.2v2.2c0,0,0,0,0,0v4.3c0,0,0,0,0,0v2.2H68z"/>
				<polygon class="st21" points="67.2,331.7 67.2,322.9 65,322.9 54.3,322.9 52.1,322.9 52.1,331.7 54.3,331.7 65,331.7 				"/>
				<path class="st21" d="M74.3,331.7h10.6h2.4v-8.8h-2.4H74.3h-2.1v1.6c-0.1,0.2-0.1,0.4-0.1,0.7v4.3c0,0.2,0.1,0.4,0.1,0.7v1.6
					H74.3z"/>
				<path class="st21" d="M82.7,320.1H85v-8.8h-2.2c0,0,0,0,0,0H72.1c0,0,0,0,0,0h-2.2v8.8h2.2H82.7z"/>
				<path class="st21" d="M103.2,320.1h2.2v-8.8h-2.2c0,0,0,0,0,0H92.5c0,0,0,0,0,0h-2.2v8.8h2.2H103.2z"/>
				<polygon class="st21" points="105.3,331.7 107.6,331.7 107.6,329.5 107.6,325.2 107.6,322.9 105.3,322.9 94.7,322.9 92.4,322.9 
					92.4,325.2 92.4,329.5 92.4,331.7 94.7,331.7 				"/>
				<path class="st21" d="M123.1,320.1h2.2v-2.2v-4.3v-2.2h-2.2c0,0,0,0,0,0h-10.6c0,0,0,0,0,0h-2.2v2.2v4.3v2.2h2.2H123.1z"/>
				<path class="st21" d="M125.2,331.7h2.2v-2.2c0,0,0,0,0,0v-4.3c0,0,0,0,0,0v-2.2h-2.2h-10.6h-2.2v2.2v4.3v2.2h2.2H125.2z"/>
				<path class="st21" d="M143.8,320.1h2.2v-8.8h-2.2c0,0,0,0,0,0h-10.6c0,0,0,0,0,0h-2.2v8.8h2.2H143.8z"/>
				<polygon class="st21" points="145.9,331.7 148.2,331.7 148.2,329.5 148.2,325.2 148.2,322.9 145.9,322.9 135.3,322.9 133,322.9 
					133,325.2 133,329.5 133,331.7 135.3,331.7 				"/>
				<path class="st21" d="M163.7,320.1h2.2v-8.8h-2.2c0,0,0,0,0,0h-10.6c0,0,0,0,0,0h-2.2v2.2v4.3v2.2h2.2H163.7z"/>
				<path class="st21" d="M168.1,322.9h-2.2h-10.6H153v2.2v4.3v2.2h2.2h10.6h2.2v-2.2c0,0,0,0,0,0v-4.3c0,0,0,0,0,0V322.9z"/>
				<path class="st21" d="M183.3,320.1h2.2v-8.8h-2.2c0,0,0,0,0,0h-10.6c0,0,0,0,0,0h-2.2v2.2v4.3v2.2h2.2H183.3z"/>
				<polygon class="st21" points="174.8,322.9 172.5,322.9 172.5,331.7 174.8,331.7 185.4,331.7 187.7,331.7 187.7,322.9 
					185.4,322.9 				"/>
				<polygon class="st21" points="175.2,334.5 173,334.5 173,336.7 173,340.9 173,343.1 175.2,343.1 183.2,343.1 185.5,343.1 
					185.5,340.9 185.5,336.7 185.5,334.5 183.2,334.5 				"/>
				<polygon class="st21" points="192.6,334.5 190.4,334.5 190.4,336.7 190.4,340.9 190.4,343.1 192.6,343.1 200.6,343.1 
					202.9,343.1 202.9,340.9 202.9,336.7 202.9,334.5 200.6,334.5 				"/>
				<polygon class="st21" points="211.4,334.5 209.1,334.5 209.1,336.7 209.1,340.9 209.1,343.1 211.4,343.1 219.4,343.1 
					221.6,343.1 221.6,340.9 221.6,336.7 221.6,334.5 219.4,334.5 				"/>
				<path class="st21" d="M208.4,303.3h-2.2v2.1c0,0.1,0,0.1,0,0.2v8.1H193v2.4v7.2v0.7v3.7v2.2h2.2h10.9h5h8.1h2.2v-2.2v-4.4v-1.1
					v-16.6v-2.2h-2.2H208.4z"/>
				<polygon class="st21" points="59.5,309.1 61.8,309.1 61.8,306.8 61.8,302.1 61.8,299.9 59.5,299.9 35.3,299.9 33.1,299.9 
					33.1,302.1 33.1,306.8 33.1,309.1 35.3,309.1 				"/>
				<polygon class="st21" points="42.6,320.1 44.9,320.1 44.9,317.9 44.9,317.9 44.9,314.5 44.9,314.5 44.9,312.2 42.6,312.2 
					35.3,312.2 33.1,312.2 33.1,314.5 33.1,317.9 33.1,320.1 35.3,320.1 				"/>
				<polygon class="st21" points="46.4,331.7 48.6,331.7 48.6,329.5 48.6,326.1 48.6,323.8 46.4,323.8 35.3,323.8 33.1,323.8 
					33.1,326.1 33.1,329.5 33.1,331.7 35.3,331.7 				"/>
				<polygon class="st21" points="52.1,334.5 49.8,334.5 35.3,334.5 33.1,334.5 33.1,336.7 33.1,340.9 33.1,343.1 35.3,343.1 
					49.8,343.1 52.1,343.1 52.1,340.9 52.1,340.9 52.1,336.7 52.1,336.7 				"/>
				<polygon class="st21" points="58.5,334.5 56.2,334.5 56.2,336.7 56.2,340.9 56.2,343.1 58.5,343.1 73,343.1 75.3,343.1 
					75.3,340.9 75.3,336.7 75.3,334.5 73,334.5 				"/>
				<polygon class="st21" points="82,334.5 79.7,334.5 79.7,336.7 79.7,340.9 79.7,343.1 82,343.1 165.7,343.1 167.9,343.1 
					167.9,340.9 167.9,336.7 167.9,334.5 165.7,334.5 				"/>
			</g>
		</g>
		<g>
			<path class="st21" d="M117.9,276.2h-3.4v-17.3c0-0.1-0.3-4.4,2.6-7.5c1.9-2,4.5-3,7.9-3h30.2v3.4H125c-2.4,0-4.2,0.7-5.4,1.9
				c-1.9,2-1.7,5-1.7,5.1L117.9,276.2z"/>
		</g>
	</g>
</g>
</svg>
