<?xml version="1.0" encoding="utf-8"?>
<!-- Generator: Adobe Illustrator 21.1.0, SVG Export Plug-In . SVG Version: 6.00 Build 0)  -->
<svg version="1.1" id="Layer_1" xmlns="http://www.w3.org/2000/svg" xmlns:xlink="http://www.w3.org/1999/xlink" x="0px" y="0px"
	 viewBox="0 0 616 374.2" style="enable-background:new 0 0 616 374.2;" xml:space="preserve">
<style type="text/css">
	.st0{fill:#19B2B8;}
	.st1{fill:#F2F2F2;}
	.st2{fill:#FFFFFF;}
	.st3{fill:#58595B;}
	.st4{fill:#F15D62;}
	.st5{fill:#474F59;}
	.st6{fill:#FF876C;}
	.st7{fill:#403F44;}
	.st8{fill:#323640;}
	.st9{fill:#393E49;}
	.st10{fill:#282C35;}
	.st11{fill:#3E434F;}
	.st12{fill:#C4C6C8;}
	.st13{fill:#2A2E37;}
	.st14{fill:#2B2F38;}
	.st15{fill:#00B5AC;}
	.st16{fill:#2D313B;}
	.st17{fill:#30343E;}
	.st18{fill:#F1F2F2;}
	.st19{fill:#2E323C;}
	.st20{opacity:0.1;fill:#FFFFFF;}
	.st21{fill:#2C303A;}
	.st22{fill:#F37167;}
	.st23{fill:#F26865;}
	.st24{fill:#5A626E;}
	.st25{fill:#1D82FA;}
	.st26{fill:#469CFA;}
	.st27{opacity:0.7;fill:#59A1FB;}
	.st28{opacity:0.8;fill:#F1F2F2;}
	.st29{fill:none;}
	.st30{opacity:0.8;fill:#FFFFFF;}
	.st31{fill:#1D80FA;}
	.st32{fill:#F37769;}
	.st33{fill:#E9E8E9;}
	.st34{fill:#F26F67;}
	.st35{fill:#E6E7E8;}
	.st36{opacity:0.2;fill:#589DBC;}
	.st37{fill:#FBFBFB;}
	.st38{fill:#F6F6F6;}
	.st39{fill:#EBEBEC;}
	.st40{fill:#1D79FA;}
	.st41{fill:#BCBEC0;}
	.st42{fill:#D3D4D5;}
	.st43{fill:#D1D3D4;}
	.st44{fill:#EAEBEC;}
	.st45{fill:#E3E4E4;}
	.st46{fill:#0C8B90;}
	.st47{fill:#27576D;}
	.st48{fill:#2B5D74;}
	.st49{fill:#2F647D;}
	.st50{fill:#353439;}
	.st51{fill:#3E3D42;}
	.st52{fill:#F3796A;}
	.st53{fill:#F37368;}
	.st54{fill:#D9DADB;}
	.st55{fill:#C2C4C5;}
	.st56{fill:#C3EBF3;}
	.st57{opacity:0.3;fill:#A7A9AC;}
	.st58{opacity:0.3;fill:#FF876C;}
	.st59{opacity:0.2;fill:#FF876C;}
	.st60{opacity:0.2;fill:#C85B55;}
	.st61{fill:#343943;}
	.st62{fill:#262A33;}
	.st63{fill:#1F232C;}
</style>
<g>
	<g>
		<g>
			<path class="st10" d="M437.1,63.5c0-5.3-3.8-9.6-8.4-9.6H163c-4.7,0-8.4,4.3-8.4,9.6v155.8h282.5V63.5z"/>
			<path class="st11" d="M418.5,78.1c0-4.4-3.3-8-7.3-8H180.5c-4,0-7.3,3.6-7.3,8v129h245.3V78.1z"/>
			<path class="st18" d="M154.6,219.2V272c0,5.3,3.8,9.7,8.4,9.7h265.6c4.7,0,8.4-4.3,8.4-9.7v-52.8H154.6z"/>
			<polygon class="st35" points="333.6,281.7 326.6,281.7 266.5,281.7 259.6,281.7 255.8,321.9 266.5,321.9 326.6,321.9 
				337.4,321.9 			"/>
			<polygon class="st45" points="334.1,286.4 259.1,286.4 259.6,281.7 333.6,281.7 			"/>
			<g>
				<path class="st43" d="M347.7,328.8c0.3-0.6,0.4-1.4,0.4-2.1c0-2.9-2.4-5.3-5.3-5.3h-93.9c-2.9,0-5.3,2.4-5.3,5.3
					c0,0.8,0.2,1.5,0.4,2.1H347.7z"/>
			</g>
			<ellipse class="st35" cx="296.6" cy="247.7" rx="11.3" ry="11.3"/>
		</g>
		<g>
			<path class="st9" d="M418.5,80.1v-2c0-4.4-3.3-8-7.3-8H180.5c-4,0-7.3,3.6-7.3,8v127.4C205.7,144.6,299.4,96.7,418.5,80.1z"/>
		</g>
	</g>
	<g>
		<path class="st46" d="M57.2,101.6c0,7.1,5.8,12.9,12.9,12.9h43.7c7.1,0,12.9-5.8,12.9-12.9v-7.9c0-7.1-5.8-12.9-12.9-12.9H70.2
			c-7.1,0-12.9,5.8-12.9,12.9V101.6z"/>
		<g>
			<path class="st2" d="M77.4,102.9v-4.3h-5.3v4.3h-2V92.2h2v4.5h5.3v-4.5h2v10.7H77.4z"/>
			<path class="st2" d="M85.2,94h-3.4v-1.8c3.1,0,5.7,0,8.8,0V94h-3.4v8.9h-2V94z"/>
			<path class="st2" d="M102.3,95.1l-3.5,4.6h-0.4L95,95.1v7.8h-2V92.2h2.3l3.3,4.6l3.3-4.6h2.3v10.7h-2V95.1z"/>
			<path class="st2" d="M109.4,92.2v8.8h5.5v1.9h-7.5V92.2H109.4z"/>
		</g>
	</g>
	<g>
		<path class="st46" d="M489.6,154c0,7.1,5.8,12.9,12.9,12.9h43.7c7.1,0,12.9-5.8,12.9-12.9v-7.9c0-7.1-5.8-12.9-12.9-12.9h-43.7
			c-7.1,0-12.9,5.8-12.9,12.9V154z"/>
		<g>
			<path class="st2" d="M515.3,154.5c-1.3,1.3-3,1.9-4.8,1.9c-4.6,0-6.6-3.2-6.6-6.5c0-3.3,2.1-6.6,6.6-6.6c1.7,0,3.3,0.6,4.6,1.9
				l-1.6,1.5c-0.8-0.8-1.9-1.2-3-1.2c-3,0-4.3,2.3-4.3,4.3c0,2.1,1.2,4.2,4.3,4.2c1.1,0,2.3-0.4,3.1-1.3L515.3,154.5z"/>
			<path class="st2" d="M525.9,146.6c-0.4-0.7-1.6-1.4-3-1.4c-1.8,0-2.6,0.7-2.6,1.7c0,1.1,1.3,1.4,2.8,1.6c2.6,0.3,5,1,5,4
				c0,2.8-2.5,4-5.3,4c-2.6,0-4.5-0.8-5.5-3.1l2-1c0.6,1.4,2,2,3.5,2c1.5,0,2.9-0.5,2.9-1.9c0-1.2-1.2-1.7-2.9-1.8
				c-2.6-0.3-4.9-1-4.9-3.8c0-2.6,2.5-3.6,4.8-3.6c1.9,0,4,0.6,4.9,2.5L525.9,146.6z"/>
			<path class="st2" d="M539,146.6c-0.4-0.7-1.6-1.4-3-1.4c-1.8,0-2.6,0.7-2.6,1.7c0,1.1,1.3,1.4,2.8,1.6c2.6,0.3,5,1,5,4
				c0,2.8-2.5,4-5.3,4c-2.6,0-4.5-0.8-5.5-3.1l2-1c0.6,1.4,2,2,3.5,2c1.5,0,2.9-0.5,2.9-1.9c0-1.2-1.2-1.7-2.9-1.8
				c-2.6-0.3-4.9-1-4.9-3.8c0-2.6,2.5-3.6,4.8-3.6c1.9,0,4,0.6,4.9,2.5L539,146.6z"/>
		</g>
	</g>
	<g>
		<path class="st46" d="M453.9,57.8c0,7.1,5.8,12.9,12.9,12.9h43.7c7.1,0,12.9-5.8,12.9-12.9v-7.9c0-7.1-5.8-12.9-12.9-12.9h-43.7
			c-7.1,0-12.9,5.8-12.9,12.9V57.8z"/>
		<g>
			<path class="st2" d="M474.7,54.3c0,2.8-1.8,4.8-4.7,4.8c-2.7,0-4.7-1.6-4.7-4.7h2c0,1.8,0.9,2.8,2.7,2.8c1.8,0,2.7-1.3,2.7-2.9
				V50h-3.2v-1.9c1.7,0,3.5,0,5.2,0V54.3z"/>
			<path class="st2" d="M485.4,56.8h-5.6l-0.9,2h-2.2l4.8-10.7h2.2l4.8,10.7h-2.2L485.4,56.8z M482.6,50.4l-2,4.6h4L482.6,50.4z"/>
			<path class="st2" d="M494.6,58.9h-2.1L488,48.1h2.3l3.2,8.3l3.2-8.3h2.3L494.6,58.9z"/>
			<path class="st2" d="M509,56.8h-5.6l-0.9,2h-2.2l4.8-10.7h2.2l4.8,10.7h-2.2L509,56.8z M506.2,50.4l-2,4.6h4L506.2,50.4z"/>
		</g>
	</g>
	<g>
		<g>
			<g>
				<g>
					<g>
						<polygon class="st47" points="516.3,244 530.1,320.9 527.9,321.2 514.1,244.3 						"/>
						<polygon class="st48" points="514.1,244.3 527.9,321.2 525.6,321.6 511.8,244.7 						"/>
						<polygon class="st49" points="509.6,245 511.8,244.7 525.6,321.6 523.4,321.9 						"/>
					</g>
					<g>
						<path class="st7" d="M510.1,236.1l0.3-5.7l2.3,5.3C511.9,236.2,511,236.3,510.1,236.1z"/>
						<path class="st2" d="M512.7,235.7l3.6,8.3l-6.7,0.9l0.5-8.9C511,236.3,511.9,236.2,512.7,235.7z"/>
					</g>
					<polygon class="st2" points="523.8,324 530.5,323 530.1,320.9 523.4,321.9 					"/>
					<polygon class="st50" points="525.2,331.8 531.9,330.8 530.5,323 523.8,324 					"/>
				</g>
				<polygon class="st51" points="531.9,330.8 530.5,323 528.4,323.3 529.8,331.1 				"/>
				<polygon class="st37" points="530.1,320.9 530.5,323 528.4,323.3 528,321.2 				"/>
			</g>
			<g>
				<g>
					<g>
						<polygon class="st35" points="529.4,243.9 522.7,321.5 520.5,321.4 527.2,243.7 						"/>
						<polygon class="st43" points="527.2,243.7 520.5,321.4 518.2,321.2 524.9,243.6 						"/>
						<polygon class="st41" points="522.7,243.4 524.9,243.6 518.2,321.2 516,321.1 						"/>
					</g>
					<g>
						<path class="st7" d="M525.5,234.9l1.8-5.5l0.8,5.7C527.2,235.4,526.3,235.3,525.5,234.9z"/>
						<path class="st2" d="M528.1,235.1l1.3,8.8l-6.8-0.5l2.8-8.6C526.3,235.3,527.2,235.4,528.1,235.1z"/>
					</g>
					<polygon class="st2" points="515.8,323.2 522.6,323.6 522.7,321.5 516,321.1 					"/>
					<polygon class="st50" points="515.1,331.1 521.9,331.5 522.6,323.6 515.8,323.2 					"/>
				</g>
				<polygon class="st51" points="521.9,331.5 522.6,323.6 520.5,323.5 519.8,331.4 				"/>
				<polygon class="st37" points="522.7,321.5 522.6,323.6 520.5,323.5 520.7,321.4 				"/>
			</g>
			<g>
				<g>
					<g>
						<polygon class="st6" points="506.6,242.6 522.3,319.2 520.1,319.6 504.4,242.9 						"/>
						<polygon class="st52" points="504.4,242.9 520.1,319.6 517.8,319.9 502.1,243.3 						"/>
						<polygon class="st53" points="499.9,243.7 502.1,243.3 517.8,319.9 515.6,320.3 						"/>
					</g>
					<g>
						<path class="st7" d="M500.2,234.8l0.2-5.7l2.4,5.3C502,234.9,501.1,235,500.2,234.8z"/>
						<path class="st2" d="M502.8,234.3l3.8,8.3l-6.7,1.1l0.3-8.9C501.1,235,502,234.9,502.8,234.3z"/>
					</g>
					<polygon class="st2" points="516.1,322.4 522.8,321.3 522.3,319.2 515.6,320.3 					"/>
					<polygon class="st50" points="517.7,330.2 524.3,329.1 522.8,321.3 516.1,322.4 					"/>
				</g>
				<polygon class="st51" points="524.3,329.1 522.8,321.3 520.7,321.6 522.3,329.4 				"/>
				<polygon class="st37" points="522.3,319.2 522.8,321.3 520.7,321.6 520.3,319.5 				"/>
			</g>
		</g>
		<g>
			<rect x="488.7" y="282" class="st18" width="57.5" height="7.5"/>
			<rect x="493.8" y="289.5" class="st45" width="47.4" height="46.8"/>
			<rect x="493.8" y="289.5" class="st54" width="47.4" height="2.2"/>
		</g>
	</g>
	<g>
		<g>
			<g>
				<g>
					<g>
						<rect x="198.2" y="44.7" class="st2" width="192.4" height="162.4"/>
						<path class="st43" d="M390.6,31.1c0-5.3-4.3-9.7-9.7-9.7H207.9c-5.3,0-9.7,4.3-9.7,9.7v0.4h192.4V31.1z"/>
						<rect x="198.2" y="31.5" class="st35" width="192.4" height="13.2"/>
					</g>
					<path class="st2" d="M220.1,40.4c0,0.5,0.5,0.9,1.1,0.9h146.2c0.6,0,1.1-0.4,1.1-0.9v-4.6c0-0.5-0.5-0.9-1.1-0.9H221.2
						c-0.6,0-1.1,0.4-1.1,0.9V40.4z"/>
					<circle class="st55" cx="205.4" cy="26.5" r="1.4"/>
					<circle class="st55" cx="209.3" cy="26.5" r="1.4"/>
					<circle class="st55" cx="213.3" cy="26.5" r="1.4"/>
					<path class="st43" d="M202.5,39.2c0,0.8,0.6,1.4,1.4,1.4h2.8c0.8,0,1.4-0.6,1.4-1.4V37c0-0.8-0.6-1.4-1.4-1.4h-2.8
						c-0.8,0-1.4,0.6-1.4,1.4V39.2z"/>
					<path class="st43" d="M211,39.1c0,0.8,0.6,1.4,1.4,1.4h2.8c0.8,0,1.4-0.6,1.4-1.4v-2.2c0-0.8-0.6-1.4-1.4-1.4h-2.8
						c-0.8,0-1.4,0.6-1.4,1.4V39.1z"/>
					<path class="st43" d="M372.3,39.2c0,0.8,0.6,1.4,1.4,1.4h2.8c0.8,0,1.4-0.6,1.4-1.4V37c0-0.8-0.6-1.4-1.4-1.4h-2.8
						c-0.8,0-1.4,0.6-1.4,1.4V39.2z"/>
					<path class="st43" d="M380.4,39.2c0,0.8,0.6,1.4,1.4,1.4h2.8c0.8,0,1.4-0.6,1.4-1.4V37c0-0.8-0.6-1.4-1.4-1.4h-2.8
						c-0.8,0-1.4,0.6-1.4,1.4V39.2z"/>
				</g>
			</g>
		</g>
		<rect x="205.3" y="50.8" class="st56" width="122.7" height="40.9"/>
		<rect x="331.7" y="50.8" class="st57" width="51.5" height="40.9"/>
		<rect x="198.2" y="96.2" class="st58" width="192.4" height="34.3"/>
		<rect x="206.8" y="136.5" class="st56" width="55.1" height="36.5"/>
		<rect x="267.2" y="136.5" class="st56" width="55.1" height="36.5"/>
		<rect x="328.1" y="136.5" class="st56" width="55.1" height="36.5"/>
		<g>
			<rect x="206.8" y="178.4" class="st57" width="41.4" height="6.1"/>
			<rect x="206.8" y="187.4" class="st18" width="48.7" height="3.1"/>
			<rect x="206.8" y="194.2" class="st18" width="29.9" height="3.2"/>
			<rect x="239.1" y="194.2" class="st18" width="13.4" height="3.2"/>
		</g>
		<g>
			<rect x="207.1" y="108.1" class="st59" width="29.5" height="3.4"/>
			<rect x="207.1" y="113.1" class="st60" width="34.7" height="1.7"/>
			<rect x="207.1" y="116.9" class="st60" width="21.3" height="1.8"/>
			<rect x="230.1" y="116.9" class="st60" width="9.5" height="1.8"/>
		</g>
		<g>
			<rect x="267.2" y="177.9" class="st57" width="41.4" height="6.1"/>
			<rect x="267.2" y="186.9" class="st18" width="48.7" height="3.1"/>
			<rect x="267.2" y="193.7" class="st18" width="29.9" height="3.2"/>
			<rect x="299.5" y="193.7" class="st18" width="13.4" height="3.2"/>
		</g>
		<g>
			<rect x="328.1" y="177.9" class="st57" width="41.4" height="6.1"/>
			<rect x="328.1" y="186.9" class="st18" width="48.7" height="3.1"/>
			<rect x="328.1" y="193.7" class="st18" width="29.9" height="3.2"/>
			<rect x="360.5" y="193.7" class="st18" width="13.4" height="3.2"/>
		</g>
		<rect x="374.9" y="110" class="st59" width="8.2" height="7.2"/>
	</g>
	<g>
		<g>
			<g>
				<g>
					<g>
						<path class="st61" d="M494.6,187.9c0-2.2-1.8-3.9-3.9-3.9h-82c-2.2,0-3.9,1.8-3.9,3.9v21.4h89.8V187.9z"/>
						<path class="st61" d="M404.8,333.5c0,2.2,1.8,3.9,3.9,3.9h82c2.2,0,3.9-1.8,3.9-3.9v-27.9h-89.8V333.5z"/>
						<rect x="404.8" y="209.3" class="st2" width="89.8" height="96.4"/>
					</g>
					<path class="st62" d="M457.1,322.2c0,3.6-2.9,6.5-6.5,6.5c-3.6,0-6.5-2.9-6.5-6.5c0-3.6,2.9-6.5,6.5-6.5
						C454.2,315.7,457.1,318.6,457.1,322.2z"/>
					<path class="st62" d="M467.6,195.5c0,1.3-1.1,2.4-2.4,2.4h-31.8c-1.3,0-2.4-1.1-2.4-2.4l0,0c0-1.3,1.1-2.4,2.4-2.4h31.8
						C466.5,193.1,467.6,194.2,467.6,195.5L467.6,195.5z"/>
				</g>
			</g>
		</g>
		<rect x="408.8" y="212.7" class="st56" width="81.1" height="27.7"/>
		<rect x="404.8" y="243.9" class="st58" width="89.8" height="33.6"/>
		<rect x="408.8" y="280.6" class="st57" width="38.2" height="21.4"/>
		<rect x="451.8" y="280.6" class="st57" width="38.2" height="21.4"/>
		<g>
			<rect x="409.9" y="255.5" class="st59" width="23.3" height="2.7"/>
			<rect x="409.9" y="259.4" class="st60" width="27.4" height="1.4"/>
			<rect x="409.9" y="262.4" class="st60" width="16.9" height="1.4"/>
			<rect x="428.2" y="262.4" class="st60" width="7.5" height="1.4"/>
		</g>
		<rect x="481.8" y="257.2" class="st59" width="8.2" height="7.2"/>
	</g>
	<g>
		<g>
			<g>
				<path class="st61" d="M50.3,321.8c0,4.6,3.7,8.3,8.3,8.3H171c4.6,0,8.3-3.7,8.3-8.3v-21.2h-129V321.8z"/>
				<rect x="50.3" y="165.6" class="st2" width="129" height="135"/>
				<path class="st61" d="M179.3,151.9c0-4.6-3.7-8.3-8.3-8.3H58.6c-4.6,0-8.3,3.7-8.3,8.3v13.6h129V151.9z"/>
			</g>
			<g>
				<path class="st62" d="M125.4,156.3h-21.2c-0.9,0-1.7-0.8-1.7-1.7c0-0.9,0.8-1.7,1.7-1.7h21.2c0.9,0,1.7,0.8,1.7,1.7
					C127.1,155.6,126.3,156.3,125.4,156.3z"/>
			</g>
			<circle class="st62" cx="114.8" cy="314" r="5.8"/>
		</g>
		<rect x="56.2" y="169.5" class="st56" width="116.8" height="39.8"/>
		<rect x="50.3" y="214.5" class="st58" width="129" height="48.3"/>
		<rect x="56.2" y="267.3" class="st57" width="55" height="30.8"/>
		<rect x="118" y="267.3" class="st57" width="55" height="30.8"/>
		<g>
			<rect x="57.8" y="231.1" class="st59" width="33.5" height="3.9"/>
			<rect x="57.8" y="236.8" class="st60" width="39.5" height="2"/>
			<rect x="57.8" y="241.1" class="st60" width="24.3" height="2"/>
			<rect x="84" y="241.1" class="st60" width="10.9" height="2"/>
		</g>
		<rect x="161.2" y="233.6" class="st59" width="11.8" height="10.3"/>
	</g>
	<g>
		<rect x="179.3" y="207.1" class="st63" width="4.1" height="12.1"/>
		<rect x="179.3" y="219.2" class="st45" width="4.1" height="62.5"/>
	</g>
	<g>
		<rect x="400.7" y="207" class="st63" width="4.1" height="12.1"/>
		<rect x="400.7" y="219.2" class="st45" width="4.1" height="62.5"/>
	</g>
</g>
</svg>
