<?xml version="1.0" encoding="utf-8"?>
<!-- Generator: Adobe Illustrator 21.1.0, SVG Export Plug-In . SVG Version: 6.00 Build 0)  -->
<svg version="1.1" id="Layer_1" xmlns="http://www.w3.org/2000/svg" xmlns:xlink="http://www.w3.org/1999/xlink" x="0px" y="0px"
	 viewBox="0 0 616 374.2" style="enable-background:new 0 0 616 374.2;" xml:space="preserve">
<style type="text/css">
	.st0{fill:#19B2B8;}
	.st1{fill:#F2F2F2;}
	.st2{fill:#FFFFFF;}
	.st3{fill:#58595B;}
	.st4{fill:#F15D62;}
	.st5{fill:#474F59;}
	.st6{fill:#FF876C;}
	.st7{fill:#403F44;}
	.st8{fill:#323640;}
	.st9{fill:#393E49;}
	.st10{fill:#282C35;}
	.st11{fill:#3E434F;}
	.st12{fill:#C4C6C8;}
	.st13{fill:#2A2E37;}
	.st14{fill:#2B2F38;}
	.st15{fill:#00B5AC;}
	.st16{fill:#2D313B;}
	.st17{fill:#30343E;}
	.st18{fill:#F1F2F2;}
	.st19{fill:#2E323C;}
	.st20{opacity:0.1;fill:#FFFFFF;}
	.st21{fill:#2C303A;}
	.st22{fill:#F37167;}
	.st23{fill:#F26865;}
	.st24{fill:#5A626E;}
	.st25{fill:#1D82FA;}
	.st26{fill:#469CFA;}
	.st27{opacity:0.7;fill:#59A1FB;}
	.st28{opacity:0.8;fill:#F1F2F2;}
	.st29{fill:none;}
	.st30{opacity:0.8;fill:#FFFFFF;}
	.st31{fill:#1D80FA;}
	.st32{fill:#F37769;}
	.st33{fill:#E9E8E9;}
	.st34{fill:#F26F67;}
	.st35{fill:#E6E7E8;}
	.st36{opacity:0.2;fill:#589DBC;}
	.st37{fill:#FBFBFB;}
	.st38{fill:#F6F6F6;}
	.st39{fill:#EBEBEC;}
	.st40{fill:#1D79FA;}
	.st41{fill:#BCBEC0;}
	.st42{fill:#D3D4D5;}
	.st43{fill:#D1D3D4;}
	.st44{fill:#EAEBEC;}
	.st45{fill:#E3E4E4;}
	.st46{fill:#0C8B90;}
	.st47{fill:#27576D;}
	.st48{fill:#2B5D74;}
	.st49{fill:#2F647D;}
	.st50{fill:#353439;}
	.st51{fill:#3E3D42;}
	.st52{fill:#F3796A;}
	.st53{fill:#F37368;}
	.st54{fill:#D9DADB;}
	.st55{fill:#C2C4C5;}
	.st56{fill:#C3EBF3;}
	.st57{opacity:0.3;fill:#A7A9AC;}
	.st58{opacity:0.3;fill:#FF876C;}
	.st59{opacity:0.2;fill:#FF876C;}
	.st60{opacity:0.2;fill:#C85B55;}
	.st61{fill:#343943;}
	.st62{fill:#262A33;}
	.st63{fill:#1F232C;}
</style>
<g>
	<g>
		<g>
			<g>
				<rect x="536.8" y="201.4" class="st22" width="3.3" height="124.1"/>
				<rect x="540.1" y="201.4" class="st23" width="3.5" height="124.1"/>
				<rect x="543.6" y="201.4" class="st4" width="3.3" height="124.1"/>
			</g>
			<g>
				<path class="st16" d="M543.8,187.5l-2-8.9l-2,8.9C541.1,188.1,542.5,188.1,543.8,187.5z"/>
				<path class="st2" d="M539.9,187.5l-3.1,13.9h10.1l-3.1-13.9C542.5,188.1,541.1,188.1,539.9,187.5z"/>
			</g>
			<rect x="536.8" y="325.5" class="st2" width="10.1" height="3.4"/>
			<rect x="536.8" y="329" class="st11" width="10.1" height="12.6"/>
		</g>
		<rect x="536.8" y="329" class="st9" width="3.1" height="12.6"/>
		<rect x="536.8" y="325.5" class="st18" width="3.1" height="3.4"/>
	</g>
	<g>
		<g>
			<path class="st2" d="M584.3,305.9c0-3.8-2.5-6.9-5.5-6.9h-17.2c-3.1,0-5.5,3.1-5.5,6.9v6h28.3V305.9z"/>
			<path class="st5" d="M584.3,343v-31.1h-28.3V343c0,0.1,0,0.1,0,0.2h28.3C584.3,343.2,584.3,343.1,584.3,343z"/>
		</g>
		<rect x="556.1" y="311.9" class="st24" width="28.3" height="4.5"/>
	</g>
	<g>
		<rect x="148" y="98" class="st25" width="333.1" height="224.2"/>
		<rect x="162.6" y="98" class="st26" width="3.4" height="224.2"/>
		<rect x="189.7" y="98" class="st26" width="3.4" height="224.2"/>
		<rect x="148" y="112" class="st26" width="333.1" height="3.4"/>
		<rect x="148" y="139.2" class="st26" width="333.1" height="3.4"/>
		<rect x="148" y="166.1" class="st26" width="333.1" height="3.4"/>
		<rect x="148" y="193.3" class="st26" width="333.1" height="3.4"/>
		<rect x="148" y="222.3" class="st26" width="333.1" height="3.4"/>
		<rect x="148" y="249.5" class="st26" width="333.1" height="3.4"/>
		<rect x="148" y="277.7" class="st26" width="333.1" height="3.4"/>
		<rect x="148" y="304.9" class="st26" width="333.1" height="3.4"/>
		<rect x="216.9" y="98" class="st26" width="3.4" height="224.2"/>
		<rect x="245.1" y="98" class="st26" width="3.4" height="224.2"/>
		<rect x="273.1" y="98" class="st26" width="3.4" height="224.2"/>
		<rect x="300.8" y="98" class="st26" width="3.4" height="224.2"/>
		<rect x="328" y="98" class="st26" width="3.4" height="224.2"/>
		<rect x="355.2" y="98" class="st26" width="3.4" height="224.2"/>
		<rect x="383.4" y="98" class="st26" width="3.4" height="224.2"/>
		<rect x="411.4" y="98" class="st26" width="3.4" height="224.2"/>
		<rect x="439" y="98" class="st26" width="3.4" height="224.2"/>
		<rect x="466.2" y="98" class="st26" width="3.4" height="224.2"/>
	</g>
	<g>
		<g>
			<path class="st27" d="M421.1,142.6H337c-1.4,0-2.5,1.1-2.5,2.5v20.4h89.1v-20.4C423.6,143.8,422.5,142.6,421.1,142.6z
				 M396.6,156.8h-33.4c-0.8,0-1.5-0.7-1.5-1.5c0-0.8,0.7-1.5,1.5-1.5h33.4c0.8,0,1.5,0.7,1.5,1.5
				C398.2,156.1,397.5,156.8,396.6,156.8z"/>
			<path class="st28" d="M421.1,139.6H337c-3.1,0-5.6,2.5-5.6,5.6v23.5l0,0v98.9v27.1c0,3.1,2.5,5.6,5.6,5.6h84.1
				c3.1,0,5.6-2.5,5.6-5.6v-27.1v-3.1v-95.8v-3.1v-20.4C426.7,142.1,424.2,139.6,421.1,139.6z M423.6,294.6c0,1.4-1.1,2.5-2.5,2.5
				H337c-1.4,0-2.5-1.1-2.5-2.5v-27.1h89.1V294.6z M423.6,264.4h-89.1l0-95.8h89.1V264.4z M334.5,165.5v-20.4c0-1.4,1.1-2.5,2.5-2.5
				h84.1c1.4,0,2.5,1.1,2.5,2.5v20.4H334.5z"/>
			<path class="st27" d="M334.5,294.6c0,1.4,1.1,2.5,2.5,2.5h84.1c1.4,0,2.5-1.1,2.5-2.5v-27.1h-89.1V294.6z M380,274.7
				c4.5,0,8.3,3.7,8.3,8.2c0,4.5-3.7,8.2-8.3,8.3h0c-4.5,0-8.2-3.7-8.2-8.3C371.7,278.4,375.4,274.7,380,274.7z"/>
			<rect x="334.5" y="168.6" class="st27" width="89.1" height="95.8"/>
			<path class="st27" d="M380,288.2c2.9,0,5.2-2.3,5.2-5.2c0-2.9-2.3-5.2-5.2-5.2c-2.9,0-5.2,2.3-5.2,5.2
				C374.8,285.8,377.1,288.2,380,288.2z"/>
			<path class="st28" d="M380,291.2L380,291.2c4.6,0,8.3-3.7,8.3-8.3c0-4.5-3.7-8.2-8.3-8.2s-8.3,3.7-8.3,8.3
				C371.7,287.5,375.4,291.2,380,291.2z M380,277.8c2.9,0,5.2,2.3,5.2,5.2c0,2.8-2.3,5.2-5.2,5.2c-2.9,0-5.2-2.3-5.2-5.2
				C374.8,280.1,377.1,277.8,380,277.8z"/>
			<path class="st28" d="M396.6,153.7h-33.4c-0.8,0-1.5,0.7-1.5,1.5c0,0.9,0.7,1.5,1.5,1.5h33.4c0.8,0,1.5-0.7,1.5-1.5
				C398.2,154.4,397.5,153.7,396.6,153.7z"/>
		</g>
		<g>
			<path class="st29" d="M358.6,197.4l-12.6,11.4l-0.1,0.1c0.3,0.2,0.6,0.3,1,0.3h23.4c0.1,0,0.2,0,0.3,0l-5.4-5.2L358.6,197.4z"/>
			<path class="st29" d="M357.3,196.2l-12.2-11.9c0,0,0,0.1,0,0.1v22.8l3.1-2.8L357.3,196.2z"/>
			<path class="st29" d="M358.7,195l4-3.7l8.9-8.1c-0.3-0.4-0.8-0.6-1.3-0.6h-23.4c-0.3,0-0.5,0.1-0.7,0.2l1.4,1.4L358.7,195z"/>
			<path class="st29" d="M372.1,207.4v-22.2l-12.2,11l7.7,7.5l4.4,4.3C372.1,207.8,372.1,207.6,372.1,207.4z"/>
			<path class="st30" d="M373.9,184.4c0-0.3,0-0.5-0.1-0.8l0.1,0l-0.3-0.6c0,0,0,0,0,0l-0.5-1.1L373,182c-0.7-0.7-1.6-1.2-2.6-1.2
				h-23.4c-0.7,0-1.5,0.2-2.1,0.7l-0.1-0.1l-0.6,0.8c0,0,0,0,0,0l-0.5,0.6l0.1,0.1c-0.2,0.5-0.4,1-0.4,1.5v23c0,0.4,0.1,0.9,0.2,1.3
				l-0.1,0.1l0.4,0.6l0.6,0.9l0.1-0.1c0.6,0.5,1.5,0.9,2.3,0.9h23.4c0.6,0,1.2-0.2,1.7-0.4l0.1,0.1l0.6-0.6l0,0l0.7-0.6l-0.1-0.1
				c0.4-0.6,0.6-1.2,0.6-1.9V184.4z M346.9,182.6h23.4c0.5,0,1,0.2,1.3,0.6l-8.9,8.1l-4,3.7l-11.1-10.8l-1.4-1.4
				C346.4,182.7,346.7,182.6,346.9,182.6z M345.1,184.4c0,0,0-0.1,0-0.1l12.2,11.9l-9.1,8.2l-3.1,2.8V184.4z M370.3,209.2h-23.4
				c-0.3,0-0.7-0.1-1-0.3l0.1-0.1l12.6-11.4l6.6,6.5l5.4,5.2C370.5,209.2,370.4,209.2,370.3,209.2z M360,196.2l12.2-11v22.2
				c0,0.2,0,0.4-0.1,0.6l-4.4-4.3L360,196.2z"/>
		</g>
		<g>
			<path class="st29" d="M398.2,197.1l-12.6,11.4l-0.1,0.1c0.3,0.2,0.6,0.3,1,0.3h23.4c0.1,0,0.2,0,0.3,0l-5.4-5.2L398.2,197.1z"/>
			<path class="st29" d="M396.9,195.8l-12.2-11.9c0,0,0,0.1,0,0.2v22.8l3.1-2.8L396.9,195.8z"/>
			<path class="st29" d="M398.2,194.6l4-3.7l8.9-8.1c-0.3-0.4-0.8-0.6-1.3-0.6h-23.4c-0.3,0-0.5,0.1-0.7,0.2l1.4,1.4L398.2,194.6z"
				/>
			<path class="st29" d="M411.7,207v-22.2l-12.2,11l7.7,7.5l4.4,4.3C411.7,207.4,411.7,207.2,411.7,207z"/>
			<path class="st30" d="M413.5,184c0-0.3,0-0.5-0.1-0.8l0.1,0l-0.3-0.6l0,0l-0.5-1.2l-0.2,0.1c-0.7-0.7-1.6-1.2-2.6-1.2h-23.4
				c-0.8,0-1.5,0.2-2.1,0.7l-0.1-0.1l-0.6,0.8c0,0,0,0,0,0l-0.5,0.6l0.1,0.1c-0.2,0.5-0.4,1-0.4,1.6v23c0,0.4,0.1,0.9,0.2,1.3
				l-0.1,0.1l0.4,0.6l0.6,0.9l0.1-0.1c0.6,0.5,1.5,0.8,2.3,0.8h23.4c0.6,0,1.2-0.2,1.7-0.4l0.1,0.1l0.6-0.6l0,0l0.7-0.6l-0.1-0.1
				c0.4-0.6,0.6-1.2,0.6-1.9V184z M386.5,182.2h23.4c0.5,0,1,0.2,1.3,0.6l-8.9,8.1l-4,3.7l-11.1-10.8l-1.4-1.4
				C386,182.3,386.3,182.2,386.5,182.2z M384.7,184c0,0,0-0.1,0-0.2l12.2,11.9l-9.1,8.2l-3.1,2.8V184z M409.9,208.8h-23.4
				c-0.3,0-0.7-0.1-1-0.3l0.1-0.1l12.6-11.4l6.6,6.5l5.4,5.2C410.1,208.8,410,208.8,409.9,208.8z M399.5,195.8l12.2-11V207
				c0,0.2,0,0.4-0.1,0.6l-4.4-4.3L399.5,195.8z"/>
		</g>
		<g>
			<path class="st29" d="M358.6,240.2l-12.6,11.4l-0.1,0.1c0.3,0.2,0.6,0.3,1,0.3h23.4c0.1,0,0.2,0,0.3,0l-5.4-5.2L358.6,240.2z"/>
			<path class="st29" d="M357.3,239l-12.2-11.9c0,0,0,0.1,0,0.2V250l3.1-2.8L357.3,239z"/>
			<path class="st29" d="M358.7,237.8l4-3.7l8.9-8.1c-0.3-0.4-0.8-0.6-1.3-0.6h-23.4c-0.3,0-0.5,0.1-0.7,0.2l1.4,1.4L358.7,237.8z"
				/>
			<path class="st29" d="M372.1,250.2V228L360,239l7.7,7.5l4.4,4.3C372.1,250.6,372.1,250.4,372.1,250.2z"/>
			<path class="st30" d="M373.9,227.2c0-0.3,0-0.5-0.1-0.8l0.1-0.1l-0.3-0.6c0,0,0,0,0,0l-0.5-1.2l-0.2,0.1
				c-0.7-0.7-1.6-1.2-2.6-1.2h-23.4c-0.7,0-1.5,0.2-2.1,0.7l-0.1-0.1l-0.6,0.8l0,0l-0.5,0.6l0.1,0.1c-0.2,0.5-0.4,1-0.4,1.5v23
				c0,0.4,0.1,0.9,0.2,1.3l-0.1,0.1l0.4,0.6l0.6,0.9l0.1-0.1c0.6,0.5,1.4,0.9,2.3,0.9h23.4c0.6,0,1.2-0.2,1.7-0.4l0.1,0.1l0.6-0.6
				l0,0l0.7-0.6l-0.1-0.1c0.4-0.6,0.6-1.2,0.6-1.9V227.2z M346.9,225.4h23.4c0.5,0,1,0.2,1.3,0.6l-8.9,8.1l-4,3.7l-11.1-10.8
				l-1.4-1.4C346.4,225.5,346.7,225.4,346.9,225.4z M345.1,227.2c0-0.1,0-0.1,0-0.2l12.2,11.9l-9.1,8.2l-3.1,2.8V227.2z M370.3,252
				h-23.4c-0.3,0-0.7-0.1-1-0.3l0.1-0.1l12.6-11.4l6.6,6.5l5.4,5.2C370.5,252,370.4,252,370.3,252z M360,239l12.2-11v22.2
				c0,0.2,0,0.4-0.1,0.6l-4.4-4.3L360,239z"/>
		</g>
		<g>
			<path class="st29" d="M398.2,239.9l-12.6,11.4l-0.1,0.1c0.3,0.2,0.6,0.3,1,0.3h23.4c0.1,0,0.2,0,0.3,0l-5.4-5.2L398.2,239.9z"/>
			<path class="st29" d="M396.9,238.6l-12.2-11.9c0,0,0,0.1,0,0.2v22.8l3.1-2.8L396.9,238.6z"/>
			<path class="st29" d="M398.2,237.4l4-3.7l8.9-8.1c-0.3-0.4-0.8-0.6-1.3-0.6h-23.4c-0.3,0-0.5,0.1-0.7,0.2l1.4,1.4L398.2,237.4z"
				/>
			<path class="st29" d="M411.7,249.8v-22.2l-12.2,11l7.7,7.5l4.4,4.3C411.7,250.2,411.7,250,411.7,249.8z"/>
			<path class="st30" d="M413.5,226.8c0-0.3,0-0.5-0.1-0.8l0.1,0l-0.3-0.6c0,0,0,0,0,0l-0.5-1.1l-0.2,0.1c-0.7-0.7-1.6-1.2-2.6-1.2
				h-23.4c-0.8,0-1.5,0.2-2.1,0.7l-0.1-0.1l-0.6,0.8c0,0,0,0,0,0l-0.5,0.6l0.1,0.1c-0.2,0.5-0.4,1-0.4,1.6v23c0,0.4,0.1,0.9,0.2,1.3
				l-0.1,0.1l0.4,0.6l0.6,0.9l0.1-0.1c0.6,0.5,1.5,0.8,2.3,0.8h23.4c0.6,0,1.2-0.2,1.7-0.4l0.1,0.1l0.6-0.6c0,0,0,0,0,0l0.7-0.6
				l-0.1-0.1c0.4-0.6,0.6-1.2,0.6-1.9V226.8z M386.5,225h23.4c0.5,0,1,0.2,1.3,0.6l-8.9,8.1l-4,3.7l-11.1-10.8l-1.4-1.4
				C386,225.1,386.3,225,386.5,225z M384.7,226.8c0-0.1,0-0.1,0-0.2l12.2,11.9l-9.1,8.2l-3.1,2.8V226.8z M409.9,251.6h-23.4
				c-0.3,0-0.7-0.1-1-0.3l0.1-0.1l12.6-11.4l6.6,6.5l5.4,5.2C410.1,251.6,410,251.6,409.9,251.6z M399.5,238.6l12.2-11v22.2
				c0,0.2,0,0.4-0.1,0.6l-4.4-4.3L399.5,238.6z"/>
		</g>
	</g>
	<path class="st25" d="M481.1,98v133.6V242v80.1c11.7,0,11.7,12.3,11.7,12.3v-79.1c0,0,0-9.5,0-23.7c0-37.8,0-108.6,0-119.4
		C492.9,97.3,481.1,98,481.1,98z"/>
	<path class="st25" d="M136.2,112.6c0,10.8,0,81.6,0,119.4c0,14.1,0,23.7,0,23.7v79.1c0,0,0-12.7,11.7-12.7v-79.7V232V98.4
		C148,98.4,136.2,97.7,136.2,112.6z"/>
	<path class="st31" d="M481.1,322.1H148c-11.7,0-11.7,12.7-11.7,12.7c0,12,11.7,11.4,11.7,11.4h333.1c0,0,11.7,0.2,11.7-11.8
		C492.9,334.4,492.9,322.1,481.1,322.1z"/>
	<g>
		<g>
			<rect x="434.5" y="31.8" class="st32" width="159.7" height="108.8"/>
			<rect x="434.5" y="140.5" class="st2" width="159.7" height="18"/>
			<g>
				<path class="st33" d="M439.4,150.5c0,1.7,1.4,3.1,3.1,3.1h4.6c1.7,0,3.1-1.4,3.1-3.1v-1.5c0-1.7-1.4-3.1-3.1-3.1h-4.6
					c-1.7,0-3.1,1.4-3.1,3.1V150.5z"/>
				<path class="st33" d="M573.3,150.3c0,1.7,1.4,3,3.1,3h0.8c1.7,0,3.1-1.4,3.1-3v-1.5c0-1.7-1.4-3.1-3.1-3.1h-0.8
					c-1.7,0-3.1,1.4-3.1,3.1V150.3z"/>
				<path class="st33" d="M582.7,150.3c0,1.7,1.4,3,3,3h0.8c1.7,0,3.1-1.4,3.1-3v-1.5c0-1.7-1.4-3.1-3.1-3.1h-0.8
					c-1.7,0-3,1.4-3,3.1V150.3z"/>
				<path class="st33" d="M453.8,149.5c0,0.8,0.6,1.4,1.4,1.4h113.6c0.8,0,1.4-0.6,1.4-1.4c0-0.8-0.6-1.4-1.4-1.4H455.3
					C454.5,148.1,453.8,148.7,453.8,149.5C453.8,149.5,453.8,148.7,453.8,149.5z"/>
			</g>
			<path class="st4" d="M506.3,97.8l17-8.5c0.3-0.2,0.5-0.5,0.5-0.8c0-0.4-0.2-0.7-0.5-0.8l-17.1-8.6c-0.3-0.1-0.6-0.1-0.9,0
				c-0.3,0.2-0.4,0.5-0.4,0.8v17.1c0,0,0,0,0,0c0,0.5,0.4,0.9,0.9,0.9C506,98,506.2,98,506.3,97.8z"/>
		</g>
		<g>
			<path class="st34" d="M571.1,31.8H434.5v88.5C456.2,80.1,506.5,47.8,571.1,31.8z"/>
		</g>
	</g>
	<g>
		<rect x="24" y="118.1" class="st4" width="136.7" height="23.8"/>
		<rect x="24" y="141.9" class="st2" width="136.7" height="146.3"/>
		<g>
			<path class="st2" d="M41.6,126.9c0,0.3-0.3,0.6-0.6,0.6h-10c-0.3,0-0.6-0.2-0.6-0.6l0,0c0-0.3,0.2-0.6,0.6-0.6h10
				C41.4,126.3,41.6,126.6,41.6,126.9L41.6,126.9z"/>
			<path class="st2" d="M41.6,130c0,0.3-0.3,0.6-0.6,0.6h-10c-0.3,0-0.6-0.2-0.6-0.6l0,0c0-0.3,0.2-0.6,0.6-0.6h10
				C41.4,129.4,41.6,129.6,41.6,130L41.6,130z"/>
			<path class="st2" d="M41.6,133.1c0,0.3-0.3,0.6-0.6,0.6h-10c-0.3,0-0.6-0.2-0.6-0.6l0,0c0-0.3,0.2-0.6,0.6-0.6h10
				C41.4,132.6,41.6,132.8,41.6,133.1L41.6,133.1z"/>
		</g>
		<path class="st2" d="M146.4,128.7l3.8,3.8c0.2,0.2,0.4,0.2,0.6,0.2c0.2,0,0.4-0.1,0.6-0.2l3.8-3.8c0.3-0.3,0.3-0.9,0-1.2
			c-0.3-0.3-0.9-0.3-1.2,0l-3.2,3.2l-3.2-3.2c-0.3-0.3-0.9-0.3-1.2,0C146.1,127.9,146.1,128.4,146.4,128.7z"/>
		<g>
			<rect x="36.5" y="171.2" class="st18" width="111.4" height="22"/>
			<rect x="36.5" y="171.2" class="st35" width="2.6" height="22"/>
			<rect x="36.5" y="190.6" class="st35" width="111.4" height="2.6"/>
		</g>
		<g>
			<rect x="36.5" y="223.6" class="st18" width="111.4" height="22"/>
			<rect x="36.5" y="223.6" class="st35" width="2.6" height="22"/>
			<rect x="36.5" y="243" class="st35" width="111.4" height="2.6"/>
		</g>
		<rect x="36.5" y="151.2" class="st36" width="39" height="7.4"/>
		<rect x="36.5" y="161.6" class="st36" width="51.1" height="3.5"/>
		<rect x="36.5" y="202.3" class="st36" width="39" height="7.4"/>
		<rect x="36.5" y="212.8" class="st36" width="51.1" height="3.5"/>
		<path class="st18" d="M65.2,273.2c0,1.8,1.5,3.3,3.3,3.3h46.8c1.8,0,3.3-1.5,3.3-3.3v-13.8c0-1.8-1.5-3.3-3.3-3.3H68.5
			c-1.8,0-3.3,1.5-3.3,3.3V273.2z"/>
	</g>
	<g>
		<rect x="92.3" y="32.9" class="st4" width="108.2" height="20.2"/>
		<rect x="92.3" y="53.2" class="st37" width="108.2" height="20.2"/>
		<rect x="92.3" y="73.4" class="st38" width="108.2" height="20.2"/>
		<rect x="92.3" y="93.6" class="st37" width="108.2" height="20.2"/>
		<rect x="92.3" y="113.8" class="st37" width="108.2" height="20.2"/>
		<path class="st2" d="M184.5,41.7l3.8,3.8c0.2,0.2,0.4,0.2,0.6,0.2c0.2,0,0.4-0.1,0.6-0.2l3.8-3.8c0.3-0.3,0.3-0.9,0-1.2
			c-0.3-0.3-0.9-0.3-1.2,0l-3.2,3.2l-3.2-3.2c-0.3-0.3-0.9-0.3-1.2,0C184.1,40.9,184.1,41.4,184.5,41.7z"/>
		<path class="st39" d="M99.1,63.3c0,1.9,1.6,3.5,3.5,3.5h31.7c1.9,0,3.5-1.6,3.5-3.5c0-1.9-1.6-3.5-3.5-3.5h-31.7
			C100.7,59.7,99.1,61.3,99.1,63.3C99.1,63.3,99.1,61.3,99.1,63.3z"/>
		<path class="st39" d="M99.1,83.5c0,1.9,1.6,3.5,3.5,3.5h31.7c1.9,0,3.5-1.6,3.5-3.5c0-1.9-1.6-3.5-3.5-3.5h-31.7
			C100.7,80,99.1,81.5,99.1,83.5C99.1,83.5,99.1,81.5,99.1,83.5z"/>
		<path class="st39" d="M99.1,103.7c0,1.9,1.6,3.5,3.5,3.5h31.7c1.9,0,3.5-1.6,3.5-3.5c0-1.9-1.6-3.5-3.5-3.5h-31.7
			C100.7,100.2,99.1,101.8,99.1,103.7C99.1,103.7,99.1,101.8,99.1,103.7z"/>
		<path class="st39" d="M99.1,123.9c0,1.9,1.6,3.5,3.5,3.5h31.7c1.9,0,3.5-1.6,3.5-3.5c0-1.9-1.6-3.5-3.5-3.5h-31.7
			C100.7,120.4,99.1,122,99.1,123.9C99.1,123.9,99.1,122,99.1,123.9z"/>
		<path class="st2" d="M124.8,39.9c0,0.5-0.6,0.9-1.4,0.9H98.6c-0.8,0-1.4-0.4-1.4-0.9l0,0c0-0.5,0.6-0.9,1.4-0.9h24.8
			C124.2,39,124.8,39.4,124.8,39.9L124.8,39.9z"/>
		<path class="st2" d="M113.9,45.5c0,0.5-0.6,0.9-1.4,0.9H98.6c-0.8,0-1.4-0.4-1.4-0.9l0,0c0-0.5,0.6-0.9,1.4-0.9h13.9
			C113.3,44.6,113.9,45,113.9,45.5L113.9,45.5z"/>
		<path class="st39" d="M193.5,63.2c0,1.5-1.2,2.8-2.8,2.8h-0.1c-1.5,0-2.8-1.2-2.8-2.8l0,0c0-1.5,1.2-2.8,2.8-2.8h0.1
			C192.3,60.5,193.5,61.7,193.5,63.2L193.5,63.2z"/>
		<path class="st39" d="M193.5,83.5c0,1.5-1.2,2.8-2.8,2.8h-0.1c-1.5,0-2.8-1.2-2.8-2.8l0,0c0-1.5,1.2-2.8,2.8-2.8h0.1
			C192.3,80.7,193.5,82,193.5,83.5L193.5,83.5z"/>
		<path class="st39" d="M193.5,103.7c0,1.5-1.2,2.8-2.8,2.8h-0.1c-1.5,0-2.8-1.2-2.8-2.8l0,0c0-1.5,1.2-2.8,2.8-2.8h0.1
			C192.3,100.9,193.5,102.2,193.5,103.7L193.5,103.7z"/>
		<path class="st39" d="M193.5,123.9c0,1.5-1.2,2.8-2.8,2.8h-0.1c-1.5,0-2.8-1.2-2.8-2.8l0,0c0-1.5,1.2-2.8,2.8-2.8h0.1
			C192.3,121.2,193.5,122.4,193.5,123.9L193.5,123.9z"/>
	</g>
	<g>
		<path class="st40" d="M488.9,328c0.9,0,1.6,0.1,2.4,0.2c-1.5-3-4.4-6-10.2-6H148c-5.8,0-8.7,3-10.2,6.1c0.9-0.2,1.8-0.3,2.8-0.3
			H488.9z"/>
	</g>
	<g>
		<g>
			<g>
				<g>
					<path class="st2" d="M288.2,145.2c0-2.2-1.8-4-4-4H200c-2.2,0-4,1.8-4,4v21.9h92.2V145.2z"/>
					<path class="st2" d="M196,294.7c0,2.2,1.8,4,4,4h84.1c2.2,0,4-1.8,4-4v-28.6H196V294.7z"/>
					<rect x="196" y="167.2" class="st11" width="92.2" height="98.9"/>
				</g>
				<path class="st41" d="M249.7,283.1c0,3.7-3,6.7-6.7,6.7c-3.7,0-6.7-3-6.7-6.7c0-3.7,3-6.7,6.7-6.7
					C246.7,276.4,249.7,279.4,249.7,283.1z"/>
				<path class="st41" d="M260.4,153.1c0,1.4-1.1,2.5-2.5,2.5h-32.7c-1.4,0-2.5-1.1-2.5-2.5l0,0c0-1.4,1.1-2.5,2.5-2.5H258
					C259.3,150.6,260.4,151.7,260.4,153.1L260.4,153.1z"/>
			</g>
		</g>
		<g>
			<path class="st9" d="M278.5,167.2H196l0,92C206.1,215.8,237.6,181.1,278.5,167.2z"/>
		</g>
	</g>
	<g>
		<rect x="506.6" y="192.3" class="st35" width="21.7" height="149.7"/>
		<g>
			<g>
				<rect x="506.6" y="334.3" class="st42" width="11.3" height="2.2"/>
			</g>
			<g>
				<rect x="506.6" y="307.9" class="st42" width="11.3" height="2.2"/>
			</g>
			<g>
				<rect x="506.6" y="294.3" class="st42" width="11.3" height="2.2"/>
			</g>
			<g>
				<rect x="506.6" y="280.5" class="st42" width="11.3" height="2.2"/>
			</g>
			<g>
				<rect x="506.6" y="267.1" class="st42" width="12" height="2.2"/>
			</g>
			<g>
				<rect x="506.6" y="254.5" class="st42" width="12" height="2.2"/>
			</g>
			<g>
				<rect x="506.6" y="240.5" class="st42" width="12" height="2.2"/>
			</g>
			<g>
				<rect x="506.6" y="321.1" class="st42" width="11.3" height="2.2"/>
			</g>
			<g>
				<rect x="506.6" y="327.6" class="st42" width="5.7" height="2.2"/>
			</g>
			<g>
				<rect x="506.6" y="314.3" class="st42" width="5.7" height="2.2"/>
			</g>
			<g>
				<rect x="506.6" y="301.3" class="st42" width="5.7" height="2.2"/>
			</g>
			<g>
				<rect x="506.6" y="287.6" class="st42" width="5.7" height="2.2"/>
			</g>
			<g>
				<rect x="506.6" y="274.4" class="st42" width="5.7" height="2.2"/>
			</g>
			<g>
				<rect x="506.6" y="261" class="st42" width="5.7" height="2.2"/>
			</g>
			<g>
				<rect x="506.6" y="247.2" class="st42" width="5.7" height="2.2"/>
			</g>
		</g>
		<g>
			<g>
				<rect x="506.6" y="230.9" class="st42" width="11.3" height="2.2"/>
			</g>
			<g>
				<rect x="506.6" y="204.5" class="st42" width="11.3" height="2.2"/>
			</g>
			<g>
				<rect x="506.6" y="217.7" class="st42" width="11.3" height="2.2"/>
			</g>
			<g>
				<rect x="506.6" y="224.2" class="st42" width="5.7" height="2.2"/>
			</g>
			<g>
				<rect x="506.6" y="211" class="st42" width="5.7" height="2.2"/>
			</g>
			<g>
				<rect x="506.6" y="198" class="st42" width="5.7" height="2.2"/>
			</g>
		</g>
		<rect x="526.3" y="192.3" class="st43" width="2" height="149.7"/>
	</g>
	<g>
		<rect x="239.5" y="48.4" class="st2" width="126.7" height="24.6"/>
		<rect x="366.2" y="48.4" class="st4" width="26.9" height="24.6"/>
		<g>
			<path class="st44" d="M263,63.4h-4.8v-1.9h4.6V60h-4.6v-2h4.8v-1.6h-6.4c0,2.8,0,5.7,0,8.5h6.4V63.4z M254.5,57.9
				c-0.6-1.3-2-1.7-3.3-1.7c-1.6,0-3.3,0.7-3.3,2.5c0,1.9,1.6,2.4,3.3,2.6c1.1,0.1,2,0.4,2,1.2c0,0.9-0.9,1.3-1.9,1.3
				c-1,0-2-0.4-2.4-1.3l-1.3,0.7c0.6,1.6,2,2.1,3.7,2.1c1.9,0,3.6-0.8,3.6-2.7c0-2-1.6-2.5-3.4-2.7c-1-0.1-1.9-0.3-1.9-1.1
				c0-0.6,0.6-1.1,1.8-1.1c0.9,0,1.7,0.5,2,0.9L254.5,57.9z"/>
			<path class="st44" d="M270.2,61.9H267l1.6-3.6L270.2,61.9z M271.5,65h1.7l-3.8-8.5h-1.7l-3.8,8.5h1.7l0.7-1.6h4.4L271.5,65z"/>
			<path class="st44" d="M278.6,58c1,0,1.5,0.7,1.5,1.4c0,0.7-0.4,1.4-1.5,1.4h-2.4V58H278.6z M282.1,64.9l-2.6-2.9
				c1.6-0.3,2.1-1.5,2.1-2.7c0-1.5-1.1-2.8-3.1-2.8c-1.3,0-2.7,0-4,0V65h1.6v-2.8h1.5l2.5,2.8h1.9V64.9z"/>
			<path class="st44" d="M289.8,62.8c-0.6,0.6-1.4,0.9-2.1,0.9c-2.1,0-2.9-1.5-2.9-2.9c0-1.4,0.9-2.9,2.9-2.9c0.7,0,1.5,0.3,2,0.8
				l1.1-1c-0.9-0.9-2-1.3-3.1-1.3c-3.1,0-4.5,2.3-4.5,4.5c0,2.2,1.3,4.4,4.5,4.4c1.2,0,2.3-0.4,3.2-1.3L289.8,62.8z"/>
			<polygon class="st44" points="299.7,65 299.7,56.5 298.1,56.5 298.1,60.1 294,60.1 294,56.5 292.4,56.5 292.4,65 294,65 
				294,61.6 298.1,61.6 298.1,65 			"/>
		</g>
	</g>
</g>
</svg>
