<?xml version="1.0" encoding="utf-8"?>
<!-- Generator: Adobe Illustrator 21.1.0, SVG Export Plug-In . SVG Version: 6.00 Build 0)  -->
<svg version="1.1" xmlns="http://www.w3.org/2000/svg" xmlns:xlink="http://www.w3.org/1999/xlink" x="0px" y="0px"
	 viewBox="0 0 739.6 800" style="enable-background:new 0 0 739.6 800;" xml:space="preserve">
<style type="text/css">
	.st0{opacity:0.1;fill:#3BDDBA;}
	.st1{opacity:0.2;fill:#3BDDBA;}
	.st2{fill:none;stroke:#34508B;stroke-width:3;stroke-linecap:round;stroke-linejoin:round;stroke-miterlimit:10;}
	.st3{fill:#62C3EF;stroke:#34508B;stroke-width:3;stroke-linecap:round;stroke-linejoin:round;stroke-miterlimit:10;}
	.st4{fill:#ED1C24;stroke:#34508B;stroke-width:3;stroke-linecap:round;stroke-linejoin:round;stroke-miterlimit:10;}
	.st5{fill:#34508B;}
	.st6{fill:none;stroke:#FFFFFF;stroke-width:3;stroke-linecap:round;stroke-linejoin:round;stroke-miterlimit:10;}
	.st7{fill:#FFFFFF;stroke:#34508B;stroke-width:3;stroke-linecap:round;stroke-linejoin:round;stroke-miterlimit:10;}
	.st8{fill:#E2E2E2;stroke:#34508B;stroke-width:3;stroke-linecap:round;stroke-linejoin:round;stroke-miterlimit:10;}
	.st9{fill:#989C9E;}
	.st10{fill:#989C9E;stroke:#34508B;stroke-width:3;stroke-linecap:round;stroke-linejoin:round;stroke-miterlimit:10;}
	.st11{fill:#416199;}
	.st12{fill:#416199;stroke:#34508B;stroke-width:3;stroke-linecap:round;stroke-linejoin:round;stroke-miterlimit:10;}
	.st13{fill:#F7AB6F;stroke:#34508B;stroke-width:3;stroke-linecap:round;stroke-linejoin:round;stroke-miterlimit:10;}
	.st14{fill:#FFFFFF;}
	.st15{fill:#FFFAAD;}
	.st16{fill:#FF9F9E;}
	.st17{font-family:'Montserrat-ExtraBold';}
	.st18{font-size:16.4189px;}
	.st19{fill:#FE96CC;}
	.st20{fill:#C8EBFF;}
	.st21{fill:#A5D996;}
	.st22{fill:#3BDDBA;}
	.st23{fill:#FF9F9E;stroke:#34508B;stroke-width:3;stroke-linecap:round;stroke-linejoin:round;stroke-miterlimit:10;}
	.st24{fill:#C8EBFF;stroke:#34508B;stroke-width:3;stroke-linecap:round;stroke-linejoin:round;stroke-miterlimit:10;}
	.st25{fill:#CECECE;}
	.st26{fill:#CECECE;stroke:#34508B;stroke-width:3;stroke-linecap:round;stroke-linejoin:round;stroke-miterlimit:10;}
	.st27{fill:#FFFAAD;stroke:#34508B;stroke-width:3;stroke-linecap:round;stroke-linejoin:round;stroke-miterlimit:10;}
	.st28{fill:#E7E3E4;}
	.st29{fill:#34508B;stroke:#34508B;stroke-width:3;stroke-linecap:round;stroke-linejoin:round;stroke-miterlimit:10;}
	.st30{fill:none;}
</style>
<g id="Background">
</g>
<g id="Objects">
	<g id="XMLID_2_">
		<line id="XMLID_256_" class="st2" x1="625.1" y1="488" x2="772.5" y2="488"/>
		<line id="XMLID_214_" class="st2" x1="-101.6" y1="472.4" x2="850.4" y2="472.4"/>
		<line id="XMLID_215_" class="st2" x1="-101.6" y1="631.1" x2="249.8" y2="631.1"/>
		<line id="XMLID_221_" class="st2" x1="261.8" y1="631.1" x2="292.5" y2="631.1"/>
		<line id="XMLID_255_" class="st2" x1="207.9" y1="652.8" x2="355.3" y2="652.8"/>
		<line id="XMLID_222_" class="st2" x1="313.5" y1="631.1" x2="422.2" y2="631.1"/>
		<line id="XMLID_220_" class="st2" x1="437.8" y1="631.1" x2="850.4" y2="631.1"/>
		<g id="XMLID_146_">
			<path id="XMLID_110_" class="st3" d="M170.4,330.5l-1.3,164.7c-0.1,8.2-6.7,14.7-14.9,14.7l-93.4-0.7
				c-8.2-0.1-14.7-6.7-14.7-14.9l1.3-164.7c0.1-8.2,6.7-14.7,14.9-14.7l93.4,0.7C163.9,315.7,170.5,322.4,170.4,330.5z"/>
			
				<rect id="XMLID_120_" x="35.7" y="365.9" transform="matrix(7.618105e-03 -1 1 7.618105e-03 -304.9041 517.5619)" class="st4" width="145.2" height="92.9"/>
			<line id="XMLID_122_" class="st2" x1="90.3" y1="327.5" x2="126.7" y2="327.8"/>
			
				<ellipse id="XMLID_123_" transform="matrix(7.618105e-03 -1 1 7.618105e-03 -391.7399 601.5688)" class="st5" cx="107.2" cy="498.2" rx="3.8" ry="3.8"/>
			
				<ellipse id="XMLID_124_" transform="matrix(7.618105e-03 -1 1 7.618105e-03 -403.4189 589.6199)" class="st5" cx="95.4" cy="498.1" rx="3.8" ry="3.8"/>
			<g id="XMLID_164_">
				<path id="XMLID_172_" class="st6" d="M138.2,381.7c0,0-27.2-9.4-47.1,10.2s-10.9,46.9-10.9,46.9"/>
				<g id="XMLID_165_">
					<path id="XMLID_173_" class="st6" d="M123.8,395.9c0,0-22.7-13.8-32.7-4s3.5,32.7,3.5,32.7"/>
				</g>
				<path id="XMLID_199_" class="st6" d="M112.9,414l13.3,13.5c3,3,2.9,7.9-0.1,10.9h0c-3,3-7.9,2.9-10.9-0.1l-3-3"/>
				<line id="XMLID_200_" class="st6" x1="101" y1="415.8" x2="113.5" y2="403.5"/>
				<line id="XMLID_201_" class="st6" x1="80.8" y1="435.6" x2="85.1" y2="431.4"/>
				<line id="XMLID_202_" class="st6" x1="131.8" y1="385.5" x2="136.1" y2="381.2"/>
			</g>
		</g>
		<g id="XMLID_116_">
			<path id="XMLID_119_" class="st7" d="M564.8,155.5c0.2,0,0.3,0,0.5,0c1.8-9.7,9-17.4,18.4-20.1c4.9-16.1,19.9-27.8,37.6-27.8
				c17.7,0,32.6,11.7,37.6,27.7c9.5,2.5,16.9,10.4,18.8,20.2c0.2,0,0.3,0,0.5,0c8.5,0,15.5,6.9,15.5,15.5c0,8.5-6.9,15.5-15.5,15.5
				H564.8c-8.5,0-15.5-6.9-15.5-15.5C549.4,162.4,556.3,155.5,564.8,155.5z"/>
			<path id="XMLID_118_" class="st7" d="M659,135.4c2.1,12.6,0.1,18.8-2.1,23.8"/>
			<path id="XMLID_117_" class="st7" d="M565.3,155.5c8.5,0,15.2,5.9,15.2,12.6"/>
		</g>
		<g id="XMLID_12_">
			<path id="XMLID_20_" class="st7" d="M353.2,222.3c0.1,0,0.3,0,0.4,0c1.6-8.2,7.7-14.8,15.7-17.1c4.2-13.7,17-23.7,32.1-23.7
				c15.1,0,27.8,9.9,32.1,23.6c8.1,2.2,14.4,8.8,16,17.2c0.1,0,0.3,0,0.4,0c7.3,0,13.2,5.9,13.2,13.2c0,7.3-5.9,13.2-13.2,13.2
				h-96.7c-7.3,0-13.2-5.9-13.2-13.2C340.1,228.2,346,222.3,353.2,222.3z"/>
			<path id="XMLID_18_" class="st7" d="M433.5,205.1c1.8,10.8,0.1,16-1.8,20.3"/>
			<path id="XMLID_13_" class="st7" d="M353.6,222.3c7.2,0,12.9,5,12.9,10.8"/>
		</g>
		<path id="XMLID_4_" class="st3" d="M535.6,522.1H213.3V326.7c0-8.3,6.7-15.1,15.1-15.1h292.2c8.3,0,15.1,6.7,15.1,15.1V522.1z"/>
		<polygon id="XMLID_5_" class="st8" points="574.6,569.8 174.2,569.8 213.3,522.1 535.6,522.1 		"/>
		<path id="XMLID_16_" class="st7" d="M561.3,588.1H187.5c-7.4,0-13.3-6-13.3-13.3v-4.9h400.4v4.9
			C574.6,582.1,568.7,588.1,561.3,588.1z"/>
		<g id="XMLID_17_">
			<polygon id="XMLID_30_" class="st9" points="203.1,556.1 219.7,535.8 529.1,535.8 545.8,556.1 			"/>
			<polygon id="XMLID_26_" class="st10" points="203.1,556.1 219.7,535.8 529.1,535.8 545.8,556.1 			"/>
		</g>
		<line id="XMLID_32_" class="st2" x1="211.4" y1="546" x2="535.6" y2="546"/>
		<g id="XMLID_24_">
			<line id="XMLID_46_" class="st2" x1="238" y1="535.8" x2="223.2" y2="556.1"/>
			<line id="XMLID_48_" class="st2" x1="256.1" y1="535.8" x2="243.4" y2="556.1"/>
			<line id="XMLID_50_" class="st2" x1="274.3" y1="535.8" x2="263.5" y2="556.1"/>
			<line id="XMLID_54_" class="st2" x1="292.5" y1="535.8" x2="283.7" y2="556.1"/>
			<line id="XMLID_55_" class="st2" x1="310.7" y1="535.8" x2="303.8" y2="556.1"/>
			<line id="XMLID_56_" class="st2" x1="328.9" y1="535.8" x2="323.9" y2="556.1"/>
			<line id="XMLID_57_" class="st2" x1="347" y1="535.8" x2="344.1" y2="556.1"/>
			<line id="XMLID_58_" class="st2" x1="365.2" y1="535.8" x2="364.2" y2="556.1"/>
			<line id="XMLID_59_" class="st2" x1="383.4" y1="535.8" x2="384.4" y2="556.1"/>
			<line id="XMLID_60_" class="st2" x1="401.6" y1="535.8" x2="404.5" y2="556.1"/>
			<line id="XMLID_61_" class="st2" x1="419.7" y1="535.8" x2="424.7" y2="556.1"/>
			<line id="XMLID_62_" class="st2" x1="437.9" y1="535.8" x2="444.8" y2="556.1"/>
			<line id="XMLID_63_" class="st2" x1="456.1" y1="535.8" x2="464.9" y2="556.1"/>
			<line id="XMLID_64_" class="st2" x1="474.3" y1="535.8" x2="485.1" y2="556.1"/>
			<line id="XMLID_65_" class="st2" x1="492.5" y1="535.8" x2="505.2" y2="556.1"/>
			<line id="XMLID_66_" class="st2" x1="510.6" y1="535.8" x2="525.4" y2="556.1"/>
		</g>
		<g id="XMLID_67_">
			<rect id="XMLID_70_" x="229.7" y="328.1" class="st11" width="289.5" height="177.6"/>
			<rect id="XMLID_69_" x="229.7" y="328.1" class="st12" width="289.5" height="177.6"/>
		</g>
		<g id="XMLID_76_">
			<path id="XMLID_73_" class="st13" d="M527,506l-60.3,27.9c-6.2,2.8-10,8.5-10,14.7v86.6c0,28.6,15.6,55.4,41.8,72l26.4,16.6
				c6.4,4.1,15.1,4.1,21.5,0l26.4-16.6c26.2-16.5,41.8-43.4,41.8-72v-86.6c0-6.2-3.9-11.8-10-14.7L544.2,506
				C538.8,503.5,532.4,503.5,527,506z"/>
			<g id="XMLID_68_">
				<path id="XMLID_74_" class="st4" d="M535.6,712.2c-1.1,0-2.1-0.3-2.9-0.8l-26.4-16.6c-21.9-13.8-35-36.1-35-59.6v-86.6
					c0-0.2,0.4-0.8,1.5-1.4l60.3-27.9c0.7-0.3,1.6-0.5,2.4-0.5c0.9,0,1.7,0.2,2.4,0.5l60.3,27.9c1.2,0.5,1.5,1.2,1.5,1.4v86.6
					c0,23.5-13.1,45.8-35,59.6l-26.4,16.6C537.7,711.9,536.7,712.2,535.6,712.2z"/>
				<path id="XMLID_72_" class="st4" d="M535.6,712.2c-1.1,0-2.1-0.3-2.9-0.8l-26.4-16.6c-21.9-13.8-35-36.1-35-59.6v-86.6
					c0-0.2,0.4-0.8,1.5-1.4l60.3-27.9c0.7-0.3,1.6-0.5,2.4-0.5c0.9,0,1.7,0.2,2.4,0.5l60.3,27.9c1.2,0.5,1.5,1.2,1.5,1.4v86.6
					c0,23.5-13.1,45.8-35,59.6l-26.4,16.6C537.7,711.9,536.7,712.2,535.6,712.2z"/>
			</g>
			<polygon id="XMLID_75_" class="st14" points="577.9,577.1 523.2,635.2 498.1,605.5 521.9,615.4 			"/>
			<g id="XMLID_71_">
				<path id="XMLID_78_" class="st2" d="M572.1,675.9c-3.7,3.8-8,7.2-12.7,10.2l-9.5,6"/>
				<polyline id="XMLID_79_" class="st2" points="524.5,534.6 535.6,529.5 545.3,534 				"/>
				<path id="XMLID_77_" class="st2" d="M511.8,686.1c-18.9-11.9-30.2-31-30.2-50.9"/>
			</g>
		</g>
		<rect id="XMLID_80_" x="249.8" y="346" class="st15" width="9.7" height="19.2"/>
		<text id="XMLID_81_" transform="matrix(1 0 0 1 270.4402 362.3705)" class="st16 st17 st18">c://</text>
		<text id="XMLID_83_" transform="matrix(1 0 0 1 270.4412 395.0287)" class="st16 st17 st18">&lt; head &gt;</text>
		<text id="XMLID_87_" transform="matrix(1 0 0 1 270.4412 488.8929)" class="st19 st17 st18">&lt; end &gt;</text>
		<text id="XMLID_84_" transform="matrix(1 0 0 1 306.8328 419.3236)" class="st20 st17 st18">x,y,z integer</text>
		<text id="XMLID_85_" transform="matrix(1 0 0 1 306.8328 441.4476)" class="st21 st17 st18">begin</text>
		<text id="XMLID_86_" transform="matrix(1 0 0 1 306.8328 463.0433)" class="st22 st17 st18">read x, y, z</text>
		<circle id="XMLID_82_" class="st5" cx="367.3" cy="319.7" r="3.5"/>
		<path id="XMLID_88_" class="st5" d="M400.1,578.9h-51.4c-3.7,0-6.7-3-6.7-6.7v-2.5h64.8v2.5C406.8,576,403.8,578.9,400.1,578.9z"
			/>
		<g id="XMLID_95_">
			
				<rect id="XMLID_94_" x="608.8" y="456.5" transform="matrix(-0.7071 0.7071 -0.7071 -0.7071 1382.1047 359.1812)" class="st23" width="15.8" height="18.7"/>
			<path id="XMLID_101_" class="st13" d="M678.8,532.1l4.2-4.2c3.1-3.1,3.1-8.2,0-11.3L631,464.7l-15.5,15.5l51.9,51.9
				C670.5,535.2,675.6,535.2,678.8,532.1z"/>
			<path id="XMLID_98_" class="st24" d="M531.6,461.6c22.3,22.3,58.5,22.3,80.9,0c22.3-22.3,22.3-58.5,0-80.9
				c-22.3-22.3-58.5-22.3-80.9,0C509.3,403.1,509.3,439.3,531.6,461.6z M541.7,451.5c-16.7-16.7-16.7-43.9,0-60.6
				c16.7-16.7,43.9-16.7,60.6,0c16.7,16.7,16.7,43.9,0,60.6C585.6,468.3,558.5,468.3,541.7,451.5z"/>
			
				<ellipse id="XMLID_93_" transform="matrix(0.7071 -0.7071 0.7071 0.7071 -130.2898 527.8528)" class="st2" cx="572" cy="421.2" rx="42.9" ry="42.9"/>
			<g id="XMLID_177_">
				<path id="XMLID_100_" class="st2" d="M604.5,418.8c-0.6-8-3.9-15.9-10.1-22.1"/>
				<path id="XMLID_99_" class="st2" d="M588.6,392c-2.1-1.3-4.3-2.4-6.6-3.3"/>
			</g>
			<line id="XMLID_103_" class="st2" x1="622.5" y1="461.1" x2="611.7" y2="472"/>
			<line id="XMLID_105_" class="st2" x1="676.9" y1="510.6" x2="661.4" y2="526.1"/>
			<line id="XMLID_106_" class="st2" x1="672.2" y1="505.9" x2="656.7" y2="521.4"/>
		</g>
		<g id="XMLID_102_">
			<path id="XMLID_114_" class="st7" d="M139.4,175.5c-0.1,0-0.3,0-0.4,0c-1.6-8.2-7.7-14.8-15.6-17c-4.2-13.7-16.9-23.6-31.9-23.6
				c-15,0-27.7,9.9-31.9,23.5c-8.1,2.2-14.3,8.8-15.9,17.1c-0.1,0-0.3,0-0.4,0c-7.2,0-13.1,5.9-13.1,13.1c0,7.2,5.9,13.1,13.1,13.1
				h96.2c7.2,0,13.1-5.9,13.1-13.1C152.5,181.4,146.6,175.5,139.4,175.5z"/>
			<path id="XMLID_108_" class="st7" d="M59.5,158.4c-1.8,10.7-0.1,15.9,1.8,20.2"/>
			<path id="XMLID_109_" class="st7" d="M139,175.5c-7.2,0-12.9,5-12.9,10.7"/>
		</g>
		<g id="XMLID_129_">
			<g id="XMLID_128_">
				<g id="XMLID_121_">
					<polygon class="st5" points="154.4,191.7 139.7,184.5 139,184.2 139.2,183.5 142.7,168.8 143.3,169.4 137.6,170.5 137.4,169.5 
						143.1,168.4 143.9,168.3 143.7,169 140.8,183.9 140.3,182.9 156.2,186.7 					"/>
				</g>
				<circle id="XMLID_126_" class="st5" cx="140.2" cy="183.7" r="2.3"/>
			</g>
			<g id="XMLID_130_">
				<g id="XMLID_132_">
					<polygon class="st5" points="182.7,186.7 198.7,182.9 198.1,183.9 195.2,169 195.1,168.3 195.8,168.4 201.5,169.5 201.4,170.5 
						195.6,169.4 196.2,168.8 199.8,183.5 199.9,184.2 199.2,184.5 184.5,191.7 					"/>
				</g>
				<circle id="XMLID_131_" class="st5" cx="198.7" cy="183.7" r="2.3"/>
			</g>
			<g id="XMLID_142_">
				<g id="XMLID_144_">
					<polygon class="st5" points="184.5,211.8 199.2,219 199.9,219.3 199.8,219.9 196.2,234.7 195.6,234.1 201.4,232.9 201.5,233.9 
						195.8,235.1 195.1,235.2 195.2,234.5 198.1,219.6 198.7,220.5 182.7,216.8 					"/>
				</g>
				<circle id="XMLID_143_" class="st5" cx="198.7" cy="219.7" r="2.3"/>
			</g>
			<g id="XMLID_133_">
				<g id="XMLID_137_">
					<polygon class="st5" points="156.2,216.8 140.3,220.5 140.8,219.6 143.7,234.5 143.9,235.2 143.1,235.1 137.4,233.9 
						137.6,232.9 143.3,234.1 142.7,234.7 139.2,219.9 139,219.3 139.7,219 154.4,211.8 					"/>
				</g>
				<circle id="XMLID_136_" class="st5" cx="140.2" cy="219.7" r="2.3"/>
			</g>
			<g id="XMLID_152_">
				<g id="XMLID_154_">
					<polygon class="st5" points="187.7,194.6 206.2,201.8 206.8,202 206.8,202.5 208,217.4 207.4,216.9 214.5,215.8 214.7,216.8 
						207.6,217.9 207,218 207,217.5 205.2,202.7 205.8,203.4 186.3,199.7 					"/>
				</g>
				<ellipse id="XMLID_153_" class="st5" cx="205.8" cy="202.6" rx="2.9" ry="2.3"/>
			</g>
			<g id="XMLID_138_">
				<g id="XMLID_145_">
					<polygon class="st5" points="150.9,199.7 131.4,203.4 132,202.7 130.2,217.5 130.2,218 129.6,217.9 122.5,216.8 122.7,215.8 
						129.8,216.9 129.2,217.4 130.4,202.5 130.4,202 131,201.8 149.5,194.6 					"/>
				</g>
				<ellipse id="XMLID_139_" class="st5" cx="131.4" cy="202.6" rx="2.9" ry="2.3"/>
			</g>
			<circle id="XMLID_125_" class="st5" cx="169.1" cy="178" r="9.1"/>
			<path id="XMLID_127_" class="st12" d="M169.1,178c-13.5,0-24.4,10.9-24.4,24.4c0,12.5,9.4,22.7,21.4,24.2l3-14.3l3,14.3
				c12.1-1.5,21.4-11.7,21.4-24.2C193.5,188.9,182.6,178,169.1,178z"/>
		</g>
		<g id="XMLID_147_">
			<g id="XMLID_189_">
				<g id="XMLID_191_">
					<polygon class="st5" points="681.7,747.6 696.4,754.8 697.1,755.1 696.9,755.8 693.4,770.5 692.8,769.9 698.5,768.8 
						698.7,769.8 693,770.9 692.3,771 692.4,770.3 695.3,755.4 695.8,756.4 679.9,752.6 					"/>
				</g>
				<circle id="XMLID_190_" class="st5" cx="695.9" cy="755.6" r="2.3"/>
			</g>
			<g id="XMLID_184_">
				<g id="XMLID_186_">
					<polygon class="st5" points="653.4,752.6 637.5,756.4 638,755.4 640.9,770.3 641,771 640.3,770.9 634.6,769.8 634.8,768.8 
						640.5,769.9 639.9,770.5 636.4,755.8 636.2,755.1 636.9,754.8 651.6,747.6 					"/>
				</g>
				<circle id="XMLID_185_" class="st5" cx="637.4" cy="755.6" r="2.3"/>
			</g>
			<g id="XMLID_179_">
				<g id="XMLID_181_">
					<polygon class="st5" points="651.6,727.5 636.9,720.3 636.2,720 636.4,719.4 639.9,704.6 640.5,705.2 634.8,706.4 634.6,705.4 
						640.3,704.2 641,704.1 640.9,704.8 638,719.7 637.5,718.8 653.4,722.5 					"/>
				</g>
				<circle id="XMLID_180_" class="st5" cx="637.4" cy="719.6" r="2.3"/>
			</g>
			<g id="XMLID_174_">
				<g id="XMLID_176_">
					<polygon class="st5" points="679.9,722.5 695.8,718.8 695.3,719.7 692.4,704.8 692.3,704.1 693,704.2 698.7,705.4 698.5,706.4 
						692.8,705.2 693.4,704.6 696.9,719.4 697.1,720 696.4,720.3 681.7,727.5 					"/>
				</g>
				<circle id="XMLID_175_" class="st5" cx="695.9" cy="719.6" r="2.3"/>
			</g>
			<g id="XMLID_166_">
				<g id="XMLID_171_">
					<polygon class="st5" points="648.4,744.7 629.9,737.5 629.3,737.3 629.3,736.8 628.1,721.9 628.7,722.4 621.6,723.5 
						621.4,722.5 628.6,721.4 629.1,721.3 629.1,721.8 630.9,736.6 630.3,735.9 649.8,739.6 					"/>
				</g>
				<ellipse id="XMLID_167_" class="st5" cx="630.3" cy="736.7" rx="2.9" ry="2.3"/>
			</g>
			<g id="XMLID_157_">
				<g id="XMLID_163_">
					<polygon class="st5" points="685.2,739.6 704.7,735.9 704.1,736.6 705.9,721.8 706,721.3 706.5,721.4 713.6,722.5 713.4,723.5 
						706.3,722.4 706.9,721.9 705.8,736.8 705.7,737.3 705.2,737.5 686.7,744.7 					"/>
				</g>
				<ellipse id="XMLID_162_" class="st5" cx="704.7" cy="736.7" rx="2.9" ry="2.3"/>
			</g>
			<circle id="XMLID_156_" class="st5" cx="667" cy="761.3" r="9.1"/>
			<path id="XMLID_155_" class="st12" d="M667,761.3c13.5,0,24.4-10.9,24.4-24.4c0-12.5-9.4-22.7-21.4-24.2l-3,14.3l-3-14.3
				c-12.1,1.5-21.4,11.7-21.4,24.2C642.6,750.4,653.6,761.3,667,761.3z"/>
		</g>
		<g id="XMLID_211_">
			<path id="XMLID_203_" class="st7" d="M178.6,648.3h-52.1c-5.9,0-10.6-4.7-10.6-10.6v-84.4c0-5.9,4.7-10.6,10.6-10.6h52.1
				c5.9,0,10.6,4.7,10.6,10.6v84.4C189.2,643.6,184.5,648.3,178.6,648.3z"/>
			<rect id="XMLID_204_" x="115.9" y="560.7" class="st4" width="73.3" height="69.5"/>
			<g id="XMLID_205_">
				<g id="XMLID_206_">
					<polygon class="st14" points="165.7,582.4 141,610.2 137.9,607.1 					"/>
				</g>
				<g id="XMLID_208_">
					<polygon class="st14" points="140.9,581 165.7,608.7 138,583.9 					"/>
				</g>
			</g>
			<circle id="XMLID_210_" class="st5" cx="152.6" cy="552.3" r="3.2"/>
			<line id="XMLID_212_" class="st2" x1="143.2" y1="638.9" x2="161.9" y2="638.9"/>
		</g>
		<g id="XMLID_224_">
			<path id="XMLID_213_" class="st4" d="M466.7,325.2h-10.9l-6-41.2c-0.6-4.1,1.1-8.2,4.4-10.8l0,0c4.1-3.2,9.9-3.2,14.1,0l0,0
				c3.3,2.5,5,6.7,4.4,10.8L466.7,325.2z"/>
			<circle id="XMLID_223_" class="st4" cx="461.3" cy="342.3" r="8.4"/>
		</g>
		<g id="XMLID_226_">
			<path id="XMLID_228_" class="st4" d="M514.5,340.2l-7.7-7.7l24.9-33.3c2.5-3.3,6.6-5.1,10.7-4.5h0c5.2,0.7,9.3,4.8,9.9,9.9v0
				c0.5,4.1-1.2,8.2-4.5,10.7L514.5,340.2z"/>
			
				<ellipse id="XMLID_227_" transform="matrix(0.7071 -0.7071 0.7071 0.7071 -100.3703 454.5764)" class="st4" cx="498.5" cy="348.4" rx="8.4" ry="8.4"/>
		</g>
		<g id="XMLID_229_">
			<path id="XMLID_231_" class="st4" d="M517.2,387.3v-10.9l41.2-6c4.1-0.6,8.2,1.1,10.8,4.4v0c3.2,4.1,3.2,9.9,0,14.1v0
				c-2.5,3.3-6.7,5-10.8,4.4L517.2,387.3z"/>
			<circle id="XMLID_230_" class="st4" cx="500.1" cy="381.9" r="8.4"/>
		</g>
		<g id="XMLID_234_">
			
				<ellipse id="XMLID_225_" transform="matrix(0.7071 -0.7071 0.7071 0.7071 -491.0414 270.9841)" class="st24" cx="81.6" cy="728.2" rx="54.6" ry="54.6"/>
			
				<ellipse id="XMLID_232_" transform="matrix(0.7071 -0.7071 0.7071 0.7071 -491.0414 270.9841)" class="st7" cx="81.6" cy="728.2" rx="27.6" ry="27.6"/>
			
				<ellipse id="XMLID_233_" transform="matrix(0.7071 -0.7071 0.7071 0.7071 -491.0414 270.9841)" class="st7" cx="81.6" cy="728.2" rx="12.8" ry="12.8"/>
			<line id="XMLID_235_" class="st2" x1="101.1" y1="708.7" x2="113.2" y2="696.6"/>
			<line id="XMLID_236_" class="st2" x1="62.1" y1="747.7" x2="50" y2="759.8"/>
		</g>
		<g id="XMLID_246_">
			<g id="XMLID_238_">
				<path id="XMLID_241_" class="st25" d="M703.1,574.2c0-25.3-37.9-25.3-37.9,0c-2.9,0-5.8,0-8.7,0c0-36.9,55.3-36.9,55.3,0
					C708.9,574.2,706,574.2,703.1,574.2z"/>
				<path id="XMLID_240_" class="st26" d="M703.1,574.2c0-25.3-37.9-25.3-37.9,0c-2.9,0-5.8,0-8.7,0c0-36.9,55.3-36.9,55.3,0
					C708.9,574.2,706,574.2,703.1,574.2z"/>
			</g>
			<rect id="XMLID_239_" x="656.5" y="574.2" class="st10" width="8.7" height="36.4"/>
			<rect id="XMLID_243_" x="703.1" y="574.2" class="st10" width="8.7" height="36.4"/>
			<rect id="XMLID_237_" x="641.3" y="595.3" class="st13" width="85.7" height="62"/>
			<g id="XMLID_242_">
				<path id="XMLID_245_" class="st5" d="M690.6,619.9c0-3.6-2.9-6.5-6.5-6.5c-3.6,0-6.5,2.9-6.5,6.5c0,2.7,1.6,4.9,3.9,5.9
					l-3.9,13.3h6.5h6.5l-3.9-13.3C689,624.9,690.6,622.6,690.6,619.9z"/>
			</g>
			<rect id="XMLID_244_" x="641.3" y="641.3" class="st5" width="10.6" height="4.5"/>
			<rect id="XMLID_247_" x="641.3" y="634.6" class="st5" width="10.6" height="4.5"/>
			<rect id="XMLID_249_" x="716.4" y="641.3" class="st5" width="10.6" height="4.5"/>
			<rect id="XMLID_248_" x="716.4" y="634.6" class="st5" width="10.6" height="4.5"/>
			<rect id="XMLID_253_" x="641.3" y="620.1" class="st5" width="10.6" height="4.5"/>
			<rect id="XMLID_252_" x="641.3" y="613.4" class="st5" width="10.6" height="4.5"/>
			<rect id="XMLID_251_" x="716.4" y="620.1" class="st5" width="10.6" height="4.5"/>
			<rect id="XMLID_250_" x="716.4" y="613.4" class="st5" width="10.6" height="4.5"/>
		</g>
		<g id="XMLID_261_">
			<path id="XMLID_254_" class="st27" d="M11.8,585.2v-8.2c0-4.7,3.8-8.4,8.4-8.4h39.4v25.1H20.2C15.6,593.6,11.8,589.8,11.8,585.2z
				"/>
			
				<rect id="XMLID_258_" x="58.7" y="572.2" transform="matrix(-1.836970e-16 1 -1 -1.836970e-16 649.5339 512.5547)" class="st3" width="19.5" height="17.7"/>
			<g id="XMLID_259_">
				
					<rect id="XMLID_257_" x="72.3" y="574.2" transform="matrix(-1.836970e-16 1 -1 -1.836970e-16 651.5735 503.2533)" class="st5" width="3.7" height="6.3"/>
				
					<rect id="XMLID_260_" x="72.3" y="581.5" transform="matrix(-1.836970e-16 1 -1 -1.836970e-16 658.8353 510.5151)" class="st5" width="3.7" height="6.3"/>
			</g>
		</g>
	</g>
</g>
</svg>
