<?xml version="1.0" encoding="utf-8"?>
<!-- Generator: Adobe Illustrator 21.1.0, SVG Export Plug-In . SVG Version: 6.00 Build 0)  -->
<svg version="1.1" id="Objects" xmlns="http://www.w3.org/2000/svg" xmlns:xlink="http://www.w3.org/1999/xlink" x="0px" y="0px"
	 viewBox="0 0 708 800" style="enable-background:new 0 0 708 800;" xml:space="preserve">
<style type="text/css">
	.st0{fill:#ED1C24;stroke:#34508B;stroke-width:3;stroke-linecap:round;stroke-linejoin:round;stroke-miterlimit:10;}
	.st1{fill:#AEAEAF;stroke:#34508B;stroke-width:3;stroke-linecap:round;stroke-linejoin:round;stroke-miterlimit:10;}
	.st2{fill:#FFFFFF;stroke:#34508B;stroke-width:3;stroke-linecap:round;stroke-linejoin:round;stroke-miterlimit:10;}
	.st3{fill:#A5D996;stroke:#34508B;stroke-width:3;stroke-linecap:round;stroke-linejoin:round;stroke-miterlimit:10;}
	.st4{fill:#62C3EF;stroke:#34508B;stroke-width:3;stroke-linecap:round;stroke-linejoin:round;stroke-miterlimit:10;}
	.st5{fill:#F7AB6F;stroke:#34508B;stroke-width:3;stroke-linecap:round;stroke-linejoin:round;stroke-miterlimit:10;}
	.st6{fill:#C8EBFF;}
	.st7{fill:#C8EBFF;stroke:#34508B;stroke-width:3;stroke-linecap:round;stroke-linejoin:round;stroke-miterlimit:10;}
	.st8{fill:#FFFFFF;}
	.st9{fill:#34508B;}
	.st10{fill:#34508B;stroke:#34508B;stroke-width:3;stroke-linecap:round;stroke-linejoin:round;stroke-miterlimit:10;}
	.st11{fill:none;stroke:#34508B;stroke-width:3;stroke-linecap:round;stroke-linejoin:round;stroke-miterlimit:10;}
	.st12{fill:#E3E6E8;stroke:#34508B;stroke-width:3;stroke-linecap:round;stroke-linejoin:round;stroke-miterlimit:10;}
	.st13{fill:#C3C7C9;stroke:#34508B;stroke-width:3;stroke-linecap:round;stroke-linejoin:round;stroke-miterlimit:10;}
	.st14{fill:none;}
	.st15{fill:#FFFAAD;stroke:#34508B;stroke-width:3;stroke-linecap:round;stroke-linejoin:round;stroke-miterlimit:10;}
	.st16{fill:#F4E3AB;stroke:#122D59;stroke-width:2;stroke-miterlimit:10;}
	.st17{fill:#F5F5F5;stroke:#302D2D;stroke-width:2;stroke-linecap:round;stroke-linejoin:round;stroke-miterlimit:10;}
	.st18{fill:#F5F5F5;}
	.st19{fill:none;stroke:#302D2D;stroke-width:2;stroke-linecap:round;stroke-linejoin:round;stroke-miterlimit:10;}
	.st20{fill:#04C4D5;stroke:#302D2D;stroke-width:2;stroke-linecap:round;stroke-linejoin:round;stroke-miterlimit:10;}
	.st21{fill:#E7E3E4;}
</style>
<g id="XMLID_26_">
	<g id="XMLID_101_">
		<rect id="XMLID_103_" x="480.9" y="100.4" class="st0" width="175.3" height="113.7"/>
		<rect id="XMLID_102_" x="480.9" y="100.4" class="st0" width="175.3" height="113.7"/>
	</g>
	<rect id="XMLID_100_" x="480.9" y="111.6" class="st1" width="17.1" height="17.1"/>
	<rect id="XMLID_99_" x="480.9" y="128.7" class="st1" width="17.1" height="17.1"/>
	<rect id="XMLID_98_" x="480.9" y="145.7" class="st1" width="17.1" height="17.1"/>
	<rect id="XMLID_97_" x="480.9" y="162.8" class="st1" width="17.1" height="17.1"/>
	<rect id="XMLID_96_" x="480.9" y="179.8" class="st1" width="17.1" height="17.1"/>
	<rect id="XMLID_95_" x="480.9" y="196.9" class="st1" width="17.1" height="17.1"/>
	<rect id="XMLID_94_" x="480.9" y="100.4" class="st2" width="175.3" height="11.2"/>
	<rect id="XMLID_93_" x="621.1" y="100.4" class="st3" width="11.2" height="11.2"/>
	<rect id="XMLID_92_" x="633" y="100.4" class="st4" width="11.2" height="11.2"/>
	<rect id="XMLID_91_" x="644.8" y="100.4" class="st5" width="11.2" height="11.2"/>
	<g id="XMLID_28_">
		<g id="XMLID_29_">
			<rect id="XMLID_33_" x="538.5" y="142.2" class="st6" width="95.6" height="59.6"/>
			<rect id="XMLID_31_" x="538.5" y="142.2" class="st7" width="95.6" height="59.6"/>
		</g>
	</g>
	<g id="XMLID_27_">
		<g id="XMLID_70_">
			<path id="XMLID_90_" class="st8" d="M516.5,142.2L516.5,142.2c0-9.1,7.4-16.5,16.5-16.5h16.7c9.1,0,16.5,7.4,16.5,16.5v0
				c0,9.1-7.4,16.5-16.5,16.5H533C523.9,158.7,516.5,151.3,516.5,142.2z"/>
			<path id="XMLID_89_" class="st2" d="M516.5,142.2L516.5,142.2c0-9.1,7.4-16.5,16.5-16.5h16.7c9.1,0,16.5,7.4,16.5,16.5v0
				c0,9.1-7.4,16.5-16.5,16.5H533C523.9,158.7,516.5,151.3,516.5,142.2z"/>
		</g>
	</g>
	<g id="XMLID_34_">
		<circle id="XMLID_3_" class="st9" cx="528.9" cy="142.2" r="4.5"/>
		<circle id="XMLID_37_" class="st9" cx="541.4" cy="142.2" r="4.5"/>
		<circle id="XMLID_39_" class="st9" cx="553.8" cy="142.2" r="4.5"/>
	</g>
	<circle id="XMLID_41_" class="st4" cx="617" cy="155.7" r="6.8"/>
	<circle id="XMLID_104_" class="st5" cx="551.5" cy="181.5" r="6.8"/>
	<line id="XMLID_105_" class="st5" x1="577.8" y1="157.3" x2="600" y2="157.3"/>
	<line id="XMLID_106_" class="st5" x1="566.7" y1="179.8" x2="580.5" y2="179.8"/>
	<line id="XMLID_107_" class="st5" x1="586.3" y1="179.8" x2="600.1" y2="179.8"/>
	<line id="XMLID_108_" class="st5" x1="566.2" y1="188.3" x2="600.1" y2="188.3"/>
	<line id="XMLID_109_" class="st5" x1="607.5" y1="188.3" x2="610" y2="188.3"/>
</g>
<g id="XMLID_145_">
	<path id="XMLID_6_" class="st10" d="M583,619.3H289.5c-5.6,0-10.2-4.6-10.2-10.2V432.7c0-5.6,4.6-10.2,10.2-10.2H583
		c5.6,0,10.2,4.6,10.2,10.2v176.4C593.2,614.7,588.7,619.3,583,619.3z"/>
	<path id="XMLID_30_" class="st2" d="M279.3,589.8v16.9c0,7,5.6,12.6,12.6,12.6h288.7c7,0,12.6-5.6,12.6-12.6v-16.9H279.3z"/>
	<g id="XMLID_16_">
		<g id="XMLID_50_">
			<rect id="XMLID_55_" x="291.7" y="434.9" class="st8" width="289.1" height="142.5"/>
			<rect id="XMLID_54_" x="291.7" y="434.9" class="st11" width="289.1" height="142.5"/>
		</g>
		<g id="XMLID_35_">
			<rect id="XMLID_48_" x="291.7" y="434.9" class="st8" width="289.1" height="142.5"/>
			<rect id="XMLID_46_" x="291.7" y="434.9" class="st11" width="289.1" height="142.5"/>
		</g>
	</g>
	<rect id="XMLID_17_" x="307.2" y="384.5" class="st12" width="258.1" height="176.2"/>
	<g id="XMLID_117_">
		<g id="XMLID_75_">
			<rect id="XMLID_78_" x="319.6" y="396.9" class="st13" width="233.2" height="151.4"/>
			<rect id="XMLID_77_" x="319.6" y="396.9" class="st13" width="233.2" height="151.4"/>
		</g>
		<rect id="XMLID_79_" x="319.6" y="411.8" class="st1" width="22.7" height="22.7"/>
		<rect id="XMLID_81_" x="319.6" y="434.5" class="st1" width="22.7" height="22.7"/>
		<rect id="XMLID_113_" x="319.6" y="457.2" class="st1" width="22.7" height="22.7"/>
		<rect id="XMLID_114_" x="319.6" y="479.9" class="st1" width="22.7" height="22.7"/>
		<rect id="XMLID_115_" x="319.6" y="502.5" class="st1" width="22.7" height="22.7"/>
		<rect id="XMLID_116_" x="319.6" y="525.2" class="st1" width="22.7" height="22.7"/>
		<rect id="XMLID_76_" x="319.6" y="396.9" class="st2" width="233.2" height="14.9"/>
		<rect id="XMLID_80_" x="506.3" y="396.9" class="st3" width="14.9" height="14.9"/>
		<rect id="XMLID_118_" x="522" y="396.9" class="st4" width="14.9" height="14.9"/>
		<rect id="XMLID_119_" x="537.8" y="396.9" class="st5" width="14.9" height="14.9"/>
		<g id="XMLID_120_">
			<rect id="XMLID_123_" x="360.9" y="433.1" class="st8" width="173.3" height="96.5"/>
			<rect id="XMLID_122_" x="360.9" y="433.1" class="st2" width="173.3" height="96.5"/>
		</g>
		<polygon id="XMLID_125_" class="st2" points="388.2,478.4 375.3,481 378.6,484.3 376.4,488.1 378.4,490.1 382.3,487.9 
			385.6,491.2 		"/>
		<g id="XMLID_121_">
			<line id="XMLID_124_" class="st2" x1="390.2" y1="458.6" x2="383.4" y2="465.4"/>
			<line id="XMLID_126_" class="st2" x1="383.4" y1="458.6" x2="390.2" y2="465.4"/>
		</g>
		<path id="XMLID_128_" class="st2" d="M386.8,462h23.1c9.9,0,17.9,8,17.9,17.9v0c0,9.9,8,17.9,17.9,17.9h22.3"/>
	</g>
	<rect id="XMLID_24_" x="447.3" y="483.5" class="st0" width="118" height="77.2"/>
	<g id="XMLID_66_">
		<path id="XMLID_62_" class="st4" d="M518.7,541h-25c-5.2,0-9.5,4.2-9.5,9.5v10.3h43.9v-10.3C528.1,545.2,523.9,541,518.7,541z"/>
		<g id="XMLID_32_">
			<path id="XMLID_63_" class="st2" d="M509.6,547.9h-6.8c-1.6,0-2.9-1.3-2.9-2.9v-13h12.6v13C512.5,546.6,511.2,547.9,509.6,547.9z
				"/>
			<g id="XMLID_56_">
				<circle id="XMLID_57_" class="st2" cx="506.3" cy="520.3" r="16.3"/>
				<g id="XMLID_58_">
					<path id="XMLID_60_" class="st14" d="M506.3,541c-11.4,0-20.7-9.3-20.7-20.7c0-11.4,9.3-20.7,20.7-20.7s20.7,9.3,20.7,20.7
						C526.9,531.7,517.7,541,506.3,541z"/>
					<path id="XMLID_61_" class="st11" d="M485.6,520.3c0-11.4,9.3-20.7,20.7-20.7s20.7,9.3,20.7,20.7"/>
				</g>
				<path id="XMLID_59_" class="st5" d="M489.9,528.9h-3.6c-1.8,0-3.3-1.5-3.3-3.3v-5.3c0-1.8,1.5-3.3,3.3-3.3h3.6V528.9z"/>
				<path id="XMLID_64_" class="st5" d="M524.1,528.9h3.6c1.8,0,3.3-1.5,3.3-3.3v-5.3c0-1.8-1.5-3.3-3.3-3.3h-3.6V528.9z"/>
				<path id="XMLID_65_" class="st15" d="M503.2,508.6c6.2,0,14.5-0.4,20.9-10.2c0,0-19.1-2.1-24.5,1.2
					C494.2,502.9,497,508.6,503.2,508.6z"/>
			</g>
		</g>
	</g>
	<g id="XMLID_68_">
		<path id="XMLID_67_" class="st10" d="M501,523.3h-4.9c-1.3,0-2.4-1.1-2.4-2.4v-1.2c0-1.3,1.1-2.4,2.4-2.4h4.9
			c1.3,0,2.4,1.1,2.4,2.4v1.2C503.5,522.2,502.4,523.3,501,523.3z"/>
		<path id="XMLID_69_" class="st10" d="M516.3,523.3h-4.9c-1.3,0-2.4-1.1-2.4-2.4v-1.2c0-1.3,1.1-2.4,2.4-2.4h4.9
			c1.3,0,2.4,1.1,2.4,2.4v1.2C518.7,522.2,517.6,523.3,516.3,523.3z"/>
	</g>
	<line id="XMLID_74_" class="st11" x1="489.9" y1="520.3" x2="522.6" y2="520.3"/>
	<circle id="XMLID_73_" class="st9" cx="436.3" cy="604.6" r="5.6"/>
	<rect id="XMLID_136_" x="390" y="619.3" class="st2" width="92.6" height="23.1"/>
	<path id="XMLID_138_" class="st2" d="M498.6,653.2H374v-2.1c0-4.8,3.9-8.7,8.7-8.7h107.3c4.8,0,8.7,3.9,8.7,8.7V653.2z"/>
</g>
<line id="XMLID_141_" class="st10" x1="15.7" y1="653.2" x2="696.1" y2="653.2"/>
<line id="XMLID_144_" class="st10" x1="628.6" y1="614" x2="628.6" y2="722.2"/>
<g id="XMLID_5_">
	<g id="XMLID_216_">
		<rect id="XMLID_218_" x="347.1" y="195.8" class="st13" width="175.3" height="113.7"/>
		<rect id="XMLID_217_" x="347.1" y="195.8" class="st13" width="175.3" height="113.7"/>
	</g>
	<rect id="XMLID_215_" x="347.1" y="207" class="st1" width="17.1" height="17.1"/>
	<rect id="XMLID_214_" x="347.1" y="224.1" class="st1" width="17.1" height="17.1"/>
	<rect id="XMLID_213_" x="347.1" y="241.1" class="st1" width="17.1" height="17.1"/>
	<rect id="XMLID_212_" x="347.1" y="258.2" class="st1" width="17.1" height="17.1"/>
	<rect id="XMLID_211_" x="347.1" y="275.2" class="st1" width="17.1" height="17.1"/>
	<rect id="XMLID_210_" x="347.1" y="292.3" class="st1" width="17.1" height="17.1"/>
	<rect id="XMLID_204_" x="347.1" y="195.8" class="st2" width="175.3" height="11.2"/>
	<rect id="XMLID_203_" x="487.3" y="195.8" class="st3" width="11.2" height="11.2"/>
	<rect id="XMLID_197_" x="499.2" y="195.8" class="st4" width="11.2" height="11.2"/>
	<rect id="XMLID_196_" x="511" y="195.8" class="st5" width="11.2" height="11.2"/>
	<g id="XMLID_193_">
		<rect id="XMLID_195_" x="378.1" y="223.1" class="st0" width="130.3" height="72.5"/>
		<rect id="XMLID_194_" x="378.1" y="223.1" class="st0" width="130.3" height="72.5"/>
	</g>
	<polygon id="XMLID_159_" class="st2" points="430.9,270.6 430.9,245.8 455.7,258.2 	"/>
</g>
<g id="XMLID_190_">
	<g id="XMLID_231_">
		<rect id="XMLID_233_" x="490.2" y="235.4" class="st13" width="175.3" height="113.7"/>
		<rect id="XMLID_232_" x="490.2" y="235.4" class="st13" width="175.3" height="113.7"/>
	</g>
	<rect id="XMLID_230_" x="490.2" y="246.6" class="st1" width="17.1" height="17.1"/>
	<rect id="XMLID_229_" x="490.2" y="263.7" class="st1" width="17.1" height="17.1"/>
	<rect id="XMLID_228_" x="490.2" y="280.7" class="st1" width="17.1" height="17.1"/>
	<rect id="XMLID_227_" x="490.2" y="297.8" class="st1" width="17.1" height="17.1"/>
	<rect id="XMLID_226_" x="490.2" y="314.8" class="st1" width="17.1" height="17.1"/>
	<rect id="XMLID_225_" x="490.2" y="331.9" class="st1" width="17.1" height="17.1"/>
	<rect id="XMLID_224_" x="490.2" y="235.4" class="st2" width="175.3" height="11.2"/>
	<rect id="XMLID_223_" x="630.4" y="235.4" class="st3" width="11.2" height="11.2"/>
	<rect id="XMLID_222_" x="642.2" y="235.4" class="st4" width="11.2" height="11.2"/>
	<rect id="XMLID_221_" x="654.1" y="235.4" class="st5" width="11.2" height="11.2"/>
	<g id="XMLID_189_">
		<g id="XMLID_192_">
			<rect id="XMLID_220_" x="525.8" y="260.7" class="st0" width="49.6" height="33"/>
			<rect id="XMLID_219_" x="525.8" y="260.7" class="st0" width="49.6" height="33"/>
		</g>
		<g id="XMLID_191_">
			<rect id="XMLID_235_" x="594.7" y="260.7" class="st8" width="49.6" height="33"/>
			<rect id="XMLID_234_" x="594.7" y="260.7" class="st2" width="49.6" height="33"/>
		</g>
		<g id="XMLID_239_">
			<rect id="XMLID_241_" x="525.8" y="303.6" class="st8" width="49.6" height="33"/>
			<rect id="XMLID_240_" x="525.8" y="303.6" class="st2" width="49.6" height="33"/>
		</g>
		<g id="XMLID_236_">
			<rect id="XMLID_238_" x="594.7" y="303.6" class="st8" width="49.6" height="33"/>
			<rect id="XMLID_237_" x="594.7" y="303.6" class="st2" width="49.6" height="33"/>
		</g>
	</g>
</g>
<g id="XMLID_1_">
	<path id="XMLID_36_" class="st0" d="M266.8,649.4H28.7l0-120.8c0-22.5,18.3-40.8,40.8-40.8H226c22.5,0,40.8,18.3,40.8,40.8
		L266.8,649.4z"/>
	<path id="XMLID_25_" class="st21" d="M137.3,491.1c8.2,12.5,25.1,29.1,57.9,29.1c17,0,30.3-5.3,39.6-15.8
		c-11.9-8.7-25.9-13.2-40.8-13.2H137.3z"/>
	<rect id="XMLID_23_" x="123.1" y="454.3" class="st15" width="49.3" height="43.6"/>
	<rect id="XMLID_22_" x="120.6" y="437.3" class="st15" width="54.2" height="34"/>
	<circle id="XMLID_21_" class="st15" cx="147.7" cy="366.1" r="84.3"/>
	<path id="XMLID_20_" class="st5" d="M217.3,377.2v13.5c0,2.8-1.4,5.4-3.6,6.9l-29.4,18.8c-4.9,3.1-11.1-2.8-11.1-9V407
		c0-4.4-3.3-8-7.4-8h-18.1h-18.1c-4.1,0-7.4,3.6-7.4,8v0.4c0,6.2-6.2,12.1-11.1,9l-29.4-18.8c-2.2-1.4-3.6-4-3.6-6.9v-13.5
		c0-4.4-3.3-8-7.4-8h0c-4.1,0-7.4,3.6-7.4,8V435c0,1.5,0.4,3,1.1,4.2L85.8,476c1.3,2.3,3.7,3.7,6.2,3.7h55.7h55.7
		c2.5,0,4.9-1.4,6.2-3.7l21.2-36.8c0.7-1.3,1.1-2.7,1.1-4.2v-57.8c0-4.4-3.3-8-7.4-8h0C220.6,369.3,217.3,372.8,217.3,377.2z"/>
	<path id="XMLID_19_" class="st5" d="M208.2,292.7l10.2,64.5h13.2c0,0,6-23.9,7.4-43.3C240.4,294.6,208.2,292.7,208.2,292.7z"/>
	<g id="XMLID_11_">
		<path id="XMLID_18_" class="st4" d="M90,381.5h30.2c3.4,0,6.5-1.5,8.7-4.1l8.9-10.8c1.6-2,2.5-4.5,2.5-7.1l0,0
			c0-5.2-3.5-9.7-8.6-10.9l-12.6-3c-8.8-2.1-18-1.8-26.6,1.1l-8.4,2.8c-5.6,1.8-8.8,7.6-7.4,13.3l2.5,10.2
			C80.3,378,84.8,381.5,90,381.5z"/>
		<path id="XMLID_15_" class="st4" d="M205.5,381.5h-30.2c-3.4,0-6.5-1.5-8.7-4.1l-8.9-10.8c-1.6-2-2.5-4.5-2.5-7.1l0,0
			c0-5.2,3.5-9.7,8.6-10.9l12.6-3c8.8-2.1,18-1.8,26.6,1.1l8.4,2.8c5.6,1.8,8.8,7.6,7.4,13.3l-2.5,10.2
			C215.1,378,210.6,381.5,205.5,381.5z"/>
		<g id="XMLID_12_">
			<path id="XMLID_14_" class="st6" d="M164.6,351.7c-3.6,0.9-6.1,4.1-6.1,7.8c0,0.3,0,0.6,0.1,0.9c19.2-0.9,36.3-4.3,47.7-9.4
				l-4.2-1.4c-4.6-1.5-9.4-2.3-14.2-2.3c-3.6,0-7.2,0.4-10.7,1.3L164.6,351.7z"/>
			<path id="XMLID_13_" class="st6" d="M137,360.4c0-0.3,0.1-0.6,0.1-0.9c0-3.7-2.5-6.9-6.1-7.8l-12.6-3c-8.2-2-16.8-1.6-24.8,1
				l-4.2,1.4C100.6,356.1,117.7,359.5,137,360.4z"/>
		</g>
	</g>
	<path id="XMLID_10_" class="st10" d="M147.7,354.6c3.2,0,5.8,2.6,5.8,5.8h1.8c0-0.3-0.1-0.6-0.1-1v0c0-3.4,1.5-6.5,4-8.6
		c-2.7-3.3-6.9-5.4-11.5-5.4c-4.6,0-8.8,2.1-11.5,5.4c2.5,2.1,4,5.2,4,8.6v0c0,0.3-0.1,0.6-0.1,1h1.8
		C141.9,357.3,144.5,354.6,147.7,354.6z"/>
	<rect id="XMLID_9_" x="219.2" y="357.3" class="st10" width="12.9" height="14.7"/>
	<rect id="XMLID_8_" x="133.3" y="412.3" class="st15" width="28.9" height="8.6"/>
	<path id="XMLID_112_" class="st21" d="M67.9,351.5c0,0.4,0.1,0.8,0.1,1.2l7.4,1l4-29.6c0.1-0.9,0.6-1.7,1.3-2.2
		c0.7-0.5,1.7-0.7,2.5-0.5c1,0.2,95.9,21.6,151.6,0.3c0.4-2.9,0.6-5.6,0.8-8c0.2-3.2-0.6-5.9-2.6-8.2l-10.1-1.4
		c-1.3-0.2-2.3-1.1-2.6-2.3c-0.3-1.2,0.1-2.4,1-3.2c-3.5-1.1-6.9-1.8-9.5-2.2l2.1,13.6c0.2,1.4-0.5,2.8-1.8,3.4
		c-1.3,0.6-2.8,0.3-3.7-0.8C193.2,295,171,285,147.7,285C108.4,285,74.9,312.9,67.9,351.5z"/>
	<path id="XMLID_7_" class="st5" d="M65,357.3h13.2v-33c0,0,140.1,12.6,177.3-42.4h-40.9l13.8-14c0,0-124.7-21.6-149.5,17.9
		c0,0-22.7,8.9-21.3,28.3C59,333.3,65,357.3,65,357.3z"/>
	<rect id="XMLID_4_" x="63.4" y="357.3" class="st10" width="12.9" height="14.7"/>
	<path id="XMLID_2_" class="st11" d="M78.9,285.7c-3.6,6.4-2.6,13.3-2.6,13.3"/>
</g>
<g id="XMLID_43_">
	<polygon id="XMLID_45_" class="st2" points="83.2,137.1 153.2,123.8 81.2,155.2 	"/>
	<polygon id="XMLID_44_" class="st2" points="86.4,154.2 92.9,158.6 153.2,123.8 	"/>
</g>
<g id="XMLID_38_">
	<polygon id="XMLID_42_" class="st2" points="337.7,71.3 267.7,84.6 346.1,87.4 	"/>
	<polygon id="XMLID_40_" class="st2" points="340.9,88.4 336.5,94.9 267.7,84.6 	"/>
</g>
</svg>
