<?xml version="1.0" encoding="utf-8"?>
<!-- Generator: Adobe Illustrator 21.1.0, SVG Export Plug-In . SVG Version: 6.00 Build 0)  -->
<svg version="1.1" id="Objects" xmlns="http://www.w3.org/2000/svg" xmlns:xlink="http://www.w3.org/1999/xlink" x="0px" y="0px"
	 viewBox="0 0 800 800" style="enable-background:new 0 0 800 800;" xml:space="preserve">
<style type="text/css">
	.st0{fill:none;stroke:#34508B;stroke-width:3;stroke-linecap:round;stroke-linejoin:round;stroke-miterlimit:10;}
	.st1{fill:#34508B;}
	.st2{fill:#ED1C24;stroke:#34508B;stroke-width:3;stroke-linecap:round;stroke-linejoin:round;stroke-miterlimit:10;}
	.st3{fill:#E7E3E4;}
	.st4{fill:#FFFAAD;stroke:#34508B;stroke-width:3;stroke-linecap:round;stroke-linejoin:round;stroke-miterlimit:10;}
	.st5{fill:#F7AB6F;stroke:#34508B;stroke-width:3;stroke-linecap:round;stroke-linejoin:round;stroke-miterlimit:10;}
	.st6{fill:#62C3EF;stroke:#34508B;stroke-width:3;stroke-linecap:round;stroke-linejoin:round;stroke-miterlimit:10;}
	.st7{fill:#C8EBFF;}
	.st8{fill:#34508B;stroke:#34508B;stroke-width:3;stroke-linecap:round;stroke-linejoin:round;stroke-miterlimit:10;}
	.st9{fill:#FFFFFF;stroke:#34508B;stroke-width:3;stroke-linecap:round;stroke-linejoin:round;stroke-miterlimit:10;}
	.st10{fill:#C8EBFF;stroke:#34508B;stroke-width:3;stroke-linecap:round;stroke-linejoin:round;stroke-miterlimit:10;}
	.st11{fill:#F5FBFF;}
	.st12{fill:#F5FBFF;stroke:#34508B;stroke-width:3;stroke-linecap:round;stroke-linejoin:round;stroke-miterlimit:10;}
	.st13{fill:#A5D996;stroke:#34508B;stroke-width:3;stroke-linecap:round;stroke-linejoin:round;stroke-miterlimit:10;}
	.st14{fill:#A5D996;stroke:#FFFFFF;stroke-width:3;stroke-linecap:round;stroke-linejoin:round;stroke-miterlimit:10;}
	.st15{fill:none;stroke:#FFFFFF;stroke-width:3;stroke-linecap:round;stroke-linejoin:round;stroke-miterlimit:10;}
	.st16{font-family:'ArialMT';}
	.st17{font-size:104.064px;}
	.st18{font-family:'BerlinSansFBDemi-Bold';}
	.st19{font-size:28.6357px;}
	.st20{fill:none;stroke:#34508B;stroke-width:3;stroke-linecap:round;stroke-linejoin:round;stroke-dasharray:0,12.5299;}
	.st21{fill:#FE96CC;stroke:#34508B;stroke-width:3;stroke-linecap:round;stroke-linejoin:round;stroke-miterlimit:10;}
	.st22{fill:#3BDDBA;stroke:#34508B;stroke-width:3;stroke-linecap:round;stroke-linejoin:round;stroke-miterlimit:10;}
	.st23{fill:none;}
	.st24{fill:#DCDEE0;stroke:#34508B;stroke-width:3;stroke-linecap:round;stroke-linejoin:round;stroke-miterlimit:10;}
	.st25{fill:#FF6AA9;stroke:#34508B;stroke-width:3;stroke-linecap:round;stroke-linejoin:round;stroke-miterlimit:10;}
	.st26{fill:none;stroke:#FF64BD;stroke-width:2;stroke-linecap:round;stroke-linejoin:round;stroke-miterlimit:10;}
	.st27{fill:none;stroke:#22ABFF;stroke-width:2;stroke-linecap:round;stroke-linejoin:round;stroke-miterlimit:10;}
	.st28{fill:none;stroke:#FFBD66;stroke-width:2;stroke-linecap:round;stroke-linejoin:round;stroke-miterlimit:10;}
</style>
<line id="XMLID_25_" class="st0" x1="114.5" y1="836.6" x2="160.1" y2="836.6"/>
<line id="XMLID_27_" class="st0" x1="-46.9" y1="836.6" x2="76.2" y2="836.6"/>
<line id="XMLID_26_" class="st0" x1="673.1" y1="860.6" x2="885.5" y2="860.6"/>
<circle id="XMLID_33_" class="st1" cx="163" cy="836.2" r="4.8"/>
<g id="XMLID_107_">
	<path id="XMLID_92_" class="st2" d="M756.1,622.8H622.7l0-49.7c0-22.5,18.3-40.8,40.8-40.8h51.8c22.5,0,40.8,18.3,40.8,40.8V622.8z
		"/>
	<path id="XMLID_121_" class="st3" d="M683.5,534.1c4.6,7,14.1,16.3,32.4,16.3c9.5,0,17-3,22.2-8.9c-6.7-4.8-14.5-7.4-22.8-7.4
		H683.5z"/>
	<rect id="XMLID_105_" x="675.6" y="513.5" class="st4" width="27.6" height="24.4"/>
	<rect id="XMLID_93_" x="674.2" y="504" class="st4" width="30.4" height="19.1"/>
	<circle id="XMLID_90_" class="st4" cx="689.4" cy="464.1" r="47.2"/>
	<path id="XMLID_99_" class="st5" d="M728.4,470.3v7.6c0,1.6-0.8,3-2,3.8l-16.5,10.5c-2.7,1.8-6.2-1.6-6.2-5V487
		c0-2.5-1.8-4.5-4.1-4.5h-10.1h-10.1c-2.3,0-4.1,2-4.1,4.5v0.2c0,3.5-3.5,6.8-6.2,5l-16.5-10.5c-1.3-0.8-2-2.3-2-3.8v-7.6
		c0-2.5-1.8-4.5-4.1-4.5l0,0c-2.3,0-4.1,2-4.1,4.5v32.4c0,0.8,0.2,1.7,0.6,2.4l11.9,20.6c0.8,1.3,2.1,2.1,3.5,2.1h31.2h31.2
		c1.4,0,2.7-0.8,3.5-2.1L736,505c0.4-0.7,0.6-1.5,0.6-2.4v-32.4c0-2.5-1.8-4.5-4.1-4.5l0,0C730.2,465.8,728.4,467.8,728.4,470.3z"/>
	<path id="XMLID_102_" class="st5" d="M723.3,423l5.7,36.2h7.4c0,0,3.3-13.4,4.1-24.3C741.3,424,723.3,423,723.3,423z"/>
	<g id="XMLID_98_">
		<path id="XMLID_95_" class="st6" d="M657.1,472.7H674c1.9,0,3.7-0.8,4.8-2.3l5-6c0.9-1.1,1.4-2.5,1.4-4l0,0c0-2.9-2-5.4-4.8-6.1
			l-7.1-1.7c-4.9-1.2-10.1-1-14.9,0.6l-4.7,1.5c-3.1,1-4.9,4.3-4.1,7.5l1.4,5.7C651.6,470.7,654.2,472.7,657.1,472.7z"/>
		<path id="XMLID_100_" class="st6" d="M721.7,472.7h-16.9c-1.9,0-3.7-0.8-4.8-2.3l-5-6c-0.9-1.1-1.4-2.5-1.4-4l0,0
			c0-2.9,2-5.4,4.8-6.1l7.1-1.7c4.9-1.2,10.1-1,14.9,0.6l4.7,1.5c3.1,1,4.9,4.3,4.1,7.5l-1.4,5.7
			C727.2,470.7,724.6,472.7,721.7,472.7z"/>
		<g id="XMLID_119_">
			<path id="XMLID_116_" class="st7" d="M698.8,456c-2,0.5-3.4,2.3-3.4,4.4c0,0.2,0,0.3,0,0.5c10.8-0.5,20.3-2.4,26.7-5.3l-2.3-0.8
				c-2.6-0.8-5.3-1.3-7.9-1.3c-2,0-4,0.2-6,0.7L698.8,456z"/>
			<path id="XMLID_128_" class="st7" d="M683.4,460.9c0-0.2,0-0.3,0-0.5c0-2.1-1.4-3.9-3.4-4.4l-7.1-1.7c-4.6-1.1-9.4-0.9-13.9,0.6
				l-2.3,0.8C663,458.5,672.6,460.4,683.4,460.9z"/>
		</g>
	</g>
	<path id="XMLID_106_" class="st8" d="M689.4,457.7c1.8,0,3.3,1.5,3.3,3.3h1c0-0.2,0-0.4,0-0.5v0c0-1.9,0.9-3.6,2.2-4.8
		c-1.5-1.9-3.9-3-6.5-3c-2.6,0-4.9,1.2-6.5,3c1.4,1.2,2.2,2.9,2.2,4.8v0c0,0.2,0,0.4,0,0.5h1C686.1,459.1,687.6,457.7,689.4,457.7z"
		/>
	<rect id="XMLID_104_" x="729.4" y="459.1" class="st8" width="7.2" height="8.2"/>
	<rect id="XMLID_103_" x="681.3" y="490" class="st4" width="16.2" height="4.8"/>
	<path id="XMLID_112_" class="st3" d="M644.7,455.9c0,0.2,0,0.4,0.1,0.6l4.1,0.6l2.3-16.6c0.1-0.5,0.3-0.9,0.8-1.2
		c0.4-0.3,0.9-0.4,1.4-0.3c0.5,0.1,53.7,12.1,84.9,0.2c0.2-1.6,0.3-3.1,0.4-4.5c0.1-1.8-0.3-3.3-1.4-4.6l-5.6-0.8
		c-0.7-0.1-1.3-0.6-1.5-1.3c-0.2-0.7,0-1.4,0.6-1.8c-2-0.6-3.9-1-5.3-1.2l1.2,7.6c0.1,0.8-0.3,1.6-1,1.9c-0.7,0.3-1.6,0.2-2.1-0.4
		c-8.6-9.8-21.1-15.4-34.1-15.4C667.4,418.6,648.6,434.3,644.7,455.9z"/>
	<path id="XMLID_94_" class="st5" d="M643.1,459.1h7.4v-18.5c0,0,78.5,7.1,99.3-23.8h-22.9l7.7-7.9c0,0-69.9-12.1-83.8,10
		c0,0-12.7,5-11.9,15.9C639.7,445.7,643.1,459.1,643.1,459.1z"/>
	<rect id="XMLID_101_" x="642.2" y="459.1" class="st8" width="7.2" height="8.2"/>
	<path id="XMLID_117_" class="st0" d="M650.8,419c-2,3.6-1.5,7.5-1.5,7.5"/>
</g>
<path id="XMLID_2_" class="st9" d="M432.9,562.8h-203c-9.3,0-16.8-7.5-16.8-16.8V416.6c0-9.3,7.5-16.8,16.8-16.8h203
	c9.3,0,16.8,7.5,16.8,16.8V546C449.8,555.3,442.2,562.8,432.9,562.8z"/>
<path id="XMLID_6_" class="st10" d="M213.1,532.3V546c0,9.3,7.5,16.8,16.8,16.8h203c9.3,0,16.8-7.5,16.8-16.8v-13.7H213.1z"/>
<rect id="XMLID_5_" x="308.4" y="562.8" class="st9" width="43" height="25"/>
<path id="XMLID_16_" class="st9" d="M361.7,595.7h-63.6c-2.2,0-3.9-1.8-3.9-3.9v0c0-2.2,1.8-3.9,3.9-3.9h63.6c2.2,0,3.9,1.8,3.9,3.9
	v0C365.7,593.9,363.9,595.7,361.7,595.7z"/>
<g id="XMLID_64_">
	<rect id="XMLID_71_" x="225" y="411.7" class="st11" width="212.9" height="108.7"/>
	<rect id="XMLID_70_" x="225" y="411.7" class="st12" width="212.9" height="108.7"/>
</g>
<rect id="XMLID_56_" x="24.3" y="595.7" class="st3" width="816.8" height="32.7"/>
<line id="XMLID_32_" class="st0" x1="16.4" y1="595.7" x2="849" y2="595.7"/>
<line id="XMLID_35_" class="st0" x1="-69.2" y1="659.4" x2="311.5" y2="659.4"/>
<line id="XMLID_113_" class="st0" x1="481.9" y1="659.4" x2="694.3" y2="659.4"/>
<line id="XMLID_114_" class="st0" x1="796.8" y1="671.3" x2="849" y2="671.3"/>
<line id="XMLID_162_" class="st0" x1="385.1" y1="308.6" x2="869.2" y2="308.6"/>
<path id="XMLID_46_" class="st13" d="M245.7,642.1H112.3v-78.3c0-22.5,18.3-40.8,40.8-40.8h51.8c22.5,0,40.8,18.3,40.8,40.8V642.1z"
	/>
<rect id="XMLID_69_" x="225" y="411.7" class="st2" width="212.9" height="37.8"/>
<circle id="XMLID_72_" class="st14" cx="253.2" cy="430.6" r="7.9"/>
<line id="XMLID_74_" class="st15" x1="281.8" y1="426.3" x2="295.7" y2="426.3"/>
<line id="XMLID_75_" class="st15" x1="281.8" y1="435.6" x2="327.1" y2="435.6"/>
<g id="XMLID_78_">
	<g id="XMLID_76_">
		<rect id="XMLID_73_" x="290.6" y="470" class="st9" width="48.2" height="36.3"/>
		<rect id="XMLID_77_" x="290.6" y="464.1" class="st5" width="48.2" height="16.4"/>
	</g>
	<g id="XMLID_79_">
		<rect id="XMLID_81_" x="364" y="470" class="st9" width="48.2" height="36.3"/>
		<rect id="XMLID_80_" x="364" y="464.1" class="st6" width="48.2" height="16.4"/>
	</g>
</g>
<rect id="XMLID_87_" x="310.2" y="564.6" class="st3" width="39.4" height="5"/>
<circle id="XMLID_62_" class="st9" cx="331.4" cy="547.5" r="5.7"/>
<rect id="XMLID_89_" x="226.8" y="413.4" class="st3" width="209.3" height="6.8"/>
<rect id="XMLID_67_" x="243.7" y="581.6" class="st13" width="46.9" height="20.3"/>
<path id="XMLID_82_" class="st4" d="M307.3,581.6h-16.7v14.1h30.7v-0.1C321.3,587.9,315,581.6,307.3,581.6z"/>
<g id="XMLID_83_">
	<path id="XMLID_30_" class="st2" d="M267.3,659.4H90.7l19.1-89.3c2.9-13.5,18.1-23.4,35.8-23.4h66.6c17.8,0,32.9,9.9,35.8,23.4
		L267.3,659.4z"/>
	<path id="XMLID_86_" class="st3" d="M105.4,657.6h6.4l16.3-77.1c0,0,0,0,0,0c1.9-8.6,13.2-15.4,25.9-15.4h66.6
		c3.4,0,6.8,0.5,10,1.4c-4.2-3.7-11.1-6.2-18.3-6.2h-66.6c-10.9,0-21,5.6-22.4,12.6L105.4,657.6z"/>
	<line id="XMLID_59_" class="st0" x1="253.4" y1="659.4" x2="240.6" y2="599.1"/>
	<g id="XMLID_58_">
		<path id="XMLID_63_" class="st0" d="M120.6,583.9l2.1-9.8c1.7-7.7,12.1-13.7,23.8-13.7"/>
	</g>
</g>
<path id="XMLID_84_" class="st9" d="M707,587.8H491.6v0c0,4.4,3.5,7.9,7.9,7.9h199.6C703.4,595.7,707,592.1,707,587.8L707,587.8z"/>
<path id="XMLID_85_" class="st10" d="M676.9,488.2H521.6c-6.9,0-12.6,5.6-12.6,12.6v95h180.4v-95
	C689.5,493.8,683.9,488.2,676.9,488.2z"/>
<circle id="XMLID_88_" class="st9" cx="599.3" cy="546.6" r="8.7"/>
<path id="XMLID_96_" class="st3" d="M599.3,539.7c-3.2,0-5.9,2.2-6.7,5.1c1.9-1.5,4.2-2.4,6.7-2.4c2.5,0,4.9,0.9,6.7,2.4
	C605.2,541.9,602.5,539.7,599.3,539.7z"/>
<path id="XMLID_97_" class="st3" d="M687.7,593.9v-93.2c0-5.7-4.4-10.4-10-10.7c3,2.6,4.8,6.5,4.8,10.7v93.2H687.7z"/>
<path id="XMLID_91_" class="st3" d="M510.9,593.9v-93.2c0-5.7,4.4-10.4,10-10.7c-3,2.6-4.8,6.5-4.8,10.7v93.2H510.9z"/>
<text id="XMLID_108_" transform="matrix(1 0 0 1 339.0432 690.212)" class="st1 st16 st17">C#</text>
<text id="XMLID_161_" transform="matrix(1 0 0 1 393.7936 301.1842)" class="st1 st18 st19">24h</text>
<line id="XMLID_115_" class="st0" x1="729.4" y1="568.5" x2="729.4" y2="595.7"/>
<g id="XMLID_124_">
	<rect id="XMLID_111_" x="51.6" y="553.2" class="st9" width="35.3" height="42.4"/>
	<rect id="XMLID_127_" x="80.6" y="555" class="st3" width="4.6" height="38.9"/>
	<g id="XMLID_118_">
		<path id="XMLID_123_" class="st13" d="M69.2,495.2L58,520c-4.1,9-3.7,19.4,1.1,28.1l2.8,5.1h7.3h7.3l2.8-5.1
			c4.7-8.7,5.1-19.1,1.1-28.1L69.2,495.2z"/>
		<line id="XMLID_120_" class="st0" x1="69.2" y1="553.2" x2="69.2" y2="526.4"/>
		<line id="XMLID_122_" class="st0" x1="69.2" y1="537.3" x2="74.5" y2="532"/>
	</g>
</g>
<g id="XMLID_132_">
	<circle id="XMLID_125_" class="st2" cx="113.9" cy="312.8" r="38.1"/>
	<circle id="XMLID_126_" class="st9" cx="113.9" cy="312.8" r="26.8"/>
	<line id="XMLID_130_" class="st9" x1="113.9" y1="312.8" x2="113.9" y2="299.1"/>
	<line id="XMLID_131_" class="st9" x1="113.9" y1="312.8" x2="120.7" y2="312.8"/>
	<g id="XMLID_129_">
		<circle class="st20" cx="113.9" cy="312.8" r="19.9"/>
	</g>
</g>
<path id="XMLID_133_" class="st9" d="M761.8,582.1h-10.4c-5,0-9.1,4.1-9.1,9.1v4.5h28.6v-4.5C770.9,586.1,766.8,582.1,761.8,582.1z"
	/>
<path id="XMLID_134_" class="st4" d="M742.9,587.8h27.3v-2.2c0-4.4-3.6-8-8-8H751c-4.4,0-8,3.6-8,8V587.8z"/>
<g id="XMLID_142_">
	<rect id="XMLID_140_" x="424" y="509" class="st21" width="8.6" height="49.3"/>
	<path id="XMLID_141_" class="st9" d="M428.3,500L428.3,500c-2.4,0-4.3,1.9-4.3,4.3v4.7h8.6v-4.7C432.7,502,430.7,500,428.3,500z"/>
	<polygon id="XMLID_143_" class="st9" points="424,558.3 428.3,564.6 432.7,558.3 	"/>
</g>
<g id="XMLID_146_">
	
		<rect id="XMLID_149_" x="448.2" y="508.4" transform="matrix(0.9724 0.2332 -0.2332 0.9724 136.7764 -90.823)" class="st22" width="8.6" height="49.3"/>
	<path id="XMLID_148_" class="st9" d="M460.4,500.4L460.4,500.4c-1.4-0.3-2.8,0.5-3.2,1.9l-1.5,6.2l5.1,1.2l1.5-6.2
		C462.6,502.1,461.8,500.7,460.4,500.4z"/>
	<polygon id="XMLID_147_" class="st9" points="442.6,556 445.3,563.1 451,558.1 	"/>
	<polyline id="XMLID_144_" class="st0" points="461.5,514.1 466,515.1 461,536 	"/>
</g>
<g id="XMLID_137_">
	<rect id="XMLID_135_" x="419.6" y="555.4" class="st6" width="41.7" height="40.3"/>
	<path id="XMLID_136_" class="st6" d="M462.1,547.5h-43.4c-2.2,0-3.9,1.7-3.9,3.9l0,0c0,2.2,1.7,3.9,3.9,3.9h43.4
		c2.2,0,3.9-1.7,3.9-3.9l0,0C466,549.3,464.3,547.5,462.1,547.5z"/>
	<rect id="XMLID_145_" x="421.3" y="557.1" class="st3" width="38.1" height="3.7"/>
</g>
<g id="XMLID_153_">
	<path id="XMLID_150_" class="st10" d="M163,697.1H82.3c-5.8,0-10.4,4.7-10.4,10.4v32c0,5.8,4.7,10.4,10.4,10.4H163
		c5.8,0,10.4-4.7,10.4-10.4v-32C173.4,701.8,168.8,697.1,163,697.1z"/>
	<rect id="XMLID_151_" x="90.6" y="703.4" class="st12" width="64.1" height="40.4"/>
	<circle id="XMLID_152_" class="st9" cx="163.5" cy="723.6" r="3.3"/>
	<line id="XMLID_154_" class="st0" x1="81.1" y1="732.8" x2="81.1" y2="714.3"/>
</g>
<polyline id="XMLID_155_" class="st0" points="122.7,730.4 122.7,760.2 210,760.2 210,725.6 "/>
<circle id="XMLID_156_" class="st1" cx="122.7" cy="730.4" r="4.8"/>
<circle id="XMLID_163_" class="st1" cx="382.6" cy="308.6" r="4.8"/>
<circle id="XMLID_165_" class="st1" cx="314.7" cy="659.4" r="4.8"/>
<path id="XMLID_170_" class="st9" d="M592.2,425.4c15.7,0,28.4,10.8,28.4,24c0,0.4,0,0.7,0,1.1l14.1,7.1l-16.4,1.3
	c-4.4,8.6-14.4,14.6-26.1,14.6c-15.7,0-28.4-10.8-28.4-24C563.8,436.2,576.5,425.4,592.2,425.4z"/>
<g id="XMLID_168_">
	<ellipse id="XMLID_157_" class="st1" cx="604.2" cy="450.3" rx="3.1" ry="2.6"/>
	<ellipse id="XMLID_169_" class="st1" cx="592.1" cy="450.3" rx="3.1" ry="2.6"/>
	<ellipse id="XMLID_171_" class="st1" cx="579.9" cy="450.3" rx="3.1" ry="2.6"/>
</g>
<g id="XMLID_54_">
	<path id="XMLID_48_" class="st6" d="M127.7,486.4L127.7,486.4c-2.5,0-4.6-2-4.6-4.6v-19.5c0-2.5,2-4.6,4.6-4.6h0
		c2.5,0,4.6,2,4.6,4.6v19.5C132.3,484.3,130.2,486.4,127.7,486.4z"/>
	<path id="XMLID_55_" class="st6" d="M230.3,486.4L230.3,486.4c-2.5,0-4.6-2-4.6-4.6v-19.5c0-2.5,2-4.6,4.6-4.6l0,0
		c2.5,0,4.6,2,4.6,4.6v19.5C234.9,484.3,232.8,486.4,230.3,486.4z"/>
</g>
<path id="XMLID_50_" class="st5" d="M179,411.7c-6.3,0-12.4,1.2-18,3.3c-5-3.9-9-5.5-9-5.5c2.8,1.7,3.4,5.6,3.4,8
	c-0.7,0.4-1.4,0.7-2,1.1l-4.8-2v5.1c-12.4,9.3-20.4,30-20.4,46.7c0,28.1,22.7,44.9,50.8,44.9s50.8-16.8,50.8-44.9
	C229.8,440.4,207.1,411.7,179,411.7z"/>
<rect id="XMLID_17_" x="163.8" y="504" class="st4" width="30.4" height="19.1"/>
<path id="XMLID_57_" class="st0" d="M154.2,432.1c0,0-1.1,5.6,2.1,7.1l3.6-6.7"/>
<g id="XMLID_60_">
	<path id="XMLID_61_" class="st3" d="M195.9,503.6c0,0.1,0,0.2,0,0.3v5.3c15.1-4.3,26.1-14.4,30.2-28.1
		C220.2,492.1,209.5,500,195.9,503.6z"/>
	<path id="XMLID_65_" class="st3" d="M162,504c0-0.1,0-0.2,0-0.3c-13.6-3.6-24.3-11.5-30.2-22.5c4.2,13.7,15.1,23.8,30.2,28.1V504z"
		/>
</g>
<path id="XMLID_173_" class="st0" d="M127.7,457.8v-9.3c0-28.4,23-51.5,51.5-51.5h0c28.4,0,51.5,23,51.5,51.5v9.3"/>
<path id="XMLID_172_" class="st0" d="M127.7,486.4v18.4c0,3.8,3.1,6.9,6.9,6.9h3.3"/>
<path id="XMLID_174_" class="st8" d="M144.9,516.7h-3.2c-2.1,0-3.7-1.7-3.7-3.7l0,0c0-2.1,1.7-3.7,3.7-3.7h3.2
	c2.1,0,3.7,1.7,3.7,3.7l0,0C148.6,515,147,516.7,144.9,516.7z"/>
<rect id="XMLID_1_" y="90" class="st23" width="800" height="800"/>
<path id="XMLID_7_" class="st24" d="M704.9,101.7V85.8h-8.4c-1.3-7.2-4.1-13.9-8.2-19.6l6.1-6.1l-11.3-11.3l-6.2,6.2
	c-5.7-4-12.3-6.8-19.4-8v-9h-15.9v9c-7.1,1.2-13.6,4-19.3,7.9l-6.5-6.5l-11.3,11.3l6.4,6.4c-4.1,5.6-6.9,12.2-8.2,19.3h-8.9v15.9
	h8.7c1.1,7.2,3.9,13.9,7.8,19.7l-6,6l11.3,11.3l5.9-5.9c5.7,4.2,12.5,7.2,19.8,8.5v8.2H657v-8c7.4-1.2,14.2-4,20-8.2l5.7,5.7
	l11.3-11.3l-5.7-5.7c4.1-5.8,7-12.6,8.2-19.9H704.9z M681.3,90.8h-21.6c-1-3.3-3.6-5.9-7-7V62.2C667.8,63.7,679.8,75.7,681.3,90.8z
	 M646.3,62.2v21.6c-3.3,1-5.9,3.6-7,7h-21.6C619.3,75.7,631.3,63.7,646.3,62.2z M617.8,97.2h21.6c1,3.3,3.6,5.9,7,7v21.6
	C631.3,124.2,619.3,112.2,617.8,97.2z M652.7,125.7v-21.6c3.3-1,5.9-3.6,7-7h21.6C679.8,112.2,667.8,124.2,652.7,125.7z"/>
<path id="XMLID_3_" class="st24" d="M777.9,200.2V187H769c-0.6-2.7-1.6-5.2-3-7.5l6.2-6.2l-9.3-9.3l-6.1,6.1
	c-2.3-1.4-4.9-2.5-7.6-3.2v-8.6H736v8.6c-2.7,0.7-5.3,1.8-7.6,3.2l-6.1-6.1l-9.3,9.3l6.2,6.2c-1.4,2.3-2.4,4.8-3,7.5h-8.9v13.2h9.1
	c0.7,2.6,1.7,5,3.1,7.2l-6.5,6.5l9.3,9.3l6.6-6.6c2.2,1.3,4.6,2.3,7.1,2.9v9.4h13.2v-9.4c2.5-0.6,4.9-1.6,7.1-2.9l6.6,6.6l9.3-9.3
	l-6.5-6.5c1.4-2.2,2.4-4.6,3.1-7.2H777.9z M742.6,201.8c-4.7,0-8.5-3.8-8.5-8.5c0-4.7,3.8-8.5,8.5-8.5c4.7,0,8.5,3.8,8.5,8.5
	C751.1,197.9,747.3,201.8,742.6,201.8z"/>
<g id="XMLID_15_">
	<path id="XMLID_22_" class="st9" d="M262.4,214.7c0.2,0,0.4,0,0.6,0c2.3-11.8,11-21.2,22.4-24.4c6-19.6,24.3-33.9,45.9-33.9
		c21.6,0,39.8,14.2,45.8,33.8c11.6,3.1,20.6,12.6,22.9,24.6c0.2,0,0.4,0,0.6,0c10.4,0,18.8,8.4,18.8,18.8c0,10.4-8.4,18.8-18.8,18.8
		H262.4c-10.4,0-18.8-8.4-18.8-18.8C243.5,223.2,252,214.7,262.4,214.7z"/>
	<path id="XMLID_21_" class="st9" d="M377,190.2c2.5,15.4,0.1,22.9-2.5,29"/>
	<path id="XMLID_19_" class="st9" d="M262.9,214.8c10.3,0,18.5,7.2,18.5,15.4"/>
</g>
<g id="XMLID_13_">
	<path id="XMLID_20_" class="st9" d="M68.7,93.5c0.1,0,0.2,0,0.4,0c1.4-7.4,6.9-13.3,14.1-15.4c3.8-12.3,15.3-21.3,28.8-21.3
		c13.5,0,25,8.9,28.8,21.2c7.3,2,12.9,7.9,14.4,15.4c0.1,0,0.2,0,0.4,0c6.5,0,11.8,5.3,11.8,11.8c0,6.5-5.3,11.8-11.8,11.8H68.7
		c-6.5,0-11.8-5.3-11.8-11.8C56.8,98.8,62.1,93.5,68.7,93.5z"/>
	<path id="XMLID_18_" class="st9" d="M140.8,78.1c1.6,9.7,0,14.4-1.6,18.2"/>
	<path id="XMLID_14_" class="st9" d="M69,93.5c6.5,0,11.6,4.5,11.6,9.7"/>
</g>
<g id="XMLID_224_">
	<path id="XMLID_213_" class="st25" d="M142,260.8h-5.9l-3.2-22.3c-0.3-2.2,0.6-4.5,2.4-5.8l0,0c2.2-1.7,5.4-1.7,7.6,0l0,0
		c1.8,1.4,2.7,3.6,2.4,5.8L142,260.8z"/>
	<circle id="XMLID_223_" class="st25" cx="139.1" cy="270.1" r="4.6"/>
</g>
<g id="XMLID_226_">
	<path id="XMLID_228_" class="st25" d="M167.9,269l-4.2-4.2l13.5-18.1c1.4-1.8,3.6-2.7,5.8-2.5h0c2.8,0.4,5,2.6,5.4,5.4v0
		c0.3,2.2-0.6,4.5-2.5,5.8L167.9,269z"/>
	
		<ellipse id="XMLID_227_" transform="matrix(0.7071 -0.7071 0.7071 0.7071 -146.6944 192.7234)" class="st25" cx="159.3" cy="273.4" rx="4.6" ry="4.6"/>
</g>
<g id="XMLID_229_">
	<path id="XMLID_231_" class="st25" d="M169.4,294.5v-5.9l22.3-3.2c2.2-0.3,4.5,0.6,5.8,2.4l0,0c1.7,2.2,1.7,5.4,0,7.6l0,0
		c-1.4,1.8-3.6,2.7-5.8,2.4L169.4,294.5z"/>
	<circle id="XMLID_230_" class="st25" cx="160.1" cy="291.6" r="4.6"/>
</g>
<g id="XMLID_23_">
	<g id="XMLID_29_">
		<path id="XMLID_34_" class="st26" d="M558.8,293.7L558.8,293.7c-4.3,0-7.7-3.5-7.7-7.7V276l-8.3-3.9l8.3-3.9v-9.9
			c0-4.3,3.5-7.7,7.7-7.7l0,0"/>
		<path id="XMLID_31_" class="st26" d="M576.8,293.7L576.8,293.7c4.3,0,7.7-3.5,7.7-7.7V276l8.3-3.9l-8.3-3.9v-9.9
			c0-4.3-3.5-7.7-7.7-7.7l0,0"/>
	</g>
	<line id="XMLID_28_" class="st27" x1="537.8" y1="293.7" x2="510.4" y2="293.7"/>
	<line id="XMLID_24_" class="st28" x1="597.4" y1="293.7" x2="625.6" y2="250.4"/>
</g>
</svg>
