<?xml version="1.0" encoding="utf-8"?>
<!-- Generator: Adobe Illustrator 21.1.0, SVG Export Plug-In . SVG Version: 6.00 Build 0)  -->
<svg version="1.1" id="Objects" xmlns="http://www.w3.org/2000/svg" xmlns:xlink="http://www.w3.org/1999/xlink" x="0px" y="0px"
	 viewBox="0 0 706 690" style="enable-background:new 0 0 706 690;" xml:space="preserve">
<style type="text/css">
	.st0{fill:#ED1C24;stroke:#34508B;stroke-width:3;stroke-linecap:round;stroke-linejoin:round;stroke-miterlimit:10;}
	.st1{fill:#AEAEAF;stroke:#34508B;stroke-width:3;stroke-linecap:round;stroke-linejoin:round;stroke-miterlimit:10;}
	.st2{fill:#FFFFFF;stroke:#34508B;stroke-width:3;stroke-linecap:round;stroke-linejoin:round;stroke-miterlimit:10;}
	.st3{fill:#A5D996;stroke:#34508B;stroke-width:3;stroke-linecap:round;stroke-linejoin:round;stroke-miterlimit:10;}
	.st4{fill:#62C3EF;stroke:#34508B;stroke-width:3;stroke-linecap:round;stroke-linejoin:round;stroke-miterlimit:10;}
	.st5{fill:#F7AB6F;stroke:#34508B;stroke-width:3;stroke-linecap:round;stroke-linejoin:round;stroke-miterlimit:10;}
	.st6{fill:#C8EBFF;}
	.st7{fill:#C8EBFF;stroke:#34508B;stroke-width:3;stroke-linecap:round;stroke-linejoin:round;stroke-miterlimit:10;}
	.st8{fill:#FFFFFF;}
	.st9{fill:#34508B;}
	.st10{fill:#34508B;stroke:#34508B;stroke-width:3;stroke-linecap:round;stroke-linejoin:round;stroke-miterlimit:10;}
	.st11{fill:none;stroke:#34508B;stroke-width:3;stroke-linecap:round;stroke-linejoin:round;stroke-miterlimit:10;}
	.st12{fill:#E3E6E8;stroke:#34508B;stroke-width:3;stroke-linecap:round;stroke-linejoin:round;stroke-miterlimit:10;}
	.st13{fill:#C3C7C9;stroke:#34508B;stroke-width:3;stroke-linecap:round;stroke-linejoin:round;stroke-miterlimit:10;}
	.st14{fill:none;}
	.st15{fill:#FFFAAD;stroke:#34508B;stroke-width:3;stroke-linecap:round;stroke-linejoin:round;stroke-miterlimit:10;}
	.st16{fill:#F4E3AB;stroke:#122D59;stroke-width:2;stroke-miterlimit:10;}
	.st17{fill:#F5F5F5;stroke:#302D2D;stroke-width:2;stroke-linecap:round;stroke-linejoin:round;stroke-miterlimit:10;}
	.st18{fill:#F5F5F5;}
	.st19{fill:none;stroke:#302D2D;stroke-width:2;stroke-linecap:round;stroke-linejoin:round;stroke-miterlimit:10;}
	.st20{fill:#04C4D5;stroke:#302D2D;stroke-width:2;stroke-linecap:round;stroke-linejoin:round;stroke-miterlimit:10;}
	.st21{fill:#E7E3E4;}
</style>
<g id="XMLID_26_">
	<g id="XMLID_101_">
		<rect id="XMLID_103_" x="476.9" y="55.4" class="st0" width="175.3" height="113.7"/>
		<rect id="XMLID_102_" x="476.9" y="55.4" class="st0" width="175.3" height="113.7"/>
	</g>
	<rect id="XMLID_100_" x="476.9" y="66.6" class="st1" width="17.1" height="17.1"/>
	<rect id="XMLID_99_" x="476.9" y="83.7" class="st1" width="17.1" height="17.1"/>
	<rect id="XMLID_98_" x="476.9" y="100.7" class="st1" width="17.1" height="17.1"/>
	<rect id="XMLID_97_" x="476.9" y="117.8" class="st1" width="17.1" height="17.1"/>
	<rect id="XMLID_96_" x="476.9" y="134.8" class="st1" width="17.1" height="17.1"/>
	<rect id="XMLID_95_" x="476.9" y="151.9" class="st1" width="17.1" height="17.1"/>
	<rect id="XMLID_94_" x="476.9" y="55.4" class="st2" width="175.3" height="11.2"/>
	<rect id="XMLID_93_" x="617.1" y="55.4" class="st3" width="11.2" height="11.2"/>
	<rect id="XMLID_92_" x="629" y="55.4" class="st4" width="11.2" height="11.2"/>
	<rect id="XMLID_91_" x="640.8" y="55.4" class="st5" width="11.2" height="11.2"/>
	<g id="XMLID_28_">
		<g id="XMLID_29_">
			<rect id="XMLID_33_" x="534.5" y="97.2" class="st6" width="95.6" height="59.6"/>
			<rect id="XMLID_31_" x="534.5" y="97.2" class="st7" width="95.6" height="59.6"/>
		</g>
	</g>
	<g id="XMLID_27_">
		<g id="XMLID_70_">
			<path id="XMLID_90_" class="st8" d="M512.5,97.2L512.5,97.2c0-9.1,7.4-16.5,16.5-16.5h16.7c9.1,0,16.5,7.4,16.5,16.5v0
				c0,9.1-7.4,16.5-16.5,16.5H529C519.9,113.7,512.5,106.3,512.5,97.2z"/>
			<path id="XMLID_89_" class="st2" d="M512.5,97.2L512.5,97.2c0-9.1,7.4-16.5,16.5-16.5h16.7c9.1,0,16.5,7.4,16.5,16.5v0
				c0,9.1-7.4,16.5-16.5,16.5H529C519.9,113.7,512.5,106.3,512.5,97.2z"/>
		</g>
	</g>
	<g id="XMLID_34_">
		<circle id="XMLID_3_" class="st9" cx="524.9" cy="97.2" r="4.5"/>
		<circle id="XMLID_37_" class="st9" cx="537.4" cy="97.2" r="4.5"/>
		<circle id="XMLID_39_" class="st9" cx="549.8" cy="97.2" r="4.5"/>
	</g>
	<circle id="XMLID_41_" class="st4" cx="613" cy="110.7" r="6.8"/>
	<circle id="XMLID_104_" class="st5" cx="547.5" cy="136.5" r="6.8"/>
	<line id="XMLID_105_" class="st5" x1="573.8" y1="112.3" x2="596" y2="112.3"/>
	<line id="XMLID_106_" class="st5" x1="562.7" y1="134.8" x2="576.5" y2="134.8"/>
	<line id="XMLID_107_" class="st5" x1="582.3" y1="134.8" x2="596.1" y2="134.8"/>
	<line id="XMLID_108_" class="st5" x1="562.2" y1="143.3" x2="596.1" y2="143.3"/>
	<line id="XMLID_109_" class="st5" x1="603.5" y1="143.3" x2="606" y2="143.3"/>
</g>
<g id="XMLID_145_">
	<path id="XMLID_6_" class="st10" d="M579,574.3H285.5c-5.6,0-10.2-4.6-10.2-10.2V387.7c0-5.6,4.6-10.2,10.2-10.2H579
		c5.6,0,10.2,4.6,10.2,10.2v176.4C589.2,569.7,584.7,574.3,579,574.3z"/>
	<path id="XMLID_30_" class="st2" d="M275.3,544.8v16.9c0,7,5.6,12.6,12.6,12.6h288.7c7,0,12.6-5.6,12.6-12.6v-16.9H275.3z"/>
	<g id="XMLID_16_">
		<g id="XMLID_50_">
			<rect id="XMLID_55_" x="287.7" y="389.9" class="st8" width="289.1" height="142.5"/>
			<rect id="XMLID_54_" x="287.7" y="389.9" class="st11" width="289.1" height="142.5"/>
		</g>
		<g id="XMLID_35_">
			<rect id="XMLID_48_" x="287.7" y="389.9" class="st8" width="289.1" height="142.5"/>
			<rect id="XMLID_46_" x="287.7" y="389.9" class="st11" width="289.1" height="142.5"/>
		</g>
	</g>
	<rect id="XMLID_17_" x="303.2" y="339.5" class="st12" width="258.1" height="176.2"/>
	<g id="XMLID_117_">
		<g id="XMLID_75_">
			<rect id="XMLID_78_" x="315.6" y="351.9" class="st13" width="233.2" height="151.4"/>
			<rect id="XMLID_77_" x="315.6" y="351.9" class="st13" width="233.2" height="151.4"/>
		</g>
		<rect id="XMLID_79_" x="315.6" y="366.8" class="st1" width="22.7" height="22.7"/>
		<rect id="XMLID_81_" x="315.6" y="389.5" class="st1" width="22.7" height="22.7"/>
		<rect id="XMLID_113_" x="315.6" y="412.2" class="st1" width="22.7" height="22.7"/>
		<rect id="XMLID_114_" x="315.6" y="434.9" class="st1" width="22.7" height="22.7"/>
		<rect id="XMLID_115_" x="315.6" y="457.5" class="st1" width="22.7" height="22.7"/>
		<rect id="XMLID_116_" x="315.6" y="480.2" class="st1" width="22.7" height="22.7"/>
		<rect id="XMLID_76_" x="315.6" y="351.9" class="st2" width="233.2" height="14.9"/>
		<rect id="XMLID_80_" x="502.3" y="351.9" class="st3" width="14.9" height="14.9"/>
		<rect id="XMLID_118_" x="518" y="351.9" class="st4" width="14.9" height="14.9"/>
		<rect id="XMLID_119_" x="533.8" y="351.9" class="st5" width="14.9" height="14.9"/>
		<g id="XMLID_120_">
			<rect id="XMLID_123_" x="356.9" y="388.1" class="st8" width="173.3" height="96.5"/>
			<rect id="XMLID_122_" x="356.9" y="388.1" class="st2" width="173.3" height="96.5"/>
		</g>
		<polygon id="XMLID_125_" class="st2" points="384.2,433.4 371.3,436 374.6,439.3 372.4,443.1 374.4,445.1 378.3,442.9 
			381.6,446.2 		"/>
		<g id="XMLID_121_">
			<line id="XMLID_124_" class="st2" x1="386.2" y1="413.6" x2="379.4" y2="420.4"/>
			<line id="XMLID_126_" class="st2" x1="379.4" y1="413.6" x2="386.2" y2="420.4"/>
		</g>
		<path id="XMLID_128_" class="st2" d="M382.8,417h23.1c9.9,0,17.9,8,17.9,17.9v0c0,9.9,8,17.9,17.9,17.9h22.3"/>
	</g>
	<rect id="XMLID_24_" x="443.3" y="438.5" class="st0" width="118" height="77.2"/>
	<g id="XMLID_66_">
		<path id="XMLID_62_" class="st4" d="M514.7,496h-25c-5.2,0-9.5,4.2-9.5,9.5v10.3h43.9v-10.3C524.1,500.2,519.9,496,514.7,496z"/>
		<g id="XMLID_32_">
			<path id="XMLID_63_" class="st2" d="M505.6,502.9h-6.8c-1.6,0-2.9-1.3-2.9-2.9v-13h12.6v13C508.5,501.6,507.2,502.9,505.6,502.9z
				"/>
			<g id="XMLID_56_">
				<circle id="XMLID_57_" class="st2" cx="502.3" cy="475.3" r="16.3"/>
				<g id="XMLID_58_">
					<path id="XMLID_60_" class="st14" d="M502.3,496c-11.4,0-20.7-9.3-20.7-20.7c0-11.4,9.3-20.7,20.7-20.7s20.7,9.3,20.7,20.7
						C522.9,486.7,513.7,496,502.3,496z"/>
					<path id="XMLID_61_" class="st11" d="M481.6,475.3c0-11.4,9.3-20.7,20.7-20.7s20.7,9.3,20.7,20.7"/>
				</g>
				<path id="XMLID_59_" class="st5" d="M485.9,483.9h-3.6c-1.8,0-3.3-1.5-3.3-3.3v-5.3c0-1.8,1.5-3.3,3.3-3.3h3.6V483.9z"/>
				<path id="XMLID_64_" class="st5" d="M520.1,483.9h3.6c1.8,0,3.3-1.5,3.3-3.3v-5.3c0-1.8-1.5-3.3-3.3-3.3h-3.6V483.9z"/>
				<path id="XMLID_65_" class="st15" d="M499.2,463.6c6.2,0,14.5-0.4,20.9-10.2c0,0-19.1-2.1-24.5,1.2
					C490.2,457.9,493,463.6,499.2,463.6z"/>
			</g>
		</g>
	</g>
	<g id="XMLID_68_">
		<path id="XMLID_67_" class="st10" d="M497,478.3h-4.9c-1.3,0-2.4-1.1-2.4-2.4v-1.2c0-1.3,1.1-2.4,2.4-2.4h4.9
			c1.3,0,2.4,1.1,2.4,2.4v1.2C499.5,477.2,498.4,478.3,497,478.3z"/>
		<path id="XMLID_69_" class="st10" d="M512.3,478.3h-4.9c-1.3,0-2.4-1.1-2.4-2.4v-1.2c0-1.3,1.1-2.4,2.4-2.4h4.9
			c1.3,0,2.4,1.1,2.4,2.4v1.2C514.7,477.2,513.6,478.3,512.3,478.3z"/>
	</g>
	<line id="XMLID_74_" class="st11" x1="485.9" y1="475.3" x2="518.6" y2="475.3"/>
	<circle id="XMLID_73_" class="st9" cx="432.3" cy="559.6" r="5.6"/>
	<rect id="XMLID_136_" x="386" y="574.3" class="st2" width="92.6" height="23.1"/>
	<path id="XMLID_138_" class="st2" d="M494.6,608.2H370v-2.1c0-4.8,3.9-8.7,8.7-8.7h107.3c4.8,0,8.7,3.9,8.7,8.7V608.2z"/>
</g>
<line id="XMLID_141_" class="st10" x1="11.7" y1="608.2" x2="692.1" y2="608.2"/>
<line id="XMLID_144_" class="st10" x1="624.6" y1="569" x2="624.6" y2="677.2"/>
<g id="XMLID_5_">
	<g id="XMLID_216_">
		<rect id="XMLID_218_" x="343.1" y="150.8" class="st13" width="175.3" height="113.7"/>
		<rect id="XMLID_217_" x="343.1" y="150.8" class="st13" width="175.3" height="113.7"/>
	</g>
	<rect id="XMLID_215_" x="343.1" y="162" class="st1" width="17.1" height="17.1"/>
	<rect id="XMLID_214_" x="343.1" y="179.1" class="st1" width="17.1" height="17.1"/>
	<rect id="XMLID_213_" x="343.1" y="196.1" class="st1" width="17.1" height="17.1"/>
	<rect id="XMLID_212_" x="343.1" y="213.2" class="st1" width="17.1" height="17.1"/>
	<rect id="XMLID_211_" x="343.1" y="230.2" class="st1" width="17.1" height="17.1"/>
	<rect id="XMLID_210_" x="343.1" y="247.3" class="st1" width="17.1" height="17.1"/>
	<rect id="XMLID_204_" x="343.1" y="150.8" class="st2" width="175.3" height="11.2"/>
	<rect id="XMLID_203_" x="483.3" y="150.8" class="st3" width="11.2" height="11.2"/>
	<rect id="XMLID_197_" x="495.2" y="150.8" class="st4" width="11.2" height="11.2"/>
	<rect id="XMLID_196_" x="507" y="150.8" class="st5" width="11.2" height="11.2"/>
	<g id="XMLID_193_">
		<rect id="XMLID_195_" x="374.1" y="178.1" class="st0" width="130.3" height="72.5"/>
		<rect id="XMLID_194_" x="374.1" y="178.1" class="st0" width="130.3" height="72.5"/>
	</g>
	<polygon id="XMLID_159_" class="st2" points="426.9,225.6 426.9,200.8 451.7,213.2 	"/>
</g>
<g id="XMLID_190_">
	<g id="XMLID_231_">
		<rect id="XMLID_233_" x="486.2" y="190.4" class="st13" width="175.3" height="113.7"/>
		<rect id="XMLID_232_" x="486.2" y="190.4" class="st13" width="175.3" height="113.7"/>
	</g>
	<rect id="XMLID_230_" x="486.2" y="201.6" class="st1" width="17.1" height="17.1"/>
	<rect id="XMLID_229_" x="486.2" y="218.7" class="st1" width="17.1" height="17.1"/>
	<rect id="XMLID_228_" x="486.2" y="235.7" class="st1" width="17.1" height="17.1"/>
	<rect id="XMLID_227_" x="486.2" y="252.8" class="st1" width="17.1" height="17.1"/>
	<rect id="XMLID_226_" x="486.2" y="269.8" class="st1" width="17.1" height="17.1"/>
	<rect id="XMLID_225_" x="486.2" y="286.9" class="st1" width="17.1" height="17.1"/>
	<rect id="XMLID_224_" x="486.2" y="190.4" class="st2" width="175.3" height="11.2"/>
	<rect id="XMLID_223_" x="626.4" y="190.4" class="st3" width="11.2" height="11.2"/>
	<rect id="XMLID_222_" x="638.2" y="190.4" class="st4" width="11.2" height="11.2"/>
	<rect id="XMLID_221_" x="650.1" y="190.4" class="st5" width="11.2" height="11.2"/>
	<g id="XMLID_189_">
		<g id="XMLID_192_">
			<rect id="XMLID_220_" x="521.8" y="215.7" class="st0" width="49.6" height="33"/>
			<rect id="XMLID_219_" x="521.8" y="215.7" class="st0" width="49.6" height="33"/>
		</g>
		<g id="XMLID_191_">
			<rect id="XMLID_235_" x="590.7" y="215.7" class="st8" width="49.6" height="33"/>
			<rect id="XMLID_234_" x="590.7" y="215.7" class="st2" width="49.6" height="33"/>
		</g>
		<g id="XMLID_239_">
			<rect id="XMLID_241_" x="521.8" y="258.6" class="st8" width="49.6" height="33"/>
			<rect id="XMLID_240_" x="521.8" y="258.6" class="st2" width="49.6" height="33"/>
		</g>
		<g id="XMLID_236_">
			<rect id="XMLID_238_" x="590.7" y="258.6" class="st8" width="49.6" height="33"/>
			<rect id="XMLID_237_" x="590.7" y="258.6" class="st2" width="49.6" height="33"/>
		</g>
	</g>
</g>
<g id="XMLID_1_">
	<path id="XMLID_36_" class="st0" d="M262.8,604.4H24.7l0-120.8c0-22.5,18.3-40.8,40.8-40.8H222c22.5,0,40.8,18.3,40.8,40.8
		L262.8,604.4z"/>
	<rect id="XMLID_23_" x="119.1" y="409.3" class="st15" width="49.3" height="43.6"/>
	<rect id="XMLID_22_" x="116.6" y="392.3" class="st15" width="54.2" height="34"/>
	<circle id="XMLID_21_" class="st15" cx="143.7" cy="321.1" r="84.3"/>
	<path id="XMLID_20_" class="st5" d="M213.3,332.2v13.5c0,2.8-1.4,5.4-3.6,6.9l-29.4,18.8c-4.9,3.1-11.1-2.8-11.1-9V362
		c0-4.4-3.3-8-7.4-8h-18.1h-18.1c-4.1,0-7.4,3.6-7.4,8v0.4c0,6.2-6.2,12.1-11.1,9l-29.4-18.8c-2.2-1.4-3.6-4-3.6-6.9v-13.5
		c0-4.4-3.3-8-7.4-8h0c-4.1,0-7.4,3.6-7.4,8V390c0,1.5,0.4,3,1.1,4.2L81.8,431c1.3,2.3,3.7,3.7,6.2,3.7h55.7h55.7
		c2.5,0,4.9-1.4,6.2-3.7l21.2-36.8c0.7-1.3,1.1-2.7,1.1-4.2v-57.8c0-4.4-3.3-8-7.4-8h0C216.6,324.3,213.3,327.8,213.3,332.2z"/>
	<path id="XMLID_19_" class="st5" d="M204.2,247.7l10.2,64.5h13.2c0,0,6-23.9,7.4-43.3C236.4,249.6,204.2,247.7,204.2,247.7z"/>
	<g id="XMLID_11_">
		<path id="XMLID_18_" class="st4" d="M86,336.5h30.2c3.4,0,6.5-1.5,8.7-4.1l8.9-10.8c1.6-2,2.5-4.5,2.5-7.1l0,0
			c0-5.2-3.5-9.7-8.6-10.9l-12.6-3c-8.8-2.1-18-1.8-26.6,1.1l-8.4,2.8c-5.6,1.8-8.8,7.6-7.4,13.3l2.5,10.2
			C76.3,333,80.8,336.5,86,336.5z"/>
		<path id="XMLID_15_" class="st4" d="M201.5,336.5h-30.2c-3.4,0-6.5-1.5-8.7-4.1l-8.9-10.8c-1.6-2-2.5-4.5-2.5-7.1l0,0
			c0-5.2,3.5-9.7,8.6-10.9l12.6-3c8.8-2.1,18-1.8,26.6,1.1l8.4,2.8c5.6,1.8,8.8,7.6,7.4,13.3l-2.5,10.2
			C211.1,333,206.6,336.5,201.5,336.5z"/>
		<g id="XMLID_12_">
			<path id="XMLID_14_" class="st6" d="M160.6,306.7c-3.6,0.9-6.1,4.1-6.1,7.8c0,0.3,0,0.6,0.1,0.9c19.2-0.9,36.3-4.3,47.7-9.4
				l-4.2-1.4c-4.6-1.5-9.4-2.3-14.2-2.3c-3.6,0-7.2,0.4-10.7,1.3L160.6,306.7z"/>
			<path id="XMLID_13_" class="st6" d="M133,315.4c0-0.3,0.1-0.6,0.1-0.9c0-3.7-2.5-6.9-6.1-7.8l-12.6-3c-8.2-2-16.8-1.6-24.8,1
				l-4.2,1.4C96.6,311.1,113.7,314.5,133,315.4z"/>
		</g>
	</g>
	<path id="XMLID_10_" class="st10" d="M143.7,309.6c3.2,0,5.8,2.6,5.8,5.8h1.8c0-0.3-0.1-0.6-0.1-1v0c0-3.4,1.5-6.5,4-8.6
		c-2.7-3.3-6.9-5.4-11.5-5.4c-4.6,0-8.8,2.1-11.5,5.4c2.5,2.1,4,5.2,4,8.6v0c0,0.3-0.1,0.6-0.1,1h1.8
		C137.9,312.3,140.5,309.6,143.7,309.6z"/>
	<rect id="XMLID_9_" x="215.2" y="312.3" class="st10" width="12.9" height="14.7"/>
	<rect id="XMLID_8_" x="129.3" y="367.3" class="st15" width="28.9" height="8.6"/>
	<path id="XMLID_112_" class="st21" d="M63.9,306.5c0,0.4,0.1,0.8,0.1,1.2l7.4,1l4-29.6c0.1-0.9,0.6-1.7,1.3-2.2
		c0.7-0.5,1.7-0.7,2.5-0.5c1,0.2,95.9,21.6,151.6,0.3c0.4-2.9,0.6-5.6,0.8-8c0.2-3.2-0.6-5.9-2.6-8.2l-10.1-1.4
		c-1.3-0.2-2.3-1.1-2.6-2.3c-0.3-1.2,0.1-2.4,1-3.2c-3.5-1.1-6.9-1.8-9.5-2.2l2.1,13.6c0.2,1.4-0.5,2.8-1.8,3.4
		c-1.3,0.6-2.8,0.3-3.7-0.8C189.2,250,167,240,143.7,240C104.4,240,70.9,267.9,63.9,306.5z"/>
	<path id="XMLID_7_" class="st5" d="M61,312.3h13.2v-33c0,0,140.1,12.6,177.3-42.4h-40.9l13.8-14c0,0-124.7-21.6-149.5,17.9
		c0,0-22.7,8.9-21.3,28.3C55,288.3,61,312.3,61,312.3z"/>
	<rect id="XMLID_4_" x="59.4" y="312.3" class="st10" width="12.9" height="14.7"/>
	<path id="XMLID_2_" class="st11" d="M74.9,240.7c-3.6,6.4-2.6,13.3-2.6,13.3"/>
</g>
<g id="XMLID_43_">
	<polygon id="XMLID_45_" class="st2" points="79.2,92.1 149.2,78.8 77.2,110.2 	"/>
	<polygon id="XMLID_44_" class="st2" points="82.4,109.2 88.9,113.6 149.2,78.8 	"/>
</g>
<g id="XMLID_38_">
	<polygon id="XMLID_42_" class="st2" points="333.7,26.3 263.7,39.6 342.1,42.4 	"/>
	<polygon id="XMLID_40_" class="st2" points="336.9,43.4 332.5,49.9 263.7,39.6 	"/>
</g>
</svg>
